<svg width="130" height="138" viewBox="0 0 130 138" fill="none" xmlns="http://www.w3.org/2000/svg">
<path d="M56.875 77.625C56.875 82.8 56.875 79.7812 56.875 86.25C56.875 115.575 48.75 117.731 36.5625 117.731C25.1875 117.731 12.1875 142.744 12.1875 101.344C12.1875 59.9437 33.3125 25.875 45.9063 25.875C49.1563 25.875 52 27.1688 53.625 34.0688" stroke="white" stroke-width="2" stroke-miterlimit="10" stroke-linecap="round" stroke-linejoin="round"/>
<path d="M73.125 77.625C73.125 82.8 73.125 79.7812 73.125 86.25C73.125 115.575 81.25 117.731 93.4375 117.731C104.812 117.731 117.812 142.744 117.812 101.344C117.812 59.9437 96.6875 25.875 84.5 25.875C81.25 25.875 78.4062 27.1688 76.7812 34.0688" stroke="white" stroke-width="2" stroke-miterlimit="10" stroke-linecap="round" stroke-linejoin="round"/>
<path d="M65 8.625V37.0875C65 43.5563 62.1563 50.025 57.2813 54.3375L40.625 69" stroke="white" stroke-width="2" stroke-miterlimit="10" stroke-linecap="round" stroke-linejoin="round"/>
<path d="M65 37.0874C65 43.5562 67.8437 50.0249 72.7187 54.3374L89.375 68.9999" stroke="white" stroke-width="2" stroke-miterlimit="10" stroke-linecap="round" stroke-linejoin="round"/>
</svg>
