<svg width="536" height="431" viewBox="0 0 536 431" fill="none" xmlns="http://www.w3.org/2000/svg">
<path fill-rule="evenodd" clip-rule="evenodd" d="M298.89 22.552C298.136 22.558 298.409 23.586 297.373 23.31C297.205 22.973 297.041 22.633 296.615 22.552C296.555 20.695 298.965 20.695 298.895 22.552H298.89ZM317.85 21.414C317.621 21.196 316.052 20.527 315.954 21.414C314.004 23.263 318.864 24.465 317.854 21.414H317.85ZM336.81 21.414C336.581 21.196 335.012 20.527 334.915 21.414C332.955 23.263 337.815 24.465 336.805 21.414H336.81ZM353.49 22.552C353.915 22.633 354.08 22.973 354.248 23.31C355.282 23.586 355.011 22.558 355.764 22.552C355.824 20.695 353.414 20.695 353.484 22.552H353.49ZM278.04 21.794V22.552C278.271 22.573 278.488 22.61 278.419 22.931H279.177C279.199 22.701 279.235 22.484 279.557 22.552V21.794C279.326 21.773 279.108 21.737 279.177 21.414H278.419C278.399 21.646 278.36 21.863 278.04 21.794ZM372.82 21.794V22.552C373.051 22.573 373.268 22.61 373.199 22.931H373.957C373.979 22.701 374.015 22.484 374.336 22.552V21.794C374.106 21.773 373.888 21.737 373.957 21.414H373.199C373.179 21.646 373.149 21.863 372.819 21.794H372.82ZM309.89 31.272C309.655 29.356 308.049 28.413 306.1 29.376C300.58 32.102 310.69 37.809 309.89 31.272ZM328.84 30.136C328.3 29.27 325.886 28.31 324.671 29.376C319.531 33.323 330.641 37.593 328.841 30.136H328.84ZM347.8 31.272C347.577 29.328 346.087 28.766 344.388 29.376C338.208 31.597 348.568 38 347.798 31.272H347.8ZM290.55 31.651C290.55 29.589 289.101 29.089 287.518 29.755C282.758 31.757 290.548 36.876 290.548 31.651H290.55ZM361.83 32.031C362.369 32.755 363.001 33.387 363.725 33.927C365.271 33.703 366.157 32.818 366.38 31.273C365.47 28.871 362.03 29.069 361.83 32.031ZM267.8 32.41C268.226 32.489 268.39 32.831 268.558 33.168C270.105 33.324 270.951 32.78 270.833 31.272C270.423 29.438 267.083 29.923 267.793 32.41H267.8ZM384.2 30.894C383.971 30.675 382.401 30.005 382.304 30.894C380.354 32.742 385.214 33.944 384.204 30.894H384.2ZM251.12 32.41V30.893H249.602C249.312 32.199 249.812 32.704 251.122 32.41H251.12ZM401.26 31.272V32.031C401.492 32.052 401.709 32.087 401.641 32.41H402.399C402.42 32.179 402.456 31.961 402.778 32.031V31.272C402.548 31.251 402.33 31.215 402.399 30.893H401.641C401.621 31.125 401.58 31.343 401.26 31.272ZM312.16 39.234C309.362 48.678 323.543 46.903 321.261 39.234C320.561 36.882 317.688 35.899 314.816 36.96C313.446 37.462 312.416 38.359 312.156 39.234H312.16ZM331.12 40.372C329.94 50.129 345.995 44.632 339.081 37.718C338.304 36.941 336.493 36.242 334.152 36.96C331.092 37.897 331.222 39.516 331.122 40.372H331.12ZM301.92 43.026C303.277 38.983 299.613 35.762 295.855 37.338C287.785 40.724 299.575 50.001 301.915 43.026H301.92ZM350.46 42.269C351.419 47.184 360.016 46.211 358.801 39.993C358.422 38.055 356.877 36.047 353.113 37.34C350.983 38.071 349.823 39.039 350.463 42.269H350.46ZM275.76 43.405C276.698 44.733 280.129 44.999 281.446 43.784C282.379 42.823 282.434 40.258 281.827 38.855C279.007 35.839 273.317 38.896 275.757 43.405H275.76ZM377 40.751C376.829 38.688 375.669 36.942 372.45 38.098C364.62 40.903 377.72 49.445 377 40.751ZM257.94 43.026C259.04 43.516 260.631 43.516 261.731 43.026C262.223 41.925 262.223 40.336 261.731 39.234C258.951 37.665 256.38 40.239 257.94 43.026ZM394.81 41.13C394.81 39.067 393.363 38.569 391.778 39.234C387.018 41.234 394.808 46.355 394.808 41.13H394.81ZM242.02 40.372C241.791 40.153 240.222 39.484 240.125 40.372C238.185 42.222 243.035 43.422 242.025 40.372H242.02ZM412.64 40.372C412.411 40.153 410.842 39.484 410.744 40.372C408.794 42.222 413.644 43.422 412.644 40.372H412.64ZM282.59 49.093C281.569 54.532 288.32 58.906 292.447 54.781C299.857 47.362 284.287 40.038 282.587 49.093H282.59ZM358.42 50.609C358.42 58.503 370.191 57.801 369.793 50.229C369.623 46.958 367.455 44.398 362.969 45.3C359.919 45.914 358.42 47.573 358.42 50.609ZM264.39 50.609C264.39 57.729 274.634 56.768 274.247 50.229C274.077 47.343 272.309 45.109 268.181 46.059C265.451 46.688 264.391 48.114 264.391 50.609H264.39ZM378.51 49.851C377.33 59.607 393.385 54.11 386.471 47.197C385.694 46.42 383.884 45.722 381.542 46.439C378.482 47.376 378.622 48.995 378.512 49.851H378.51ZM253.77 50.229C253.599 48.167 252.439 46.421 249.22 47.575C241.4 50.382 254.5 58.925 253.77 50.229ZM398.99 52.125C401.875 56.673 408.087 50.461 403.54 47.575C402.634 47.807 400.789 47.1 400.506 47.954C399.056 48.402 398.776 50.023 398.986 52.125H398.99ZM232.92 49.093C230.731 47.788 228.582 49.938 229.887 52.125C232.077 53.43 234.227 51.281 232.917 49.093H232.92ZM419.84 52.125C420.848 52.121 422.007 52.269 422.495 51.746V49.472C420.605 47.894 418.255 50.246 419.835 52.125H419.84ZM211.69 50.229V50.988C211.92 51.009 212.138 51.044 212.069 51.367H212.827C212.849 51.136 212.885 50.918 213.208 50.988V50.229C212.976 50.208 212.759 50.172 212.827 49.85H212.069C212.048 50.082 212.013 50.3 211.69 50.229ZM439.18 50.229V50.988C439.41 51.009 439.629 51.044 439.559 51.367H440.317C440.338 51.136 440.374 50.918 440.697 50.988V50.229C440.466 50.208 440.248 50.172 440.317 49.85H439.559C439.529 50.082 439.499 50.3 439.179 50.229H439.18ZM392.54 54.401C388.481 54.401 384.633 60.52 388.369 64.257C396.059 71.944 403.479 54.401 392.539 54.401H392.54ZM238.23 63.879C244.716 68.215 248.396 55.007 240.504 55.917C236.174 56.417 235.084 61.774 238.234 63.879H238.23ZM408.46 63.121C414.505 69.167 419.13 54.491 410.734 56.296C407.514 56.992 406.064 60.719 408.464 63.121H408.46ZM220.03 61.983C221.13 62.473 222.719 62.473 223.821 61.983C224.312 60.882 224.312 59.293 223.821 58.191C221.031 56.622 218.46 59.196 220.03 61.983ZM432.73 60.087C432.73 58.024 431.281 57.526 429.696 58.191C424.936 60.192 432.726 65.312 432.726 60.087H432.73ZM203.73 60.847V59.329H202.213C201.918 60.636 202.424 61.141 203.73 60.847ZM450.17 60.847V59.329H448.653C448.363 60.636 448.863 61.141 450.173 60.847H450.17ZM226.48 68.05C224.399 77.441 238.076 75.859 236.337 68.05C235.668 65.043 233.082 64.107 229.892 65.017C227.642 65.655 226.652 67.207 226.472 68.05H226.48ZM416.43 67.671C413.632 77.114 427.813 75.339 425.529 67.671C424.83 65.319 421.958 64.336 419.084 65.396C417.724 65.897 416.694 66.796 416.434 67.671H416.43ZM215.48 69.188C215.333 67.716 214.352 66.469 212.068 66.912C203.947 68.491 216.271 77.06 215.48 69.188ZM442.59 69.188C442.367 67.243 440.877 66.683 439.178 67.292C432.988 69.511 443.358 75.914 442.588 69.188H442.59ZM192.35 69.945C192.776 70.026 192.941 70.366 193.109 70.703C194.143 70.979 193.873 69.95 194.627 69.945C194.696 68.089 192.279 68.089 192.35 69.945ZM459.65 70.324V68.807H458.133C457.843 70.113 458.343 70.618 459.653 70.324H459.65ZM216.62 77.148C213.909 87.824 229.401 85.672 227.236 77.148C226.494 74.225 223.332 73.086 220.033 74.116C218.013 74.743 216.873 76.118 216.613 77.148H216.62ZM425.15 79.044C425.15 86.214 436.123 85.747 435.766 78.665C435.624 75.84 433.591 73.497 429.7 74.116C426.75 74.585 425.15 76.13 425.15 79.044ZM199.93 80.562C204.764 86.86 209.373 73.906 201.448 76.391C199.999 76.839 199.724 78.46 199.93 80.562ZM447.13 80.94C449.627 83.151 453.591 80.472 451.68 77.148C449.18 74.938 445.21 77.617 447.13 80.94ZM182.86 79.425C183.286 79.504 183.45 79.845 183.618 80.183C184.653 80.458 184.381 79.429 185.135 79.425C185.205 77.566 182.789 77.566 182.86 79.425ZM469.12 79.804V78.286H467.604C467.314 79.593 467.814 80.098 469.124 79.804H469.12ZM438.03 93.832C447.38 96.22 447.514 80.578 438.03 83.595C433.19 85.133 433.65 92.714 438.03 93.832ZM195.75 91.177C198.048 89.253 196.176 84.935 193.096 85.489C186.398 86.696 192.305 94.06 195.75 91.177ZM457.37 91.177C461.692 92.489 462.518 87.679 460.402 85.87C456.072 84.558 455.252 89.368 457.372 91.177H457.37ZM173.39 88.902C173.816 88.983 173.98 89.323 174.15 89.661C175.183 89.937 174.913 88.907 175.666 88.902C175.736 87.046 173.318 87.046 173.39 88.902ZM478.61 89.281V87.765H477.093C476.803 89.07 477.303 89.575 478.613 89.281H478.61ZM444.1 96.106C441.389 106.781 456.881 104.629 454.717 96.106C453.974 93.182 450.813 92.044 447.513 93.073C445.493 93.7 444.363 95.075 444.093 96.106H444.1ZM180.98 99.14C182.59 104.163 190.736 98.646 185.529 94.969C181.691 94.227 180.251 96.871 180.98 99.14ZM471.02 97.622C470.784 95.707 469.178 94.763 467.228 95.726C461.718 98.453 471.828 104.16 471.018 97.622H471.02ZM165.81 98.761V97.243H164.293C164 98.55 164.505 99.055 165.81 98.761ZM486.57 97.622V98.382C486.8 98.403 487.019 98.438 486.949 98.761H487.707C487.729 98.529 487.765 98.312 488.088 98.382V97.622C487.856 97.601 487.639 97.566 487.707 97.243H486.949C486.929 97.476 486.889 97.692 486.569 97.622H486.57ZM453.58 107.102C453.12 115.792 464.954 113.915 464.196 106.723C463.884 103.757 461.831 101.336 457.372 102.552C454.592 103.31 453.682 105.14 453.572 107.102H453.58ZM177.19 105.964C176.648 105.099 174.234 104.14 173.019 105.206C167.877 109.151 178.989 113.42 177.19 105.964ZM475.57 107.102C474.6 114.412 485.854 104.367 476.709 105.585C475.679 106.286 475.699 106.112 475.569 107.102H475.57ZM154.82 107.102V107.86C155.052 107.882 155.269 107.918 155.199 108.24H155.959C155.98 108.009 156.015 107.791 156.338 107.86V107.102C156.106 107.081 155.889 107.044 155.959 106.723H155.199C155.179 106.953 155.144 107.172 154.82 107.102ZM178.707 115.06C175.995 125.736 191.488 123.585 189.323 115.06C188.58 112.136 185.42 110.999 182.119 112.028C180.106 112.658 178.969 114.028 178.707 115.058V115.06ZM463.447 116.58C463.002 124.992 474.482 122.886 473.304 115.82C472.906 113.431 471.092 111.178 466.858 112.409C464.198 113.179 463.548 114.769 463.448 116.579L463.447 116.58ZM162.787 116.58C161.815 123.89 173.07 113.843 163.925 115.062C162.889 115.762 162.918 115.592 162.787 116.582V116.58ZM488.847 115.44C486.659 114.135 484.508 116.286 485.813 118.474C488.003 119.784 490.153 117.634 488.843 115.444L488.847 115.44ZM169.607 126.06C169.162 134.474 180.642 132.366 179.464 125.302C179.066 122.912 177.252 120.66 173.019 121.889C170.355 122.659 169.702 124.25 169.607 126.06ZM473.307 126.82C473.686 132.6 482.803 132.107 482.407 126.061C482.247 123.617 480.606 121.607 477.098 122.269C474.468 122.759 473.118 123.909 473.308 126.819L473.307 126.82ZM153.687 126.82C154.173 128.912 157.746 128.716 157.479 126.061C156.991 123.971 153.419 124.16 153.687 126.82ZM495.297 126.82C499.477 130.76 497.587 121.32 495.297 126.82ZM160.887 137.06C161.848 141.975 170.442 141.001 169.229 134.784C168.85 132.846 167.305 130.838 163.541 132.131C161.408 132.861 160.257 133.82 160.887 137.06ZM483.547 135.92C483.547 140.76 491.582 141.068 491.129 135.541C490.906 132.818 488.864 131.98 486.579 132.507C483.869 133.127 483.549 134.717 483.549 135.917L483.547 135.92ZM147.237 135.16C147.007 134.941 145.438 134.271 145.341 135.16C143.392 137.01 148.245 138.21 147.237 135.16ZM507.047 136.68V135.164H505.529C505.239 136.464 505.749 136.974 507.049 136.684L507.047 136.68ZM158.997 145.02C158.81 142.739 156.895 141.817 154.826 142.367C146.533 144.557 159.724 153.897 158.997 145.017V145.02ZM494.537 147.29C497.034 149.499 500.998 146.821 499.086 143.498C496.586 141.288 492.626 143.968 494.536 147.288L494.537 147.29ZM135.867 145.02V145.779C136.099 145.8 136.316 145.836 136.246 146.158H137.006C137.027 145.927 137.062 145.709 137.385 145.779V145.02C137.153 144.999 136.936 144.964 137.006 144.641H136.246C136.226 144.871 136.191 145.09 135.867 145.02ZM159.374 154.12C158.904 159.163 166.006 163.254 169.611 158.669C175.981 150.559 160.25 144.72 159.374 154.12ZM482.024 154.87C482.024 162.406 493.006 161.539 492.639 154.491C492.475 151.355 490.493 149.011 486.194 149.941C483.244 150.581 482.014 151.981 482.014 154.871L482.024 154.87ZM143.824 154.5C142.852 161.81 154.107 151.764 144.961 152.982C143.926 153.682 143.955 153.502 143.824 154.502V154.5ZM504.394 155.25C504.881 157.342 508.454 157.146 508.186 154.492C507.696 152.402 504.126 152.602 504.396 155.252L504.394 155.25ZM151.034 163.59C149.855 173.348 165.91 167.851 158.996 160.937C158.219 160.16 156.409 159.461 154.067 160.179C151.004 161.119 151.138 162.74 151.034 163.59ZM493.774 167.39C499.82 173.435 504.445 158.759 496.049 160.566C492.819 161.256 491.379 164.976 493.779 167.386L493.774 167.39ZM137.764 163.59C137.534 163.372 135.965 162.703 135.868 163.59C133.917 165.44 138.772 166.64 137.764 163.59ZM514.624 164.73C515.05 164.811 515.215 165.151 515.383 165.488C516.417 165.764 516.146 164.736 516.9 164.73C516.97 162.88 514.56 162.88 514.62 164.73H514.624ZM142.684 174.21C143.084 179.062 152.308 177.487 149.129 171.934C148.636 171.073 147.256 170.286 145.339 170.797C142.596 171.537 142.578 172.937 142.684 174.217V174.21ZM504.014 175.73C506.511 177.941 510.476 175.262 508.565 171.938C506.065 169.718 502.105 172.398 504.015 175.728L504.014 175.73ZM126.384 173.45V174.209C126.615 174.23 126.833 174.265 126.764 174.588H127.522C127.543 174.357 127.58 174.139 127.901 174.209V173.45C127.67 173.429 127.452 173.393 127.522 173.071H126.764C126.741 173.301 126.706 173.521 126.384 173.451V173.45ZM155.958 189C162.728 188.651 163.1 176.729 154.819 178.004C147.253 179.174 149.956 189.314 155.958 189.004V189ZM491.878 182.55C490.842 191.351 502.948 189.452 501.735 182.17C501.334 179.765 499.52 177.529 495.29 178.759C492.75 179.499 492.04 181.109 491.87 182.549L491.878 182.55ZM135.478 185.21C137.898 185.606 138.91 184.597 138.511 182.176C136.516 179.656 132.965 183.206 135.478 185.206V185.21ZM514.248 184.07C514.674 184.151 514.838 184.492 515.007 184.83C516.554 184.986 517.399 184.44 517.281 182.934C516.871 181.104 513.541 181.584 514.251 184.074L514.248 184.07ZM143.058 195.82C149.105 201.866 153.729 187.19 145.334 188.996C142.1 189.686 140.658 193.416 143.058 195.816V195.82ZM509.698 192.41C509.527 190.346 508.367 188.602 505.148 189.756C497.318 192.556 510.418 201.096 509.698 192.406V192.41ZM127.898 193.55V192.033H126.381C126.087 193.343 126.593 193.843 127.898 193.553V193.55ZM524.478 192.41V193.169C524.71 193.19 524.927 193.225 524.857 193.548H525.617C525.638 193.317 525.673 193.099 525.996 193.169V192.41C525.764 192.389 525.547 192.353 525.617 192.031H524.857C524.837 192.261 524.807 192.481 524.477 192.411L524.478 192.41ZM491.118 202.27C491.118 209.842 502.868 209.348 502.493 201.891C502.346 198.977 500.14 196.597 496.427 196.961C493.077 197.291 491.117 199.061 491.117 202.271L491.118 202.27ZM134.718 204.16C135.82 204.65 137.409 204.65 138.51 204.16C139.002 203.059 139.002 201.47 138.51 200.368C135.723 198.798 133.148 201.378 134.718 204.158V204.16ZM517.278 200.75C515.09 199.446 512.94 201.595 514.245 203.784C516.435 205.094 518.575 202.944 517.275 200.754L517.278 200.75ZM141.548 212.12C141.927 217.901 151.044 217.408 150.648 211.362C150.488 208.918 148.847 206.906 145.34 207.57C142.708 208.07 141.356 209.22 141.548 212.12ZM510.078 210.99C509.796 209.092 508.554 207.279 505.149 208.336C495.789 211.236 511.599 221.236 510.079 210.986L510.078 210.99ZM125.998 212.12C126.424 212.201 126.588 212.541 126.757 212.878C127.791 213.154 127.52 212.125 128.273 212.12C128.344 210.27 125.928 210.27 125.998 212.12ZM525.998 212.5V210.983H524.48C524.19 212.293 524.69 212.803 526 212.503L525.998 212.5ZM491.118 221.22C491.118 229.114 502.89 228.413 502.493 220.841C502.321 217.57 500.153 215.011 495.668 215.913C492.608 216.533 491.108 218.193 491.108 221.223L491.118 221.22ZM139.268 220.84C139.045 218.897 137.554 218.335 135.855 218.944C129.672 221.174 140.037 227.574 139.268 220.844V220.84ZM514.618 223.12C517.038 223.518 518.049 222.507 517.651 220.087C515.661 217.567 512.111 221.117 514.621 223.117L514.618 223.12ZM150.268 232.6C151.624 228.557 147.96 225.336 144.202 226.912C136.129 230.302 147.926 239.572 150.268 232.602V232.6ZM502.488 231.08C502.871 236.275 510.437 235.296 510.07 230.322C509.905 228.081 508.471 226.26 505.141 227.288C503.131 227.908 502.341 229.028 502.491 231.078L502.488 231.08ZM125.998 231.08C126.424 231.161 126.588 231.501 126.757 231.839C127.791 232.115 127.52 231.085 128.273 231.08C128.344 229.23 125.928 229.23 125.998 231.08ZM525.998 231.46V229.944H524.48C524.19 231.254 524.69 231.764 526 231.464L525.998 231.46ZM493.008 244.35C501.291 251.615 506.99 232.26 495.283 235.251C491.153 236.311 489.793 241.531 493.013 244.351L493.008 244.35ZM134.338 239.8C133.368 247.111 144.622 237.065 135.476 238.284C134.44 238.994 134.47 238.814 134.338 239.804V239.8ZM513.868 240.56C514.353 242.651 517.928 242.456 517.659 239.8C517.169 237.71 513.598 237.91 513.868 240.56ZM142.308 248.9C141.314 255.835 151.718 254.352 149.892 248.141C149.287 246.086 146.92 245.329 144.583 246.245C142.7 246.985 142.415 248.165 142.308 248.905V248.9ZM509.708 249.28C509.521 246.998 507.606 246.076 505.537 246.627C497.237 248.827 510.427 258.157 509.707 249.277L509.708 249.28ZM126.388 250.42C127.576 250.595 128.08 250.09 127.905 248.903H126.388V250.423V250.42ZM524.488 249.28V250.038C524.72 250.06 524.937 250.096 524.867 250.418H525.627C525.648 250.187 525.683 249.968 526.006 250.038V249.28C525.774 249.259 525.557 249.222 525.627 248.901H524.867C524.847 249.131 524.817 249.351 524.487 249.281L524.488 249.28ZM150.278 258.76C149.818 267.449 161.651 265.573 160.893 258.379C160.581 255.414 158.529 252.994 154.069 254.209C151.289 254.969 150.38 256.8 150.278 258.76ZM492.268 257.24C489.431 264.978 502.168 266.232 501.747 258.758C501.615 256.415 500.412 254.137 496.439 254.586C493.949 254.866 492.669 256.146 492.269 257.236L492.268 257.24ZM134.728 259.52C135.215 261.611 138.788 261.416 138.52 258.762C138.033 256.672 134.461 256.862 134.728 259.522V259.52ZM516.908 258.38C516.678 258.161 515.109 257.493 515.012 258.38C513.072 260.23 517.922 261.43 516.912 258.38H516.908ZM143.068 269.76C145.043 276.084 152.743 267.057 147.24 265.59C146.695 265.444 145.914 265.571 144.965 265.969C143.368 266.629 142.205 266.979 143.068 269.759V269.76ZM504.398 270.51C505.5 271.002 507.089 271.002 508.19 270.51C508.682 269.41 508.682 267.821 508.19 266.719C505.4 265.149 502.83 267.729 504.4 270.509L504.398 270.51ZM151.408 279.23C152.369 284.145 160.964 283.171 159.749 276.954C159.371 275.016 157.826 273.008 154.062 274.301C151.929 275.041 150.777 276 151.408 279.23ZM493.018 278.1C493.018 282.94 501.055 283.248 500.602 277.721C500.377 274.998 498.337 274.16 496.051 274.687C493.351 275.307 493.021 276.887 493.021 278.097L493.018 278.1ZM137.768 277.34C137.538 277.121 135.969 276.451 135.872 277.34C133.921 279.19 138.776 280.39 137.768 277.34ZM516.528 278.85V277.334H515.012C514.722 278.644 515.232 279.154 516.532 278.854L516.528 278.85ZM159.748 287.2C159.288 295.889 171.123 294.013 170.365 286.821C170.053 283.856 168.001 281.435 163.54 282.65C160.76 283.4 159.853 285.23 159.748 287.2ZM482.408 287.58C482.408 294.248 492.642 293.769 492.265 287.2C492.116 284.591 490.178 282.379 486.577 283.029C483.917 283.499 482.407 285.029 482.407 287.579L482.408 287.58ZM147.618 286.06C145.43 284.755 143.28 286.905 144.585 289.092C146.774 290.402 148.922 288.252 147.618 286.062V286.06ZM504.778 288.33C505.203 288.411 505.368 288.751 505.536 289.088C507.083 289.244 507.929 288.7 507.811 287.192C507.411 285.362 504.071 285.852 504.781 288.332L504.778 288.33ZM478.238 302.74C484.852 302.395 485.242 289.979 476.721 291.745C469.771 293.195 471.831 303.085 478.241 302.745L478.238 302.74ZM158.238 295.54C157.696 294.676 155.282 293.716 154.067 294.782C148.926 298.722 160.038 302.992 158.238 295.542V295.54ZM494.538 296.67C493.566 303.981 504.821 293.934 495.675 295.153C494.635 295.863 494.665 295.683 494.535 296.673L494.538 296.67ZM161.268 306.15C160.668 313.598 171.689 309.22 168.094 304.254C167.715 303.731 166.443 302.829 164.681 303.115C162.348 303.505 161.365 304.955 161.268 306.155V306.15ZM484.298 307.67C486.271 313.994 493.971 304.968 488.469 303.499C487.923 303.354 487.142 303.481 486.194 303.878C484.604 304.548 483.444 304.898 484.304 307.668L484.298 307.67ZM146.858 307.29V305.773H145.342C145.049 307.083 145.554 307.583 146.858 307.293V307.29ZM505.528 306.15V306.908C505.76 306.929 505.977 306.964 505.907 307.287H506.667C506.688 307.056 506.723 306.838 507.046 306.908V306.15C506.814 306.128 506.597 306.092 506.667 305.77H505.907C505.887 306 505.857 306.22 505.527 306.15H505.528ZM170.368 317.15C171.328 322.066 179.923 321.092 178.709 314.875C178.33 312.937 176.785 310.929 173.021 312.221C170.888 312.941 169.736 313.911 170.368 317.141V317.15ZM481.648 315.25C481.364 313.351 480.122 311.538 476.718 312.597C467.368 315.507 483.178 325.507 481.648 315.247V315.25ZM154.068 316.39C158.246 320.34 156.361 310.9 154.068 316.39ZM495.678 316.39C496.104 316.469 496.268 316.81 496.437 317.148C497.471 317.423 497.2 316.394 497.953 316.39C498.013 314.53 495.603 314.53 495.673 316.39H495.678ZM179.468 323.59C176.631 331.328 189.369 332.582 188.947 325.107C188.814 322.758 187.612 320.486 183.638 320.936C181.148 321.216 179.868 322.496 179.468 323.586V323.59ZM464.208 326.63C465.167 331.547 473.764 330.572 472.549 324.356C472.17 322.417 470.626 320.409 466.861 321.702C464.731 322.422 463.581 323.392 464.211 326.622L464.208 326.63ZM163.168 325.87C163.653 327.961 167.228 327.766 166.959 325.112C166.474 323.022 162.901 323.212 163.168 325.872V325.87ZM485.818 326.25C486.244 326.331 486.409 326.672 486.577 327.009C488.124 327.165 488.97 326.62 488.852 325.113C488.452 323.273 485.112 323.763 485.822 326.253L485.818 326.25ZM188.568 334.59C188.123 343.004 199.604 340.898 198.425 333.832C198.027 331.443 196.213 329.19 191.98 330.42C189.318 331.19 188.663 332.78 188.568 334.59ZM454.348 336.1C455.356 341.463 464.699 340.483 463.449 333.825C463.056 331.737 461.348 329.562 457.383 330.792C455.103 331.502 453.713 332.682 454.353 336.102L454.348 336.1ZM176.818 334.97C176.818 332.906 175.369 332.408 173.784 333.074C169.026 335.074 176.818 340.194 176.818 334.974V334.97ZM475.958 335.35C476.716 337.116 478.99 337.116 479.749 335.35C479.759 332.56 475.959 332.56 475.959 335.35H475.958ZM201.078 349.38C209.869 351.83 210.197 336.794 201.078 339.901C195.834 341.681 198.238 348.581 201.078 349.381V349.38ZM444.868 343.69C443.688 353.447 459.743 347.949 452.83 341.035C452.052 340.26 450.241 339.561 447.9 340.277C444.84 341.207 444.98 342.827 444.87 343.687L444.868 343.69ZM181.748 344.07C180.777 351.38 192.031 341.333 182.886 342.553C181.851 343.253 181.879 343.083 181.748 344.073V344.07ZM467.238 346.34C469.659 346.737 470.669 345.727 470.272 343.308C468.282 340.798 464.732 344.348 467.242 346.338L467.238 346.34ZM164.308 344.07V344.828C164.538 344.85 164.756 344.886 164.687 345.208H165.445C165.467 344.977 165.503 344.759 165.825 344.828V344.07C165.594 344.048 165.376 344.012 165.445 343.691H164.687C164.666 343.921 164.629 344.141 164.308 344.071V344.07ZM207.531 353.93C207.531 362.276 221.816 358.741 216.63 350.896C215.84 349.7 213.9 348.801 211.322 349.379C207.739 350.179 207.529 351.979 207.529 353.929L207.531 353.93ZM440.321 358.48C445.626 358.169 445.864 347.967 438.805 349.76C433.215 351.17 435.435 358.76 440.325 358.48H440.321ZM191.221 353.55C190.25 360.86 201.503 350.813 192.358 352.032C191.322 352.732 191.353 352.562 191.221 353.552V353.55ZM457.761 355.82C460.181 356.218 461.192 355.208 460.793 352.787C458.803 350.267 455.253 353.817 457.763 355.817L457.761 355.82ZM173.781 353.55V354.308C174.013 354.329 174.23 354.364 174.162 354.687H174.92C174.941 354.455 174.976 354.238 175.299 354.308V353.55C175.067 353.528 174.85 353.492 174.92 353.169H174.162C174.14 353.399 174.105 353.62 173.781 353.55ZM217.388 364.54C218.396 369.903 227.74 368.923 226.489 362.266C226.096 360.177 224.388 358.001 220.423 359.232C218.143 359.932 216.743 361.112 217.393 364.532L217.388 364.54ZM426.288 364.54C427.247 369.457 435.844 368.483 434.629 362.266C434.25 360.328 432.706 358.32 428.941 359.611C426.811 360.341 425.661 361.301 426.291 364.531L426.288 364.54ZM200.698 363.02C199.728 370.33 210.982 360.285 201.837 361.503C200.802 362.213 200.83 362.043 200.698 363.023V363.02ZM450.938 361.89C448.749 360.585 446.599 362.734 447.904 364.922C450.084 366.222 452.234 364.082 450.934 361.892L450.938 361.89ZM183.258 363.02V363.779C183.489 363.8 183.706 363.836 183.637 364.158H184.396C184.417 363.927 184.453 363.709 184.775 363.779V363.02C184.544 362.998 184.326 362.964 184.396 362.641H183.637C183.616 362.881 183.581 363.091 183.258 363.021V363.02ZM249.605 378.57C254.648 379.039 258.741 371.937 254.155 368.333C246.055 361.963 240.205 377.693 249.605 378.573V378.57ZM396.335 372.5C395.809 382.146 412.919 378.095 406.571 369.466C405.829 368.457 403.66 367.371 401.643 367.57C398.063 367.93 396.483 369.82 396.333 372.5H396.335ZM233.305 376.67C236.946 375.024 235.399 368.49 231.03 369.087C224.17 370.027 228.22 378.967 233.31 376.667L233.305 376.67ZM417.185 372.88C417.185 377.72 425.221 378.028 424.768 372.501C424.544 369.778 422.504 368.939 420.219 369.467C417.529 370.087 417.189 371.677 417.189 372.877L417.185 372.88ZM211.315 374.78C213.735 375.177 214.745 374.167 214.348 371.746C212.352 369.226 208.801 372.776 211.315 374.776V374.78ZM438.045 373.26C438.805 375.026 441.078 375.026 441.837 373.26C441.837 370.48 438.047 370.48 438.047 373.26H438.045ZM192.735 372.5V373.258C192.965 373.279 193.183 373.314 193.114 373.637H193.872C193.894 373.405 193.93 373.189 194.251 373.258V372.5C194.02 372.478 193.804 372.442 193.872 372.121H193.114C193.093 372.361 193.058 372.571 192.735 372.501V372.5ZM379.275 384.26C380.881 377.732 371.759 373.842 368.659 378.953C363.649 387.213 377.389 391.943 379.279 384.263L379.275 384.26ZM254.915 382.36C254.915 389.028 265.149 388.549 264.772 381.98C264.624 379.371 262.684 377.159 259.085 377.809C256.435 378.289 254.915 379.81 254.915 382.36ZM387.995 381.6C386.817 391.357 402.872 385.859 395.958 378.947C395.181 378.17 393.37 377.471 391.029 378.187C387.969 379.127 388.109 380.747 387.999 381.597L387.995 381.6ZM244.295 381.98C244.107 379.682 242.193 378.777 240.126 379.327C231.836 381.527 245.026 390.857 244.296 381.977L244.295 381.98ZM408.465 382.74C408.678 384.852 411.395 386.23 413.774 384.635C417.074 378.915 407.954 377.665 408.464 382.735L408.465 382.74ZM220.795 383.88C221.801 383.876 222.96 384.024 223.448 383.501V381.227C221.568 379.647 219.218 381.997 220.798 383.877L220.795 383.88ZM428.945 382.74C433.125 386.69 431.235 377.25 428.945 382.74ZM301.925 391.84C301.925 399.376 312.909 398.509 312.542 391.461C312.378 388.324 310.395 385.981 306.097 386.911C303.157 387.551 301.917 388.951 301.917 391.841L301.925 391.84ZM322.405 396.01C330.687 403.274 336.386 383.919 324.681 386.911C320.541 387.971 319.181 393.191 322.401 396.011L322.405 396.01ZM339.845 391.84C339.845 399.008 350.818 398.541 350.461 391.461C350.318 388.635 348.285 386.291 344.395 386.911C341.445 387.381 339.845 388.921 339.845 391.841V391.84ZM283.735 391.08C282.555 400.836 298.61 395.339 291.696 388.425C290.919 387.649 289.109 386.951 286.767 387.667C283.707 388.617 283.837 390.227 283.737 391.087L283.735 391.08ZM364.485 396.39C369.79 396.079 370.028 385.878 362.967 387.67C357.387 389.09 359.607 396.68 364.487 396.39H364.485ZM265.535 391.84C265.535 396.68 273.57 396.988 273.117 391.461C272.894 388.738 270.854 387.9 268.567 388.427C265.867 389.047 265.537 390.637 265.537 391.837L265.535 391.84ZM386.475 390.32C386.097 389.256 384.302 387.662 381.546 388.804C373.526 394.104 389.466 398.734 386.476 390.324L386.475 390.32ZM248.095 391.46C247.123 398.77 258.379 388.723 249.233 389.942C248.193 390.642 248.223 390.472 248.093 391.462L248.095 391.46ZM404.295 391.84C404.295 389.776 402.846 389.278 401.261 389.944C396.501 391.944 404.291 397.064 404.291 391.844L404.295 391.84ZM232.545 391.08C232.315 390.861 230.746 390.191 230.649 391.08C228.709 392.93 233.559 394.13 232.549 391.08H232.545ZM419.845 392.22C420.271 392.3 420.437 392.642 420.605 392.978C421.64 393.255 421.368 392.225 422.122 392.22C422.182 390.36 419.772 390.36 419.842 392.22H419.845ZM320.125 400.94C319.954 398.876 318.794 397.13 315.575 398.286C307.755 401.086 320.845 409.626 320.125 400.936V400.94ZM339.085 400.94C338.914 398.876 337.754 397.13 334.535 398.286C326.715 401.086 339.805 409.626 339.085 400.936V400.94ZM294.725 402.46C296.268 407.435 304.425 402.104 299.274 398.29C295.524 397.53 294.024 400.19 294.724 402.46H294.725ZM351.595 402.46C353.566 408.784 361.268 399.757 355.764 398.29C355.22 398.144 354.439 398.271 353.491 398.669C351.891 399.329 350.731 399.679 351.591 402.459L351.595 402.46ZM276.525 400.94C275.554 408.251 286.808 398.204 277.663 399.423C276.623 400.123 276.653 399.953 276.523 400.943L276.525 400.94ZM375.865 401.32C375.865 399.257 374.416 398.758 372.833 399.424C368.073 401.424 375.863 406.544 375.863 401.324L375.865 401.32ZM258.325 402.08C258.751 402.16 258.916 402.501 259.084 402.838C260.63 402.994 261.476 402.45 261.358 400.943C260.958 399.103 257.618 399.593 258.328 402.083L258.325 402.08ZM391.025 401.7C395.205 405.64 393.325 396.21 391.025 401.7ZM241.645 402.08V400.563H240.129C239.839 401.863 240.349 402.373 241.649 402.083L241.645 402.08ZM410.745 400.94V401.698C410.976 401.719 411.194 401.755 411.124 402.077H411.883C411.904 401.846 411.94 401.628 412.262 401.698V400.94C412.032 400.919 411.813 400.883 411.883 400.56H411.124C411.104 400.79 411.064 401.01 410.744 400.94H410.745ZM324.295 411.18C325.055 412.947 327.329 412.947 328.087 411.18C328.097 408.39 324.297 408.39 324.297 411.18H324.295ZM306.105 412.31C307.111 412.306 308.269 412.454 308.758 411.931V409.657C306.878 408.077 304.528 410.427 306.108 412.307L306.105 412.31ZM344.015 412.31C345.021 412.306 346.18 412.454 346.668 411.931V409.657C344.788 408.077 342.438 410.427 344.018 412.307L344.015 412.31ZM289.415 410.04C289.186 409.821 287.616 409.151 287.52 410.04C285.57 411.89 290.42 413.09 289.41 410.04H289.415ZM365.245 410.04C365.016 409.821 363.446 409.151 363.349 410.04C361.409 411.89 366.259 413.09 365.249 410.04H365.245ZM270.085 411.56V410.044H268.567C268.277 411.344 268.777 411.854 270.087 411.564L270.085 411.56ZM383.825 411.56V410.044H382.307C382.017 411.344 382.527 411.854 383.827 411.564L383.825 411.56ZM315.955 419.9V420.658C316.186 420.68 316.404 420.715 316.335 421.037H317.093C317.114 420.806 317.15 420.59 317.472 420.658V419.9C317.241 419.879 317.023 419.843 317.093 419.521H316.335C316.315 419.751 316.285 419.971 315.955 419.901V419.9ZM334.915 419.9V420.658C335.145 420.68 335.363 420.715 335.294 421.037H336.052C336.074 420.806 336.109 420.59 336.431 420.658V419.9C336.2 419.879 335.984 419.843 336.052 419.521H335.294C335.274 419.751 335.234 419.971 334.914 419.901L334.915 419.9ZM339.085 48.71C338.652 50.673 339.69 53.141 339.465 53.638C337.735 51.732 333.105 52.931 331.882 53.259C336.488 41.442 315.836 42.468 320.128 53.259C318.019 52.144 315.142 52.528 312.925 53.259C317.243 41.073 296.008 42.801 301.929 54.017C296.031 50.7 289.845 55.099 290.176 61.601C288.59 60.746 287.124 61.669 285.246 61.601C287.57 49.828 268.382 52.481 272.355 62.739C270.147 60.82 265.964 63.048 264.772 63.118C269.699 55.13 256.002 50.685 254.156 58.188C252.954 63.076 258.043 67.873 263.257 65.013C262.047 66.457 261.93 68.995 261.361 71.079C260.036 70.056 257.566 71.69 256.812 71.079C258.73 58.315 238.279 63.122 245.058 73.354C238.962 69.491 232.283 75.3 234.062 81.695C227.664 80.121 223.305 83.812 224.205 90.794C221.923 89.379 218.162 91.492 217.38 91.554C222.313 81.262 204.825 79.706 206.764 90.036C207.185 92.272 211.966 96.004 215.865 93.448C214.592 94.829 214.126 97.016 214.348 99.894C211.501 99.575 209.724 100.325 207.903 101.031C213.045 90.465 194.674 89.281 197.287 99.894C198.011 102.838 203.037 104.717 206.007 103.305C204.948 104.776 204.705 107.058 204.869 109.75C202.447 108.577 199.827 110.189 198.045 110.889C201.447 107.09 196.858 102.148 195.013 101.789C187.689 100.367 184.498 112.318 192.738 113.163C194.842 113.379 195.428 112.623 196.908 112.405C195.379 113.742 195.435 117.526 195.392 119.229C188.442 118.392 185.116 123.044 186.672 129.466C179.345 126.716 174.582 135.244 178.709 140.46C170.977 134.045 163.617 148.06 171.884 151.455C173.118 152.029 175.91 151.63 176.435 151.835C175.576 152.998 176.615 156.06 175.676 157.143C168.97 156.468 166.219 161.463 167.713 167.76C156.738 163.515 155.176 182.841 166.955 180.271C166.342 181.679 166.641 184 166.576 185.959C155.677 183.463 155.481 201.244 166.197 200.366C165.957 201.642 166.685 203.888 165.818 204.537C163.259 204.128 162.188 205.205 160.509 205.675C163.351 201.12 160.013 196.196 155.581 196.196C145.825 196.196 149.733 212.442 158.992 207.571C156.981 209.231 158.172 214.776 158.613 215.913C146.217 210.383 147.946 233.225 159.371 226.149C157.142 228.148 157.626 233.501 159.371 235.628C154.956 231.962 149.515 236.152 149.515 240.179C149.515 247.578 161.578 248.634 161.646 240.179C161.66 238.704 160.454 237.29 160.509 236.387C161.86 237.564 163.812 238.14 166.575 237.903C165.496 238.962 166.825 242.279 166.196 242.833C155.028 241.419 156.445 258.727 166.954 256.861C165.745 258.611 167.505 261.572 166.954 262.548C154.69 259.561 158.052 280.385 168.85 273.923C164.909 279.088 169.932 287.113 176.812 284.918C175.536 287.006 176.964 289.941 176.812 291.363C175.815 290.97 174.485 290.91 173.02 290.984C161.088 295.536 176.088 310.583 180.604 298.567C180.79 296.864 180.411 295.725 180.223 294.396C181.434 295.208 183.433 295.232 185.532 295.154C184.285 296.483 186.136 299.45 185.532 300.083C172.328 298.567 178.242 318.253 187.807 312.216C184.037 318.116 190.344 325.327 196.906 322.073C193.705 328.69 199.861 333.799 206.006 332.31C203.169 338.666 210.176 343.498 215.485 341.789C213.276 348.622 219.565 353.212 225.721 350.509C219.826 361.759 240.311 363.985 238.235 352.405C239.131 353.151 241.626 352.3 242.405 353.163C242.219 354.866 242.596 356.005 242.784 357.334C237.8 356.169 234.264 359.771 234.443 363.78C234.823 372.338 249.243 370.981 247.334 361.505C248.646 362.088 250.79 361.841 252.642 361.885C251.031 368.249 257.732 372.105 262.878 370.605C259.498 382.283 278.557 381.757 276.149 371.363C277.634 372.015 280.193 371.444 281.077 371.742C280.073 373.65 281.525 375.992 282.216 377.43C272.724 371.67 268.877 388.878 279.182 388.425C283.346 388.242 286.111 382.533 284.112 378.947C285.718 380.646 289.32 380.726 291.694 379.705C287.773 391.69 307.496 390.933 304.207 380.084C305.59 381.511 309.416 380.365 310.272 380.464C307.427 391.921 326.097 390.936 323.543 380.464C325.085 381.136 327.624 380.843 329.231 380.464C326.364 391.581 345.325 391.365 342.122 380.084C343.956 381.168 346.624 380.805 348.567 380.084C345.235 392.472 365.33 389.834 360.7 379.326C366.865 382.023 372.008 377.62 371.695 371.363C373.172 372.464 375.89 370.862 376.625 371.363C374.41 383.043 393.727 380.922 389.137 369.846C395.475 372.502 400.376 367.885 400.131 361.505C401.982 362.724 404.949 360.783 405.819 361.126C405.426 362.123 405.365 363.452 405.44 364.917C409.827 376.974 425.173 361.812 413.022 357.334C411.321 357.147 410.181 357.526 408.852 357.713C409.616 356.329 410.133 354.697 409.99 352.405C411.213 353.649 413.954 351.744 414.54 352.405C414.511 355.669 414.807 357.083 416.057 358.471C424.576 367.94 434.771 345.724 419.089 347.475C419.858 346.475 419.49 344.337 420.228 343.306C421.693 343.38 423.022 343.319 424.019 342.926C421.564 355.772 443.246 351.012 435.772 340.272C441.986 345.291 449.35 336.905 446.009 331.173C452.971 335.806 458.97 325.426 454.73 320.936C464.72 328.896 470.772 307.299 457.003 309.561C457.845 308.508 457.62 305.665 457.763 305.012C460.007 305.361 460.905 304.364 462.691 304.254C461.99 305.067 462.436 307.029 462.312 308.424C463.687 313.81 473.128 314.123 474.445 308.424C475.264 304.877 473.335 301.975 470.275 300.462C468.867 300.213 466.373 300.826 466.104 300.462C467.065 299.04 466.654 295.908 466.862 294.774C473.819 295.576 476.737 290.614 475.203 284.159C486.537 288.759 487.257 268.93 476.342 271.268C476.914 270.034 476.515 267.242 476.721 266.717C479.399 266.994 480.793 265.988 482.409 265.201C479.351 270.226 483.961 274.844 487.716 274.679C494.97 274.36 495.261 262.674 487.337 262.546C486.077 262.526 485.337 263.463 483.926 263.305C485.634 261.836 485.824 257.972 484.684 255.722C496.102 259.686 496.654 240.82 485.442 242.831C486.363 241.535 485.325 238.253 485.821 237.522C497.129 239.232 496.153 222.056 485.821 223.495C486.392 221.773 486.068 220.385 485.821 218.565C496.914 220.634 496.693 202.486 485.442 204.917C486.497 203.675 485.254 199.94 485.821 199.229C496.598 201.78 496.181 183.107 485.063 186.338C486.089 184.485 484.947 180.366 485.063 179.513C497.765 183.333 494.013 161.596 483.167 168.897C486.957 163.842 483.379 155.748 475.583 157.523C476.729 155.858 475.349 151.798 475.583 151.077C476.582 151.471 477.911 151.531 479.375 151.456C491.492 146.467 475.941 132.084 471.793 143.874C471.606 145.577 471.984 146.715 472.172 148.045C471.013 147.308 469.246 147.179 467.242 147.287C467.469 145.289 466.961 144.029 466.863 142.357C479.557 144.109 474.993 124.777 464.968 129.845C468.03 123.409 462.21 118.234 456.246 119.608C458.015 113.189 453.187 108.362 446.768 110.13C448.681 103.628 443.79 98.736 437.289 100.651C439.468 93.733 433.597 89.755 427.811 90.793C429.578 84.289 423.616 79.613 417.574 82.073C422.697 71.252 402.862 68.263 404.682 80.556C403.869 79.854 401.905 80.3 400.511 80.177C401.009 78.273 399.671 76.237 400.132 75.627C410.392 77.951 410.611 63.115 402.028 63.115C398.057 63.115 394.696 66.755 395.962 71.835C394.919 70.697 391.101 71.286 390.274 71.077C391.557 63.752 384.71 61.287 379.658 62.736C383.995 51.737 364.49 50.153 367.146 61.977C365.458 61.232 363.827 61.212 361.838 61.598C362.834 54.345 355.262 50.838 350.085 54.395C355.835 46.119 341.475 40.462 339.075 48.672L339.085 48.71ZM348.565 55.534C348.936 56.676 346.802 58.563 347.427 61.222C345.662 61.043 344.899 60.708 343.258 61.222C343.588 58.742 342.557 57.624 342.119 55.913C343.499 57.085 347.629 57.016 348.569 55.534H348.565ZM303.825 56.292C304.564 56.081 308.204 57.349 309.891 56.292C309.782 58.078 308.785 58.977 309.133 61.222C308.21 60.489 305.961 60.857 304.962 61.222C305.062 59.1 304.892 57.246 303.822 56.292H303.825ZM323.545 56.292C325.086 57.431 327.568 57.001 329.233 56.292C328.606 57.56 327.892 58.742 328.095 60.843H324.303C324.633 58.735 323.573 58.031 323.543 56.292H323.545ZM276.145 66.149C277.534 66.827 279.04 67.034 280.694 66.528C280.284 67.635 279.845 68.714 279.936 70.32H276.903C277.173 68.407 276.383 67.552 276.143 66.149H276.145ZM375.865 66.149C377.301 66.207 375.074 68.452 375.865 70.32H372.454C372.342 69.043 372.263 67.73 371.695 66.907C372.225 65.797 375.335 67.262 375.865 66.149ZM296.245 67.288H298.898C298.908 68.181 298.245 68.403 298.519 69.562H296.623C296.903 68.402 295.973 68.446 296.253 67.288H296.245ZM353.495 67.288H356.148C356.336 68.992 355.756 69.93 353.874 69.562C353.884 68.669 353.225 68.446 353.495 67.288ZM315.575 68.046C315.512 67.223 316.92 67.874 317.471 67.667V69.563H315.954C315.924 68.962 316.145 68.116 315.575 68.046ZM334.915 67.667H336.81C336.861 68.98 336.484 69.868 334.915 69.563C334.925 68.931 334.925 68.298 334.925 67.667H334.915ZM246.575 75.25C247.415 75.055 249.743 76.62 252.262 76.008C251.84 77.102 251.579 78.359 251.504 79.8C249.889 79.575 248.996 80.071 247.712 80.179C247.812 78.051 247.752 76.094 246.572 75.25H246.575ZM382.305 76.766H384.96C384.522 77.214 384.53 78.106 384.58 79.04H382.305V76.766ZM267.805 77.144H270.08V79.04H268.184C268.344 78.128 267.495 78.218 267.805 77.144ZM414.155 85.106C414.952 86.053 413.274 87.749 413.776 89.657C413.145 89.022 411.549 89.355 410.363 89.277C410.133 88.371 410.84 86.527 409.984 86.245C410.864 85.355 413.604 86.32 414.154 85.106H414.155ZM238.235 85.485C238.952 86.159 240.739 85.762 242.025 85.866C242.009 87.113 241.385 87.753 241.646 89.277H238.614C238.684 87.813 238.625 86.484 238.235 85.485ZM392.545 87.003H393.683V88.52C392.413 88.901 392.443 87.993 392.543 87.003H392.545ZM423.635 95.344C423.001 95.973 423.334 97.571 423.256 98.757H420.224C419.997 97.972 420.693 96.266 419.843 96.103C420.773 95.515 422.313 95.538 423.633 95.344H423.635ZM229.135 96.102C229.417 95.247 231.261 95.954 232.169 95.722V98.377C231.502 98.594 229.94 97.918 229.894 98.756C228.814 98.704 230.234 96.153 229.144 96.102H229.135ZM432.735 104.823C433.206 104.956 432.423 107.008 432.735 108.235C431.642 108.19 430.252 108.441 429.701 107.855V105.202C430.601 104.972 432.451 105.679 432.731 104.823H432.735ZM220.035 105.581H222.688C222.251 106.028 222.259 106.922 222.309 107.855H220.035V105.581ZM442.215 114.296C442.974 114.715 441.754 116.332 442.215 117.709H439.562C438.976 117.158 439.228 115.768 439.183 114.676C440.083 114.446 441.933 115.156 442.213 114.296H442.215ZM210.175 115.436C210.338 114.588 212.043 115.283 212.828 115.057V117.332C212.277 117.539 210.87 116.889 210.932 117.711C209.859 117.771 211.248 115.371 210.175 115.431V115.436ZM452.445 123.776C452.052 124.773 451.992 126.102 452.066 127.567C450.818 127.551 450.179 126.926 448.653 127.188V124.155C450.273 124.385 451.163 123.885 452.443 123.775L452.445 123.776ZM200.695 124.156C201.604 124.385 202.425 124.701 203.729 124.535C203.207 125.024 203.354 126.181 203.35 127.189H200.695V124.159V124.156ZM461.925 132.496C463.312 132.704 461.169 135.378 461.925 137.426C460.409 137.551 459.821 136.75 458.134 137.047C458.358 135.433 457.862 134.539 457.755 133.255C459.415 133.275 461.185 133.396 461.925 132.496ZM190.465 133.256C191.462 133.649 192.791 133.709 194.256 133.635V136.668C192.79 136.465 192.406 137.345 190.845 137.048C190.919 135.588 190.858 134.258 190.465 133.258V133.256ZM179.47 141.596C180.361 141.476 182.499 143.36 185.158 142.733C184.977 144.554 184.918 145.911 184.779 146.903C183.076 146.717 181.938 147.096 180.609 147.284C181.491 145.504 180.855 142.344 179.47 141.594V141.596ZM458.9 153.736H460.796V155.252H458.9V153.732V153.736ZM470.65 162.076C471.51 162.478 470.795 164.459 471.029 165.487C469.6 165.779 469.217 165.025 467.996 165.108V162.455C468.786 162.225 470.486 162.925 470.646 162.075L470.65 162.076ZM181.75 162.836H184.024V165.11H181.75V162.84V162.836ZM482.03 169.656C482.211 170.684 480.342 174.246 481.651 176.481C480.492 175.743 478.725 175.616 476.721 175.722C477.328 173.984 476.748 173.147 476.721 171.172C479.141 171.322 481.211 171.122 482.031 169.662L482.03 169.656ZM171.13 171.176C172.459 171.364 173.598 171.741 175.301 171.555V174.968C174.449 175.632 172.449 175.149 171.509 175.726C171.516 174.076 171.635 172.316 171.13 171.176ZM470.28 182.166V184.062H468.384C468.074 182.492 468.964 182.112 470.284 182.162L470.28 182.166ZM184.02 182.546V183.683C183.348 183.597 182.122 184.066 182.504 182.925C182.841 182.635 183.36 182.515 184.02 182.545V182.546ZM480.13 190.506C481.852 191.024 479.809 193.267 480.888 194.678C479.95 194.1 477.949 194.584 477.097 193.919V190.887C478.007 190.657 479.847 191.367 480.127 190.507L480.13 190.506ZM171.89 191.646C172.172 190.791 174.018 191.498 174.924 191.267V193.92H172.27C172.051 193.26 172.729 191.7 171.89 191.65V191.646ZM468.38 201.506C469.372 201.4 470.011 201.645 469.898 202.643C468.908 202.743 467.998 202.763 468.378 201.503L468.38 201.506ZM480.13 209.846C480.991 210.248 480.275 212.229 480.509 213.258C479.103 213.527 478.882 212.61 477.476 212.878V210.225C478.266 209.995 479.966 210.695 480.126 209.845L480.13 209.846ZM172.27 210.606H174.545C174.91 212.49 173.973 213.068 172.27 212.88V210.61V210.606ZM160.895 217.806C162.168 218.681 163.8 219.198 166.204 218.943C165.879 220.841 165.879 221.595 166.204 223.494C163.837 223.401 161.769 223.608 160.895 225.01C161.104 223.88 162.369 219.84 160.895 217.8V217.806ZM480.515 229.186V232.598C479.608 232.369 478.786 232.053 477.482 232.219V229.565C478.892 229.825 479.112 228.915 480.512 229.185L480.515 229.186ZM172.275 229.556C173.433 229.283 173.657 229.944 174.55 229.936V231.832C173.999 232.039 172.59 231.389 172.654 232.211C171.806 232.051 172.5 230.341 172.275 229.551V229.556ZM468.385 239.796C468.986 239.827 469.832 239.614 469.903 240.177C470.313 241.507 467.573 241.197 468.383 239.797L468.385 239.796ZM480.895 247.756C480.889 249.405 480.77 251.167 481.274 252.305C479.872 252.066 479.018 251.277 477.104 251.547V248.135C478.714 248.365 479.614 247.865 480.894 247.755L480.895 247.756ZM171.895 248.136C172.804 248.365 173.625 248.681 174.929 248.516V251.169C173.499 250.878 173.117 251.632 171.895 251.548V248.138V248.136ZM468.385 258.376H470.281V260.652C469.841 260.333 469.263 260.151 468.385 260.272V258.372V258.376ZM182.505 258.756C183.104 258.787 183.95 258.573 184.021 259.135C184.435 260.465 181.696 260.156 182.505 258.756ZM171.13 266.336C172.532 266.576 173.388 267.365 175.301 267.095C175.227 268.559 175.287 269.888 175.68 270.885C173.568 270.922 171.573 271.076 170.751 272.403C170.282 271.123 172.389 268.583 171.13 266.333V266.336ZM471.41 276.576C470.669 277.506 471.03 279.763 471.789 280.368C471.044 281.211 469.274 279.871 467.618 280.368V276.955C469.308 277.255 469.898 276.445 471.408 276.575L471.41 276.576ZM181.75 276.956C182.641 277.077 183.173 277.556 184.404 277.337V279.99C183.618 280.216 181.914 279.521 181.75 280.369C180.759 279.719 182.285 278.409 181.75 276.959V276.956ZM458.52 286.816H461.174V289.469C460.283 289.348 459.75 288.87 458.52 289.09V286.82V286.816ZM191.98 287.196H193.497C193.946 288.91 192.612 288.84 191.601 289.092C191.48 288.202 191.662 287.632 191.98 287.192V287.196ZM449.42 296.666H450.938V298.562C450.599 298.267 450.081 298.154 449.42 298.183V296.663V296.666ZM190.47 304.636C191.651 305.098 192.873 305.519 194.642 305.394C193.646 306.5 194.978 307.579 194.642 309.185C192.162 308.853 191.044 309.886 189.333 310.322C190.49 309.192 190.587 307.022 190.47 304.632V304.636ZM448.28 319.036C447.668 318.52 448.672 316.416 448.28 314.865C449.849 314.918 451.21 314.76 452.072 314.106C452.741 316.09 452.326 319.161 453.968 320.172C453.208 320.412 450.248 317.592 448.278 319.032L448.28 319.036ZM200.32 314.866C201.882 314.568 202.267 315.448 203.733 315.245C203.471 316.77 204.096 317.409 204.112 318.657C202.561 318.749 200.457 318.288 199.941 319.416C199.178 318.506 200.914 316.866 200.32 314.866ZM438.81 328.136C438.544 326.48 439.455 326.001 439.189 324.345C440.654 324.42 441.983 324.359 442.98 323.966C442.035 325.486 443.035 327.815 443.738 328.894C442.908 329.324 440.918 327.684 438.808 328.134L438.81 328.136ZM209.8 324.346C211.047 324.362 211.687 324.987 213.213 324.726C213.438 325.511 212.744 327.215 213.592 327.379C212.494 328.051 210.688 328.015 209.421 328.516C209.874 327.456 209.838 325.906 209.8 324.346ZM219.657 333.826C220.208 334.412 221.596 334.16 222.689 334.205C222.427 335.73 223.052 336.369 223.068 337.618C221.365 337.431 220.227 337.809 218.897 337.997C219.107 336.557 219.817 335.627 219.657 333.827V333.826ZM428.947 337.996C429.339 336.999 429.401 335.669 429.326 334.204C430.982 334.47 431.462 333.559 433.118 333.825C433.154 335.937 433.307 337.932 434.635 338.754C433.605 339.144 430.925 336.734 428.945 337.994L428.947 337.996ZM228.757 343.306C230.041 343.411 230.934 343.909 232.549 343.685C232.324 345.298 232.82 346.193 232.928 347.475C231.481 346.823 229.327 347.29 228.378 348.235C227.698 347.275 229.348 345.425 228.758 343.305L228.757 343.306ZM249.227 344.446H250.366V345.963C249.106 346.333 249.126 345.433 249.226 344.443L249.227 344.446ZM401.647 344.446H403.163C403.132 344.984 403.101 345.52 403.543 345.583C403.605 346.406 402.198 345.755 401.647 345.963V344.443V344.446ZM391.787 353.546H394.061C393.758 354.86 394.626 355.003 394.44 356.199H391.408C391.938 355.709 391.788 354.549 391.788 353.549L391.787 353.546ZM258.327 353.926H260.601V355.821C260.05 356.029 258.641 355.378 258.706 356.201C257.866 356.151 258.546 354.591 258.326 353.931L258.327 353.926ZM384.967 362.266C385.855 363.146 384.89 365.879 386.104 366.437C385.456 366.937 382.913 366.106 381.175 366.437C381.585 365.33 382.025 364.251 381.933 362.645C382.833 362.405 384.683 363.115 384.963 362.265L384.967 362.266ZM267.427 362.646H270.46C270.163 364.333 270.965 364.92 270.839 366.438C269.668 365.456 268.144 366.549 266.668 366.438C267.078 365.328 267.518 364.248 267.428 362.648L267.427 362.646ZM287.147 363.396H289.043V365.292H286.768C287.088 364.852 287.268 364.272 287.148 363.392L287.147 363.396ZM306.487 363.396H307.624V364.913C306.354 365.293 306.374 364.393 306.484 363.393L306.487 363.396ZM344.777 363.396H345.915V364.913C344.645 365.293 344.665 364.393 344.775 363.393L344.777 363.396ZM363.357 363.396H365.253C364.978 364.556 365.906 364.512 365.632 365.67H363.357C363.347 364.92 363.347 364.16 363.347 363.4L363.357 363.396ZM295.867 372.116H299.278C299.007 374.028 299.797 374.883 300.036 376.285C298.948 375.567 296.257 375.867 295.108 376.285C295.318 374.855 296.028 373.925 295.868 372.115L295.867 372.116ZM352.357 376.286C352.564 374.851 353.273 373.919 353.115 372.117H356.906C356.893 373.771 356.765 375.541 357.664 376.286C357.014 376.616 353.894 375.206 352.354 376.286H352.357ZM315.207 372.496H318.239C317.979 374.02 318.602 374.66 318.618 375.907C317.331 375.254 315.84 375.644 314.449 375.907C314.849 374.927 315.369 374.057 315.209 372.497L315.207 372.496ZM334.157 372.496H337.189C337.222 373.727 337.386 374.828 337.949 375.528C336.847 376.373 335.274 375.055 333.778 375.907C333.798 374.667 334.418 374.027 334.158 372.497L334.157 372.496Z" fill="#FF0000"/>
<path d="M109.198 421.677C108.808 422.068 108.175 422.068 107.784 421.677L101.42 415.314C101.029 414.923 101.029 414.29 101.42 413.9C101.811 413.509 102.444 413.509 102.834 413.9L108.491 419.556L114.148 413.899C114.538 413.508 115.172 413.508 115.562 413.899C115.953 414.289 115.953 414.922 115.562 415.313L109.198 421.677ZM109.491 0.999936V420.97L107.491 420.97V1.00006L109.491 0.999936Z" fill="black"/>
<path d="M107.293 0.329597C107.684 -0.0655571 108.317 -0.0730644 108.707 0.31283L115.071 6.60134C115.461 6.98723 115.461 7.62039 115.071 8.01555C114.68 8.4107 114.047 8.41821 113.657 8.03232L108 2.44253L102.344 8.16646C101.953 8.56161 101.32 8.56912 100.93 8.18323C100.539 7.79733 100.539 7.16417 100.93 6.76901L107.293 0.329597ZM107 421.013L107 1.04018L109 1.01646L109 420.99L107 421.013Z" fill="black"/>
<path d="M10.7428 176.196H12.4161V185.346C12.4161 186.29 12.1935 187.134 11.7481 187.876C11.3073 188.613 10.6843 189.196 9.87918 189.623C9.07402 190.046 8.12942 190.258 7.04538 190.258C5.96133 190.258 5.01673 190.046 4.21157 189.623C3.40641 189.196 2.78117 188.613 2.33586 187.876C1.89505 187.134 1.67464 186.29 1.67464 185.346V176.196H3.34793V185.211C3.34793 185.885 3.49637 186.486 3.79325 187.012C4.09012 187.534 4.51294 187.946 5.06171 188.247C5.61498 188.544 6.2762 188.692 7.04538 188.692C7.81455 188.692 8.47578 188.544 9.02904 188.247C9.58231 187.946 10.0051 187.534 10.2975 187.012C10.5944 186.486 10.7428 185.885 10.7428 185.211V176.196ZM17.1341 176.196V190.015H15.5417V176.196H17.1341ZM24.5576 179.651V181H19.1869V179.651H24.5576ZM20.7522 177.168H22.3446V187.046C22.3446 187.496 22.4098 187.833 22.5402 188.058C22.6752 188.278 22.8461 188.427 23.053 188.503C23.2644 188.575 23.4871 188.611 23.721 188.611C23.8964 188.611 24.0403 188.602 24.1528 188.584C24.2653 188.562 24.3552 188.544 24.4227 188.53L24.7465 189.961C24.6386 190.001 24.4879 190.042 24.2945 190.082C24.1011 190.127 23.8559 190.15 23.559 190.15C23.1092 190.15 22.6684 190.053 22.2366 189.859C21.8093 189.666 21.4539 189.371 21.1706 188.976C20.8917 188.58 20.7522 188.08 20.7522 187.478V177.168ZM26.9529 190.015V179.651H28.4912V181.216H28.5992C28.7881 180.704 29.13 180.287 29.6247 179.968C30.1195 179.649 30.6773 179.489 31.298 179.489C31.415 179.489 31.5612 179.491 31.7366 179.496C31.912 179.5 32.0447 179.507 32.1347 179.516V181.135C32.0807 181.122 31.957 181.102 31.7636 181.075C31.5747 181.043 31.3745 181.027 31.1631 181.027C30.6593 181.027 30.2095 181.133 29.8137 181.345C29.4223 181.551 29.112 181.839 28.8826 182.208C28.6577 182.573 28.5452 182.989 28.5452 183.456V190.015H26.9529ZM37.0719 190.258C36.4152 190.258 35.8192 190.134 35.2839 189.886C34.7486 189.635 34.3236 189.272 34.0087 188.8C33.6938 188.323 33.5364 187.748 33.5364 187.073C33.5364 186.479 33.6534 185.998 33.8873 185.629C34.1212 185.256 34.4338 184.963 34.8251 184.752C35.2165 184.54 35.6483 184.383 36.1206 184.28C36.5974 184.172 37.0764 184.086 37.5577 184.023C38.1875 183.942 38.698 183.881 39.0893 183.841C39.4852 183.796 39.773 183.722 39.953 183.618C40.1374 183.515 40.2296 183.335 40.2296 183.079V183.025C40.2296 182.359 40.0474 181.842 39.6831 181.473C39.3232 181.104 38.7767 180.919 38.0435 180.919C37.2833 180.919 36.6873 181.086 36.2555 181.419C35.8237 181.752 35.5201 182.107 35.3446 182.485L33.8333 181.945C34.1032 181.315 34.463 180.825 34.9128 180.474C35.3671 180.119 35.8619 179.871 36.3972 179.732C36.937 179.588 37.4678 179.516 37.9895 179.516C38.3224 179.516 38.7047 179.557 39.1366 179.638C39.5729 179.714 39.9934 179.874 40.3983 180.117C40.8076 180.359 41.1472 180.726 41.4171 181.216C41.687 181.707 41.8219 182.363 41.8219 183.187V190.015H40.2296V188.611H40.1486C40.0407 188.836 39.8607 189.077 39.6089 189.333C39.357 189.59 39.0219 189.808 38.6035 189.988C38.1852 190.168 37.6747 190.258 37.0719 190.258ZM37.3148 188.827C37.9446 188.827 38.4753 188.703 38.9071 188.456C39.3435 188.209 39.6718 187.889 39.8922 187.498C40.1171 187.107 40.2296 186.695 40.2296 186.263V184.806C40.1621 184.887 40.0137 184.961 39.7843 185.028C39.5594 185.091 39.2985 185.148 39.0016 185.197C38.7092 185.242 38.4236 185.283 38.1447 185.319C37.8703 185.35 37.6477 185.377 37.4768 185.4C37.0629 185.454 36.6761 185.541 36.3162 185.663C35.9609 185.78 35.673 185.957 35.4526 186.196C35.2367 186.43 35.1287 186.749 35.1287 187.154C35.1287 187.707 35.3334 188.125 35.7427 188.409C36.1566 188.688 36.6806 188.827 37.3148 188.827ZM49.3433 179.651V181H43.7567V179.651H49.3433ZM45.43 190.015V178.221C45.43 177.627 45.5694 177.132 45.8483 176.736C46.1272 176.34 46.4893 176.044 46.9346 175.846C47.3799 175.648 47.8499 175.549 48.3447 175.549C48.7361 175.549 49.0554 175.58 49.3028 175.643C49.5502 175.706 49.7347 175.765 49.8561 175.819L49.3973 177.195C49.3163 177.168 49.2039 177.134 49.0599 177.094C48.9205 177.053 48.7361 177.033 48.5067 177.033C47.9804 177.033 47.6003 177.166 47.3664 177.431C47.137 177.697 47.0223 178.086 47.0223 178.598V190.015H45.43ZM51.5749 190.015V179.651H53.1673V190.015H51.5749ZM52.3846 177.924C52.0742 177.924 51.8066 177.818 51.5817 177.607C51.3613 177.395 51.2511 177.141 51.2511 176.844C51.2511 176.547 51.3613 176.293 51.5817 176.082C51.8066 175.87 52.0742 175.765 52.3846 175.765C52.695 175.765 52.9604 175.87 53.1808 176.082C53.4057 176.293 53.5181 176.547 53.5181 176.844C53.5181 177.141 53.4057 177.395 53.1808 177.607C52.9604 177.818 52.695 177.924 52.3846 177.924ZM57.6761 183.78V190.015H56.0837V179.651H57.6221V181.27H57.757C57.9999 180.744 58.3688 180.321 58.8636 180.002C59.3584 179.678 59.9971 179.516 60.7798 179.516C61.4815 179.516 62.0954 179.66 62.6217 179.948C63.148 180.231 63.5573 180.663 63.8497 181.243C64.1421 181.819 64.2883 182.548 64.2883 183.429V190.015H62.6959V183.537C62.6959 182.723 62.4845 182.089 62.0617 181.635C61.6389 181.176 61.0586 180.946 60.3209 180.946C59.8127 180.946 59.3584 181.057 58.958 181.277C58.5622 181.497 58.2496 181.819 58.0202 182.242C57.7908 182.665 57.6761 183.178 57.6761 183.78ZM71.5432 190.231C70.5446 190.231 69.6832 190.01 68.959 189.569C68.2393 189.124 67.6838 188.503 67.2924 187.707C66.9056 186.906 66.7122 185.975 66.7122 184.914C66.7122 183.852 66.9056 182.917 67.2924 182.107C67.6838 181.293 68.2281 180.659 68.9253 180.204C69.627 179.745 70.4456 179.516 71.3812 179.516C71.921 179.516 72.454 179.606 72.9803 179.786C73.5066 179.966 73.9856 180.258 74.4174 180.663C74.8493 181.063 75.1934 181.594 75.4498 182.255C75.7062 182.917 75.8344 183.731 75.8344 184.698V185.373H67.8457V183.996H74.215C74.215 183.411 74.0981 182.89 73.8642 182.431C73.6348 181.972 73.3064 181.61 72.8791 181.345C72.4563 181.079 71.957 180.946 71.3812 180.946C70.747 180.946 70.1982 181.104 69.7349 181.419C69.2761 181.729 68.923 182.134 68.6756 182.633C68.4282 183.133 68.3045 183.668 68.3045 184.239V185.157C68.3045 185.939 68.4395 186.603 68.7094 187.147C68.9837 187.687 69.3638 188.098 69.8496 188.382C70.3354 188.661 70.8999 188.8 71.5432 188.8C71.9615 188.8 72.3393 188.742 72.6767 188.625C73.0185 188.503 73.3132 188.323 73.5606 188.085C73.808 187.842 73.9991 187.541 74.1341 187.181L75.6724 187.613C75.5105 188.134 75.2384 188.593 74.856 188.989C74.4737 189.38 74.0014 189.686 73.4391 189.907C72.8768 190.123 72.2449 190.231 71.5432 190.231ZM1.67464 199.196H3.6718L8.36782 210.667H8.52975L13.2258 199.196H15.2229V213.015H13.6576V202.516H13.5227L9.20447 213.015H7.6931L3.37492 202.516H3.23998V213.015H1.67464V199.196ZM18.362 213.015V202.651H19.9544V213.015H18.362ZM19.1717 200.924C18.8613 200.924 18.5937 200.818 18.3688 200.607C18.1484 200.395 18.0382 200.141 18.0382 199.844C18.0382 199.547 18.1484 199.293 18.3688 199.082C18.5937 198.87 18.8613 198.765 19.1717 198.765C19.4821 198.765 19.7475 198.87 19.9679 199.082C20.1928 199.293 20.3052 199.547 20.3052 199.844C20.3052 200.141 20.1928 200.395 19.9679 200.607C19.7475 200.818 19.4821 200.924 19.1717 200.924ZM27.0811 213.231C26.1095 213.231 25.2728 213.001 24.5711 212.542C23.8694 212.084 23.3296 211.452 22.9518 210.646C22.574 209.841 22.385 208.921 22.385 207.887C22.385 206.834 22.5785 205.905 22.9653 205.1C23.3566 204.291 23.9009 203.659 24.5981 203.204C25.2998 202.745 26.1185 202.516 27.0541 202.516C27.7828 202.516 28.4395 202.651 29.0242 202.921C29.609 203.191 30.088 203.569 30.4614 204.054C30.8347 204.54 31.0664 205.107 31.1564 205.755H29.564C29.4426 205.282 29.1727 204.864 28.7544 204.5C28.3405 204.131 27.7828 203.946 27.0811 203.946C26.4603 203.946 25.9161 204.108 25.4483 204.432C24.9849 204.752 24.6229 205.204 24.362 205.788C24.1056 206.369 23.9774 207.05 23.9774 207.833C23.9774 208.633 24.1033 209.331 24.3552 209.924C24.6116 210.518 24.9715 210.979 25.4348 211.308C25.9026 211.636 26.4513 211.8 27.0811 211.8C27.4949 211.8 27.8705 211.728 28.2078 211.584C28.5452 211.44 28.8308 211.233 29.0647 210.964C29.2986 210.694 29.4651 210.37 29.564 209.992H31.1564C31.0664 210.604 30.8437 211.155 30.4884 211.645C30.1375 212.131 29.672 212.518 29.0917 212.805C28.516 213.089 27.8457 213.231 27.0811 213.231ZM33.4841 213.015V202.651H35.0225V204.216H35.1304C35.3193 203.704 35.6612 203.287 36.156 202.968C36.6508 202.649 37.2086 202.489 37.8293 202.489C37.9462 202.489 38.0924 202.491 38.2679 202.496C38.4433 202.5 38.576 202.507 38.6659 202.516V204.135C38.612 204.122 38.4883 204.102 38.2948 204.075C38.1059 204.043 37.9058 204.027 37.6943 204.027C37.1906 204.027 36.7407 204.133 36.3449 204.345C35.9536 204.551 35.6432 204.839 35.4138 205.208C35.1889 205.573 35.0764 205.989 35.0764 206.456V213.015H33.4841ZM44.4483 213.231C43.5126 213.231 42.6917 213.008 41.9855 212.563C41.2838 212.117 40.7351 211.494 40.3392 210.694C39.9479 209.893 39.7522 208.957 39.7522 207.887C39.7522 206.807 39.9479 205.865 40.3392 205.06C40.7351 204.255 41.2838 203.629 41.9855 203.184C42.6917 202.739 43.5126 202.516 44.4483 202.516C45.3839 202.516 46.2025 202.739 46.9042 203.184C47.6104 203.629 48.1592 204.255 48.5505 205.06C48.9464 205.865 49.1443 206.807 49.1443 207.887C49.1443 208.957 48.9464 209.893 48.5505 210.694C48.1592 211.494 47.6104 212.117 46.9042 212.563C46.2025 213.008 45.3839 213.231 44.4483 213.231ZM44.4483 211.8C45.159 211.8 45.7437 211.618 46.2025 211.254C46.6613 210.889 47.0009 210.41 47.2213 209.816C47.4417 209.223 47.5519 208.58 47.5519 207.887C47.5519 207.194 47.4417 206.549 47.2213 205.95C47.0009 205.352 46.6613 204.869 46.2025 204.5C45.7437 204.131 45.159 203.946 44.4483 203.946C43.7376 203.946 43.1528 204.131 42.694 204.5C42.2352 204.869 41.8956 205.352 41.6752 205.95C41.4548 206.549 41.3446 207.194 41.3446 207.887C41.3446 208.58 41.4548 209.223 41.6752 209.816C41.8956 210.41 42.2352 210.889 42.694 211.254C43.1528 211.618 43.7376 211.8 44.4483 211.8ZM60.832 213.231C59.9684 213.231 59.206 213.012 58.5448 212.576C57.8835 212.135 57.3663 211.515 56.9929 210.714C56.6196 209.909 56.4329 208.957 56.4329 207.86C56.4329 206.771 56.6196 205.827 56.9929 205.026C57.3663 204.225 57.8858 203.607 58.5515 203.171C59.2172 202.734 59.9864 202.516 60.859 202.516C61.5337 202.516 62.0668 202.629 62.4581 202.853C62.8539 203.074 63.1553 203.326 63.3622 203.609C63.5736 203.888 63.7378 204.117 63.8548 204.297H63.9897V199.196H65.582V213.015H64.0437V211.422H63.8548C63.7378 211.611 63.5714 211.85 63.3555 212.138C63.1396 212.421 62.8315 212.675 62.4311 212.9C62.0308 213.12 61.4978 213.231 60.832 213.231ZM61.048 211.8C61.6867 211.8 62.2265 211.634 62.6673 211.301C63.1081 210.964 63.4432 210.498 63.6726 209.904C63.902 209.306 64.0167 208.616 64.0167 207.833C64.0167 207.059 63.9042 206.382 63.6793 205.802C63.4544 205.217 63.1216 204.763 62.6808 204.439C62.2399 204.111 61.6957 203.946 61.048 203.946C60.3732 203.946 59.811 204.12 59.3612 204.466C58.9158 204.808 58.5807 205.273 58.3558 205.863C58.1354 206.447 58.0252 207.104 58.0252 207.833C58.0252 208.571 58.1377 209.241 58.3626 209.843C58.592 210.442 58.9293 210.919 59.3747 211.274C59.8245 211.625 60.3822 211.8 61.048 211.8ZM75.2507 208.777V202.651H76.8431V213.015H75.2507V211.26H75.1428C74.8999 211.787 74.522 212.234 74.0092 212.603C73.4965 212.967 72.8487 213.15 72.0661 213.15C71.4183 213.15 70.8426 213.008 70.3388 212.725C69.835 212.437 69.4392 212.005 69.1513 211.429C68.8634 210.849 68.7195 210.118 68.7195 209.236V202.651H70.3118V209.128C70.3118 209.884 70.5232 210.487 70.946 210.937C71.3734 211.386 71.9176 211.611 72.5788 211.611C72.9747 211.611 73.3773 211.51 73.7866 211.308C74.2004 211.105 74.5468 210.795 74.8257 210.377C75.109 209.958 75.2507 209.425 75.2507 208.777ZM87.1004 204.972L85.67 205.377C85.5801 205.138 85.4474 204.907 85.2719 204.682C85.101 204.453 84.8671 204.264 84.5702 204.115C84.2734 203.967 83.8933 203.892 83.43 203.892C82.7957 203.892 82.2672 204.039 81.8444 204.331C81.4261 204.619 81.2169 204.986 81.2169 205.431C81.2169 205.827 81.3608 206.139 81.6487 206.369C81.9366 206.598 82.3864 206.789 82.9981 206.942L84.5365 207.32C85.4631 207.545 86.1536 207.889 86.6079 208.352C87.0622 208.811 87.2893 209.403 87.2893 210.127C87.2893 210.721 87.1184 211.251 86.7766 211.719C86.4392 212.187 85.9669 212.556 85.3597 212.826C84.7524 213.096 84.0462 213.231 83.241 213.231C82.184 213.231 81.3091 213.001 80.6164 212.542C79.9237 212.084 79.4851 211.413 79.3007 210.532L80.8121 210.154C80.956 210.712 81.2281 211.13 81.6285 211.409C82.0333 211.688 82.5618 211.827 83.2141 211.827C83.9562 211.827 84.5455 211.67 84.9818 211.355C85.4226 211.035 85.643 210.653 85.643 210.208C85.643 209.848 85.5171 209.547 85.2652 209.304C85.0133 209.056 84.6265 208.872 84.1047 208.75L82.3774 208.346C81.4283 208.121 80.7311 207.772 80.2858 207.3C79.845 206.823 79.6246 206.227 79.6246 205.512C79.6246 204.927 79.7887 204.41 80.1171 203.96C80.45 203.51 80.902 203.157 81.4733 202.901C82.049 202.644 82.7013 202.516 83.43 202.516C84.4555 202.516 85.2607 202.741 85.8454 203.191C86.4347 203.641 86.853 204.234 87.1004 204.972ZM94.1934 202.651V204H88.8226V202.651H94.1934ZM90.388 200.168H91.9803V210.046C91.9803 210.496 92.0455 210.833 92.176 211.058C92.3109 211.278 92.4818 211.427 92.6888 211.503C92.9002 211.575 93.1228 211.611 93.3567 211.611C93.5321 211.611 93.6761 211.602 93.7885 211.584C93.901 211.562 93.991 211.544 94.0584 211.53L94.3823 212.961C94.2743 213.001 94.1236 213.042 93.9302 213.082C93.7368 213.127 93.4917 213.15 93.1948 213.15C92.745 213.15 92.3042 213.053 91.8723 212.859C91.445 212.666 91.0897 212.371 90.8063 211.976C90.5274 211.58 90.388 211.08 90.388 210.478V200.168ZM1.43174 236.015V234.8L5.99282 229.807C6.52809 229.223 6.96891 228.714 7.31526 228.282C7.66162 227.846 7.91801 227.437 8.08444 227.054C8.25537 226.668 8.34083 226.263 8.34083 225.84C8.34083 225.354 8.22388 224.934 7.98998 224.578C7.76058 224.223 7.44571 223.948 7.04538 223.755C6.64505 223.562 6.19523 223.465 5.69594 223.465C5.16517 223.465 4.70186 223.575 4.30603 223.796C3.9147 224.011 3.61107 224.315 3.39516 224.706C3.18375 225.098 3.07805 225.557 3.07805 226.083H1.48572C1.48572 225.273 1.67239 224.562 2.04573 223.951C2.41907 223.339 2.92736 222.862 3.57059 222.52C4.21832 222.178 4.94476 222.008 5.74992 222.008C6.55958 222.008 7.27703 222.178 7.90227 222.52C8.5275 222.862 9.0178 223.323 9.37315 223.903C9.7285 224.484 9.90617 225.129 9.90617 225.84C9.90617 226.348 9.81396 226.845 9.62954 227.331C9.44961 227.812 9.13475 228.35 8.68494 228.944C8.23962 229.533 7.62113 230.253 6.82947 231.103L3.72577 234.422V234.53H10.1491V236.015H1.43174ZM12.9626 239.901V225.651H14.555V231.777C14.555 232.34 14.6719 232.834 14.9058 233.262C15.1442 233.685 15.4771 234.015 15.9044 234.254C16.3362 234.492 16.84 234.611 17.4158 234.611C17.9915 234.611 18.4931 234.492 18.9204 234.254C19.3522 234.011 19.6851 233.678 19.919 233.255C20.1574 232.828 20.2766 232.335 20.2766 231.777V225.651H21.8689V236.015H20.2766V234.476H20.1956C19.9167 235.021 19.5276 235.437 19.0283 235.725C18.529 236.008 17.9915 236.15 17.4158 236.15C16.84 236.15 16.3025 236.008 15.8032 235.725C15.3084 235.437 14.9193 235.021 14.6359 234.476H14.555V239.901H12.9626ZM24.782 236.015V225.651H26.3203V227.27H26.4553C26.6712 226.717 27.0198 226.287 27.5011 225.982C27.9824 225.671 28.5604 225.516 29.2351 225.516C29.9188 225.516 30.4878 225.671 30.9421 225.982C31.4009 226.287 31.7585 226.717 32.0149 227.27H32.1229C32.3883 226.735 32.7864 226.31 33.3171 225.995C33.8479 225.676 34.4844 225.516 35.2266 225.516C36.1532 225.516 36.9111 225.806 37.5004 226.386C38.0896 226.962 38.3842 227.86 38.3842 229.079V236.015H36.7919V229.079C36.7919 228.314 36.5828 227.767 36.1644 227.439C35.7461 227.111 35.2536 226.946 34.6868 226.946C33.9581 226.946 33.3936 227.167 32.9933 227.608C32.5929 228.044 32.3928 228.597 32.3928 229.267V236.015H30.7734V228.917C30.7734 228.327 30.5823 227.853 30.1999 227.493C29.8176 227.129 29.3251 226.946 28.7223 226.946C28.3085 226.946 27.9216 227.057 27.5618 227.277C27.2065 227.497 26.9186 227.803 26.6982 228.195C26.4823 228.582 26.3743 229.029 26.3743 229.537V236.015H24.782Z" fill="black"/>
</svg>
