<svg width="543" height="422" viewBox="0 0 543 422" fill="none" xmlns="http://www.w3.org/2000/svg">
<path fill-rule="evenodd" clip-rule="evenodd" d="M182.89 12.552C182.136 12.558 182.409 13.586 181.373 13.31C181.205 12.973 181.041 12.633 180.615 12.552C180.555 10.695 182.965 10.695 182.895 12.552H182.89ZM201.85 11.414C201.621 11.196 200.052 10.527 199.954 11.414C198.004 13.263 202.864 14.465 201.854 11.414H201.85ZM220.81 11.414C220.581 11.196 219.012 10.527 218.915 11.414C216.955 13.263 221.815 14.465 220.805 11.414H220.81ZM237.49 12.552C237.915 12.633 238.08 12.973 238.248 13.31C239.282 13.586 239.011 12.558 239.764 12.552C239.824 10.695 237.414 10.695 237.484 12.552H237.49ZM162.04 11.794V12.552C162.271 12.573 162.488 12.61 162.419 12.931H163.177C163.199 12.701 163.235 12.484 163.557 12.552V11.794C163.326 11.773 163.108 11.737 163.177 11.414H162.419C162.399 11.646 162.36 11.863 162.04 11.794ZM256.82 11.794V12.552C257.051 12.573 257.268 12.61 257.199 12.931H257.957C257.979 12.701 258.015 12.484 258.336 12.552V11.794C258.106 11.773 257.888 11.737 257.957 11.414H257.199C257.179 11.646 257.149 11.863 256.819 11.794H256.82ZM193.89 21.272C193.655 19.356 192.049 18.413 190.1 19.376C184.58 22.102 194.69 27.809 193.89 21.272ZM212.84 20.136C212.3 19.27 209.886 18.31 208.671 19.376C203.531 23.323 214.641 27.593 212.841 20.136H212.84ZM231.8 21.272C231.577 19.328 230.087 18.766 228.388 19.376C222.208 21.597 232.568 28 231.798 21.272H231.8ZM174.55 21.651C174.55 19.589 173.101 19.089 171.518 19.755C166.758 21.757 174.548 26.876 174.548 21.651H174.55ZM245.83 22.031C246.369 22.755 247.001 23.387 247.725 23.927C249.271 23.703 250.157 22.818 250.38 21.273C249.47 18.871 246.03 19.069 245.83 22.031ZM151.8 22.41C152.226 22.489 152.39 22.831 152.558 23.168C154.105 23.324 154.951 22.78 154.833 21.272C154.423 19.438 151.083 19.923 151.793 22.41H151.8ZM268.2 20.894C267.971 20.675 266.401 20.005 266.304 20.894C264.354 22.742 269.214 23.944 268.204 20.894H268.2ZM135.12 22.41V20.893H133.602C133.312 22.199 133.812 22.704 135.122 22.41H135.12ZM285.26 21.272V22.031C285.492 22.052 285.709 22.087 285.641 22.41H286.399C286.42 22.179 286.456 21.961 286.778 22.031V21.272C286.548 21.251 286.33 21.215 286.399 20.893H285.641C285.621 21.125 285.58 21.343 285.26 21.272ZM196.16 29.234C193.362 38.678 207.543 36.903 205.261 29.234C204.561 26.882 201.688 25.899 198.816 26.96C197.446 27.462 196.416 28.359 196.156 29.234H196.16ZM215.12 30.372C213.94 40.129 229.995 34.632 223.081 27.718C222.304 26.941 220.493 26.242 218.152 26.96C215.092 27.897 215.222 29.516 215.122 30.372H215.12ZM185.92 33.026C187.277 28.983 183.613 25.762 179.855 27.338C171.785 30.724 183.575 40.001 185.915 33.026H185.92ZM234.46 32.269C235.419 37.184 244.016 36.211 242.801 29.993C242.422 28.055 240.877 26.047 237.113 27.34C234.983 28.071 233.823 29.039 234.463 32.269H234.46ZM159.76 33.405C160.698 34.733 164.129 34.999 165.446 33.784C166.379 32.823 166.434 30.258 165.827 28.855C163.007 25.839 157.317 28.896 159.757 33.405H159.76ZM261 30.751C260.829 28.688 259.669 26.942 256.45 28.098C248.62 30.903 261.72 39.445 261 30.751ZM141.94 33.026C143.04 33.516 144.631 33.516 145.731 33.026C146.223 31.925 146.223 30.336 145.731 29.234C142.951 27.665 140.38 30.239 141.94 33.026ZM278.81 31.13C278.81 29.067 277.363 28.569 275.778 29.234C271.018 31.234 278.808 36.355 278.808 31.13H278.81ZM126.02 30.372C125.791 30.153 124.222 29.484 124.125 30.372C122.185 32.222 127.035 33.422 126.025 30.372H126.02ZM296.64 30.372C296.411 30.153 294.842 29.484 294.744 30.372C292.794 32.222 297.644 33.422 296.644 30.372H296.64ZM166.59 39.093C165.569 44.532 172.32 48.906 176.447 44.781C183.857 37.362 168.287 30.038 166.587 39.093H166.59ZM242.42 40.609C242.42 48.503 254.191 47.801 253.793 40.229C253.623 36.958 251.455 34.398 246.969 35.3C243.919 35.914 242.42 37.573 242.42 40.609ZM148.39 40.609C148.39 47.729 158.634 46.768 158.247 40.229C158.077 37.343 156.309 35.109 152.181 36.059C149.451 36.688 148.391 38.114 148.391 40.609H148.39ZM262.51 39.851C261.33 49.607 277.385 44.11 270.471 37.197C269.694 36.42 267.884 35.722 265.542 36.439C262.482 37.376 262.622 38.995 262.512 39.851H262.51ZM137.77 40.229C137.599 38.167 136.439 36.421 133.22 37.575C125.4 40.382 138.5 48.925 137.77 40.229ZM282.99 42.125C285.875 46.673 292.087 40.461 287.54 37.575C286.634 37.807 284.789 37.1 284.506 37.954C283.056 38.402 282.776 40.023 282.986 42.125H282.99ZM116.92 39.093C114.731 37.788 112.582 39.938 113.887 42.125C116.077 43.43 118.227 41.281 116.917 39.093H116.92ZM303.84 42.125C304.848 42.121 306.007 42.269 306.495 41.746V39.472C304.605 37.894 302.255 40.246 303.835 42.125H303.84ZM95.69 40.229V40.988C95.92 41.009 96.138 41.044 96.069 41.367H96.827C96.849 41.136 96.885 40.918 97.208 40.988V40.229C96.976 40.208 96.759 40.172 96.827 39.85H96.069C96.048 40.082 96.013 40.3 95.69 40.229ZM323.18 40.229V40.988C323.41 41.009 323.629 41.044 323.559 41.367H324.317C324.338 41.136 324.374 40.918 324.697 40.988V40.229C324.466 40.208 324.248 40.172 324.317 39.85H323.559C323.529 40.082 323.499 40.3 323.179 40.229H323.18ZM276.54 44.401C272.481 44.401 268.633 50.52 272.369 54.257C280.059 61.944 287.479 44.401 276.539 44.401H276.54ZM122.23 53.879C128.716 58.215 132.396 45.007 124.504 45.917C120.174 46.417 119.084 51.774 122.234 53.879H122.23ZM292.46 53.121C298.505 59.167 303.13 44.491 294.734 46.296C291.514 46.992 290.064 50.719 292.464 53.121H292.46ZM104.03 51.983C105.13 52.473 106.719 52.473 107.821 51.983C108.312 50.882 108.312 49.293 107.821 48.191C105.031 46.622 102.46 49.196 104.03 51.983ZM316.73 50.087C316.73 48.024 315.281 47.526 313.696 48.191C308.936 50.192 316.726 55.312 316.726 50.087H316.73ZM87.73 50.847V49.329H86.213C85.918 50.636 86.424 51.141 87.73 50.847ZM334.17 50.847V49.329H332.653C332.363 50.636 332.863 51.141 334.173 50.847H334.17ZM110.48 58.05C108.399 67.441 122.076 65.859 120.337 58.05C119.668 55.043 117.082 54.107 113.892 55.017C111.642 55.655 110.652 57.207 110.472 58.05H110.48ZM300.43 57.671C297.632 67.114 311.813 65.339 309.529 57.671C308.83 55.319 305.958 54.336 303.084 55.396C301.724 55.897 300.694 56.796 300.434 57.671H300.43ZM99.48 59.188C99.333 57.716 98.352 56.469 96.068 56.912C87.947 58.491 100.271 67.06 99.48 59.188ZM326.59 59.188C326.367 57.243 324.877 56.683 323.178 57.292C316.988 59.511 327.358 65.914 326.588 59.188H326.59ZM76.35 59.945C76.776 60.026 76.941 60.366 77.109 60.703C78.143 60.979 77.873 59.95 78.627 59.945C78.696 58.089 76.279 58.089 76.35 59.945ZM343.65 60.324V58.807H342.133C341.843 60.113 342.343 60.618 343.653 60.324H343.65ZM100.62 67.148C97.909 77.824 113.401 75.672 111.236 67.148C110.494 64.225 107.332 63.086 104.033 64.116C102.013 64.743 100.873 66.118 100.613 67.148H100.62ZM309.15 69.044C309.15 76.214 320.123 75.747 319.766 68.665C319.624 65.84 317.591 63.497 313.7 64.116C310.75 64.585 309.15 66.13 309.15 69.044ZM83.93 70.562C88.764 76.86 93.373 63.906 85.448 66.391C83.999 66.839 83.724 68.46 83.93 70.562ZM331.13 70.94C333.627 73.151 337.591 70.472 335.68 67.148C333.18 64.938 329.21 67.617 331.13 70.94ZM66.86 69.425C67.286 69.504 67.45 69.845 67.618 70.183C68.653 70.458 68.381 69.429 69.135 69.425C69.205 67.566 66.789 67.566 66.86 69.425ZM353.12 69.804V68.286H351.604C351.314 69.593 351.814 70.098 353.124 69.804H353.12ZM322.03 83.832C331.38 86.22 331.514 70.578 322.03 73.595C317.19 75.133 317.65 82.714 322.03 83.832ZM79.75 81.177C82.048 79.253 80.176 74.935 77.096 75.489C70.398 76.696 76.305 84.06 79.75 81.177ZM341.37 81.177C345.692 82.489 346.518 77.679 344.402 75.87C340.072 74.558 339.252 79.368 341.372 81.177H341.37ZM57.39 78.902C57.816 78.983 57.98 79.323 58.15 79.661C59.183 79.937 58.913 78.907 59.666 78.902C59.736 77.046 57.318 77.046 57.39 78.902ZM362.61 79.281V77.765H361.093C360.803 79.07 361.303 79.575 362.613 79.281H362.61ZM328.1 86.106C325.389 96.781 340.881 94.629 338.717 86.106C337.974 83.182 334.813 82.044 331.513 83.073C329.493 83.7 328.363 85.075 328.093 86.106H328.1ZM64.98 89.14C66.59 94.163 74.736 88.646 69.529 84.969C65.691 84.227 64.251 86.871 64.98 89.14ZM355.02 87.622C354.784 85.707 353.178 84.763 351.228 85.726C345.718 88.453 355.828 94.16 355.018 87.622H355.02ZM49.81 88.761V87.243H48.293C48 88.55 48.505 89.055 49.81 88.761ZM370.57 87.622V88.382C370.8 88.403 371.019 88.438 370.949 88.761H371.707C371.729 88.529 371.765 88.312 372.088 88.382V87.622C371.856 87.601 371.639 87.566 371.707 87.243H370.949C370.929 87.476 370.889 87.692 370.569 87.622H370.57ZM337.58 97.102C337.12 105.792 348.954 103.915 348.196 96.723C347.884 93.757 345.831 91.336 341.372 92.552C338.592 93.31 337.682 95.14 337.572 97.102H337.58ZM61.19 95.964C60.648 95.099 58.234 94.14 57.019 95.206C51.877 99.151 62.989 103.42 61.19 95.964ZM359.57 97.102C358.6 104.412 369.854 94.367 360.709 95.585C359.679 96.286 359.699 96.112 359.569 97.102H359.57ZM38.82 97.102V97.86C39.052 97.882 39.269 97.918 39.199 98.24H39.959C39.98 98.009 40.015 97.791 40.338 97.86V97.102C40.106 97.081 39.889 97.044 39.959 96.723H39.199C39.179 96.953 39.144 97.172 38.82 97.102ZM62.707 105.06C59.995 115.736 75.488 113.585 73.323 105.06C72.58 102.136 69.42 100.999 66.119 102.028C64.106 102.658 62.969 104.028 62.707 105.058V105.06ZM347.447 106.58C347.002 114.992 358.482 112.886 357.304 105.82C356.906 103.431 355.092 101.178 350.858 102.409C348.198 103.179 347.548 104.769 347.448 106.579L347.447 106.58ZM46.787 106.58C45.815 113.89 57.07 103.843 47.925 105.062C46.889 105.762 46.918 105.592 46.787 106.582V106.58ZM372.847 105.44C370.659 104.135 368.508 106.286 369.813 108.474C372.003 109.784 374.153 107.634 372.843 105.444L372.847 105.44ZM53.607 116.06C53.162 124.474 64.642 122.366 63.464 115.302C63.066 112.912 61.252 110.66 57.019 111.889C54.355 112.659 53.702 114.25 53.607 116.06ZM357.307 116.82C357.686 122.6 366.803 122.107 366.407 116.061C366.247 113.617 364.606 111.607 361.098 112.269C358.468 112.759 357.118 113.909 357.308 116.819L357.307 116.82ZM37.687 116.82C38.173 118.912 41.746 118.716 41.479 116.061C40.991 113.971 37.419 114.16 37.687 116.82ZM379.297 116.82C383.477 120.76 381.587 111.32 379.297 116.82ZM44.887 127.06C45.848 131.975 54.442 131.001 53.229 124.784C52.85 122.846 51.305 120.838 47.541 122.131C45.408 122.861 44.257 123.82 44.887 127.06ZM367.547 125.92C367.547 130.76 375.582 131.068 375.129 125.541C374.906 122.818 372.864 121.98 370.579 122.507C367.869 123.127 367.549 124.717 367.549 125.917L367.547 125.92ZM31.237 125.16C31.007 124.941 29.438 124.271 29.341 125.16C27.392 127.01 32.245 128.21 31.237 125.16ZM391.047 126.68V125.164H389.529C389.239 126.464 389.749 126.974 391.049 126.684L391.047 126.68ZM42.997 135.02C42.81 132.739 40.895 131.817 38.826 132.367C30.533 134.557 43.724 143.897 42.997 135.017V135.02ZM378.537 137.29C381.034 139.499 384.998 136.821 383.086 133.498C380.586 131.288 376.626 133.968 378.536 137.288L378.537 137.29ZM19.867 135.02V135.779C20.099 135.8 20.316 135.836 20.246 136.158H21.006C21.027 135.927 21.062 135.709 21.385 135.779V135.02C21.153 134.999 20.936 134.964 21.006 134.641H20.246C20.226 134.871 20.191 135.09 19.867 135.02ZM43.374 144.12C42.904 149.163 50.006 153.254 53.611 148.669C59.981 140.559 44.25 134.72 43.374 144.12ZM366.024 144.87C366.024 152.406 377.006 151.539 376.639 144.491C376.475 141.355 374.493 139.011 370.194 139.941C367.244 140.581 366.014 141.981 366.014 144.871L366.024 144.87ZM27.824 144.5C26.852 151.81 38.107 141.764 28.961 142.982C27.926 143.682 27.955 143.502 27.824 144.502V144.5ZM388.394 145.25C388.881 147.342 392.454 147.146 392.186 144.492C391.696 142.402 388.126 142.602 388.396 145.252L388.394 145.25ZM35.034 153.59C33.855 163.348 49.91 157.851 42.996 150.937C42.219 150.16 40.409 149.461 38.067 150.179C35.004 151.119 35.138 152.74 35.034 153.59ZM377.774 157.39C383.82 163.435 388.445 148.759 380.049 150.566C376.819 151.256 375.379 154.976 377.779 157.386L377.774 157.39ZM21.764 153.59C21.534 153.372 19.965 152.703 19.868 153.59C17.917 155.44 22.772 156.64 21.764 153.59ZM398.624 154.73C399.05 154.811 399.215 155.151 399.383 155.488C400.417 155.764 400.146 154.736 400.9 154.73C400.97 152.88 398.56 152.88 398.62 154.73H398.624ZM26.684 164.21C27.084 169.062 36.308 167.487 33.129 161.934C32.636 161.073 31.256 160.286 29.339 160.797C26.596 161.537 26.578 162.937 26.684 164.217V164.21ZM388.014 165.73C390.511 167.941 394.476 165.262 392.565 161.938C390.065 159.718 386.105 162.398 388.015 165.728L388.014 165.73ZM10.384 163.45V164.209C10.615 164.23 10.833 164.265 10.764 164.588H11.522C11.543 164.357 11.58 164.139 11.901 164.209V163.45C11.67 163.429 11.452 163.393 11.522 163.071H10.764C10.741 163.301 10.706 163.521 10.384 163.451V163.45ZM39.958 179C46.728 178.651 47.1 166.729 38.819 168.004C31.253 169.174 33.956 179.314 39.958 179.004V179ZM375.878 172.55C374.842 181.351 386.948 179.452 385.735 172.17C385.334 169.765 383.52 167.529 379.29 168.759C376.75 169.499 376.04 171.109 375.87 172.549L375.878 172.55ZM19.478 175.21C21.898 175.606 22.91 174.597 22.511 172.176C20.516 169.656 16.965 173.206 19.478 175.206V175.21ZM398.248 174.07C398.674 174.151 398.838 174.492 399.007 174.83C400.554 174.986 401.399 174.44 401.281 172.934C400.871 171.104 397.541 171.584 398.251 174.074L398.248 174.07ZM27.058 185.82C33.105 191.866 37.729 177.19 29.334 178.996C26.1 179.686 24.658 183.416 27.058 185.816V185.82ZM393.698 182.41C393.527 180.346 392.367 178.602 389.148 179.756C381.318 182.556 394.418 191.096 393.698 182.406V182.41ZM11.898 183.55V182.033H10.381C10.087 183.343 10.593 183.843 11.898 183.553V183.55ZM408.478 182.41V183.169C408.71 183.19 408.927 183.225 408.857 183.548H409.617C409.638 183.317 409.673 183.099 409.996 183.169V182.41C409.764 182.389 409.547 182.353 409.617 182.031H408.857C408.837 182.261 408.807 182.481 408.477 182.411L408.478 182.41ZM375.118 192.27C375.118 199.842 386.868 199.348 386.493 191.891C386.346 188.977 384.14 186.597 380.427 186.961C377.077 187.291 375.117 189.061 375.117 192.271L375.118 192.27ZM18.718 194.16C19.82 194.65 21.409 194.65 22.51 194.16C23.002 193.059 23.002 191.47 22.51 190.368C19.723 188.798 17.148 191.378 18.718 194.158V194.16ZM401.278 190.75C399.09 189.446 396.94 191.595 398.245 193.784C400.435 195.094 402.575 192.944 401.275 190.754L401.278 190.75ZM25.548 202.12C25.927 207.901 35.044 207.408 34.648 201.362C34.488 198.918 32.847 196.906 29.34 197.57C26.708 198.07 25.356 199.22 25.548 202.12ZM394.078 200.99C393.796 199.092 392.554 197.279 389.149 198.336C379.789 201.236 395.599 211.236 394.079 200.986L394.078 200.99ZM9.99801 202.12C10.424 202.201 10.588 202.541 10.757 202.878C11.791 203.154 11.52 202.125 12.273 202.12C12.344 200.27 9.92801 200.27 9.99801 202.12ZM409.998 202.5V200.983H408.48C408.19 202.293 408.69 202.803 410 202.503L409.998 202.5ZM375.118 211.22C375.118 219.114 386.89 218.413 386.493 210.841C386.321 207.57 384.153 205.011 379.668 205.913C376.608 206.533 375.108 208.193 375.108 211.223L375.118 211.22ZM23.268 210.84C23.045 208.897 21.554 208.335 19.855 208.944C13.672 211.174 24.037 217.574 23.268 210.844V210.84ZM398.618 213.12C401.038 213.518 402.049 212.507 401.651 210.087C399.661 207.567 396.111 211.117 398.621 213.117L398.618 213.12ZM34.268 222.6C35.624 218.557 31.96 215.336 28.202 216.912C20.129 220.302 31.926 229.572 34.268 222.602V222.6ZM386.488 221.08C386.871 226.275 394.437 225.296 394.07 220.322C393.905 218.081 392.471 216.26 389.141 217.288C387.131 217.908 386.341 219.028 386.491 221.078L386.488 221.08ZM9.99801 221.08C10.424 221.161 10.588 221.501 10.757 221.839C11.791 222.115 11.52 221.085 12.273 221.08C12.344 219.23 9.92801 219.23 9.99801 221.08ZM409.998 221.46V219.944H408.48C408.19 221.254 408.69 221.764 410 221.464L409.998 221.46ZM377.008 234.35C385.291 241.615 390.99 222.26 379.283 225.251C375.153 226.311 373.793 231.531 377.013 234.351L377.008 234.35ZM18.338 229.8C17.368 237.111 28.622 227.065 19.476 228.284C18.44 228.994 18.47 228.814 18.338 229.804V229.8ZM397.868 230.56C398.353 232.651 401.928 232.456 401.659 229.8C401.169 227.71 397.598 227.91 397.868 230.56ZM26.308 238.9C25.314 245.835 35.718 244.352 33.892 238.141C33.287 236.086 30.92 235.329 28.583 236.245C26.7 236.985 26.415 238.165 26.308 238.905V238.9ZM393.708 239.28C393.521 236.998 391.606 236.076 389.537 236.627C381.237 238.827 394.427 248.157 393.707 239.277L393.708 239.28ZM10.388 240.42C11.576 240.595 12.08 240.09 11.905 238.903H10.388V240.423V240.42ZM408.488 239.28V240.038C408.72 240.06 408.937 240.096 408.867 240.418H409.627C409.648 240.187 409.683 239.968 410.006 240.038V239.28C409.774 239.259 409.557 239.222 409.627 238.901H408.867C408.847 239.131 408.817 239.351 408.487 239.281L408.488 239.28ZM34.278 248.76C33.818 257.449 45.651 255.573 44.893 248.379C44.581 245.414 42.529 242.994 38.069 244.209C35.289 244.969 34.38 246.8 34.278 248.76ZM376.268 247.24C373.431 254.978 386.168 256.232 385.747 248.758C385.615 246.415 384.412 244.137 380.439 244.586C377.949 244.866 376.669 246.146 376.269 247.236L376.268 247.24ZM18.728 249.52C19.215 251.611 22.788 251.416 22.52 248.762C22.033 246.672 18.461 246.862 18.728 249.522V249.52ZM400.908 248.38C400.678 248.161 399.109 247.493 399.012 248.38C397.072 250.23 401.922 251.43 400.912 248.38H400.908ZM27.068 259.76C29.043 266.084 36.743 257.057 31.24 255.59C30.695 255.444 29.914 255.571 28.965 255.969C27.368 256.629 26.205 256.979 27.068 259.759V259.76ZM388.398 260.51C389.5 261.002 391.089 261.002 392.19 260.51C392.682 259.41 392.682 257.821 392.19 256.719C389.4 255.149 386.83 257.729 388.4 260.509L388.398 260.51ZM35.408 269.23C36.369 274.145 44.964 273.171 43.749 266.954C43.371 265.016 41.826 263.008 38.062 264.301C35.929 265.041 34.777 266 35.408 269.23ZM377.018 268.1C377.018 272.94 385.055 273.248 384.602 267.721C384.377 264.998 382.337 264.16 380.051 264.687C377.351 265.307 377.021 266.887 377.021 268.097L377.018 268.1ZM21.768 267.34C21.538 267.121 19.969 266.451 19.872 267.34C17.921 269.19 22.776 270.39 21.768 267.34ZM400.528 268.85V267.334H399.012C398.722 268.644 399.232 269.154 400.532 268.854L400.528 268.85ZM43.748 277.2C43.288 285.889 55.123 284.013 54.365 276.821C54.053 273.856 52.001 271.435 47.54 272.65C44.76 273.4 43.853 275.23 43.748 277.2ZM366.408 277.58C366.408 284.248 376.642 283.769 376.265 277.2C376.116 274.591 374.178 272.379 370.577 273.029C367.917 273.499 366.407 275.029 366.407 277.579L366.408 277.58ZM31.618 276.06C29.43 274.755 27.28 276.905 28.585 279.092C30.774 280.402 32.922 278.252 31.618 276.062V276.06ZM388.778 278.33C389.203 278.411 389.368 278.751 389.536 279.088C391.083 279.244 391.929 278.7 391.811 277.192C391.411 275.362 388.071 275.852 388.781 278.332L388.778 278.33ZM362.238 292.74C368.852 292.395 369.242 279.979 360.721 281.745C353.771 283.195 355.831 293.085 362.241 292.745L362.238 292.74ZM42.238 285.54C41.696 284.676 39.282 283.716 38.067 284.782C32.926 288.722 44.038 292.992 42.238 285.542V285.54ZM378.538 286.67C377.566 293.981 388.821 283.934 379.675 285.153C378.635 285.863 378.665 285.683 378.535 286.673L378.538 286.67ZM45.268 296.15C44.668 303.598 55.689 299.22 52.094 294.254C51.715 293.731 50.443 292.829 48.681 293.115C46.348 293.505 45.365 294.955 45.268 296.155V296.15ZM368.298 297.67C370.271 303.994 377.971 294.968 372.469 293.499C371.923 293.354 371.142 293.481 370.194 293.878C368.604 294.548 367.444 294.898 368.304 297.668L368.298 297.67ZM30.858 297.29V295.773H29.342C29.049 297.083 29.554 297.583 30.858 297.293V297.29ZM389.528 296.15V296.908C389.76 296.929 389.977 296.964 389.907 297.287H390.667C390.688 297.056 390.723 296.838 391.046 296.908V296.15C390.814 296.128 390.597 296.092 390.667 295.77H389.907C389.887 296 389.857 296.22 389.527 296.15H389.528ZM54.368 307.15C55.328 312.066 63.923 311.092 62.709 304.875C62.33 302.937 60.785 300.929 57.021 302.221C54.888 302.941 53.736 303.911 54.368 307.141V307.15ZM365.648 305.25C365.364 303.351 364.122 301.538 360.718 302.597C351.368 305.507 367.178 315.507 365.648 305.247V305.25ZM38.068 306.39C42.246 310.34 40.361 300.9 38.068 306.39ZM379.678 306.39C380.104 306.469 380.268 306.81 380.437 307.148C381.471 307.423 381.2 306.394 381.953 306.39C382.013 304.53 379.603 304.53 379.673 306.39H379.678ZM63.468 313.59C60.631 321.328 73.369 322.582 72.947 315.107C72.814 312.758 71.612 310.486 67.638 310.936C65.148 311.216 63.868 312.496 63.468 313.586V313.59ZM348.208 316.63C349.167 321.547 357.764 320.572 356.549 314.356C356.17 312.417 354.626 310.409 350.861 311.702C348.731 312.422 347.581 313.392 348.211 316.622L348.208 316.63ZM47.168 315.87C47.653 317.961 51.228 317.766 50.959 315.112C50.474 313.022 46.901 313.212 47.168 315.872V315.87ZM369.818 316.25C370.244 316.331 370.409 316.672 370.577 317.009C372.124 317.165 372.97 316.62 372.852 315.113C372.452 313.273 369.112 313.763 369.822 316.253L369.818 316.25ZM72.568 324.59C72.123 333.004 83.604 330.898 82.425 323.832C82.027 321.443 80.213 319.19 75.98 320.42C73.318 321.19 72.663 322.78 72.568 324.59ZM338.348 326.1C339.356 331.463 348.699 330.483 347.449 323.825C347.056 321.737 345.348 319.562 341.383 320.792C339.103 321.502 337.713 322.682 338.353 326.102L338.348 326.1ZM60.818 324.97C60.818 322.906 59.369 322.408 57.784 323.074C53.026 325.074 60.818 330.194 60.818 324.974V324.97ZM359.958 325.35C360.716 327.116 362.99 327.116 363.749 325.35C363.759 322.56 359.959 322.56 359.959 325.35H359.958ZM85.078 339.38C93.869 341.83 94.197 326.794 85.078 329.901C79.834 331.681 82.238 338.581 85.078 339.381V339.38ZM328.868 333.69C327.688 343.447 343.743 337.949 336.83 331.035C336.052 330.26 334.241 329.561 331.9 330.277C328.84 331.207 328.98 332.827 328.87 333.687L328.868 333.69ZM65.748 334.07C64.777 341.38 76.031 331.333 66.886 332.553C65.851 333.253 65.879 333.083 65.748 334.073V334.07ZM351.238 336.34C353.659 336.737 354.669 335.727 354.272 333.308C352.282 330.798 348.732 334.348 351.242 336.338L351.238 336.34ZM48.308 334.07V334.828C48.538 334.85 48.756 334.886 48.687 335.208H49.445C49.467 334.977 49.503 334.759 49.825 334.828V334.07C49.594 334.048 49.376 334.012 49.445 333.691H48.687C48.666 333.921 48.629 334.141 48.308 334.071V334.07ZM91.531 343.93C91.531 352.276 105.816 348.741 100.63 340.896C99.84 339.7 97.9 338.801 95.322 339.379C91.739 340.179 91.529 341.979 91.529 343.929L91.531 343.93ZM324.321 348.48C329.626 348.169 329.864 337.967 322.805 339.76C317.215 341.17 319.435 348.76 324.325 348.48H324.321ZM75.221 343.55C74.25 350.86 85.503 340.813 76.358 342.032C75.322 342.732 75.353 342.562 75.221 343.552V343.55ZM341.761 345.82C344.181 346.218 345.192 345.208 344.793 342.787C342.803 340.267 339.253 343.817 341.763 345.817L341.761 345.82ZM57.781 343.55V344.308C58.013 344.329 58.23 344.364 58.162 344.687H58.92C58.941 344.455 58.976 344.238 59.299 344.308V343.55C59.067 343.528 58.85 343.492 58.92 343.169H58.162C58.14 343.399 58.105 343.62 57.781 343.55ZM101.388 354.54C102.396 359.903 111.74 358.923 110.489 352.266C110.096 350.177 108.388 348.001 104.423 349.232C102.143 349.932 100.743 351.112 101.393 354.532L101.388 354.54ZM310.288 354.54C311.247 359.457 319.844 358.483 318.629 352.266C318.25 350.328 316.706 348.32 312.941 349.611C310.811 350.341 309.661 351.301 310.291 354.531L310.288 354.54ZM84.698 353.02C83.728 360.33 94.982 350.285 85.837 351.503C84.802 352.213 84.83 352.043 84.698 353.023V353.02ZM334.938 351.89C332.749 350.585 330.599 352.734 331.904 354.922C334.084 356.222 336.234 354.082 334.934 351.892L334.938 351.89ZM67.258 353.02V353.779C67.489 353.8 67.706 353.836 67.637 354.158H68.396C68.417 353.927 68.453 353.709 68.775 353.779V353.02C68.544 352.998 68.326 352.964 68.396 352.641H67.637C67.616 352.881 67.581 353.091 67.258 353.021V353.02ZM133.605 368.57C138.648 369.039 142.741 361.937 138.155 358.333C130.055 351.963 124.205 367.693 133.605 368.573V368.57ZM280.335 362.5C279.809 372.146 296.919 368.095 290.571 359.466C289.829 358.457 287.66 357.371 285.643 357.57C282.063 357.93 280.483 359.82 280.333 362.5H280.335ZM117.305 366.67C120.946 365.024 119.399 358.49 115.03 359.087C108.17 360.027 112.22 368.967 117.31 366.667L117.305 366.67ZM301.185 362.88C301.185 367.72 309.221 368.028 308.768 362.501C308.544 359.778 306.504 358.939 304.219 359.467C301.529 360.087 301.189 361.677 301.189 362.877L301.185 362.88ZM95.315 364.78C97.735 365.177 98.745 364.167 98.348 361.746C96.352 359.226 92.801 362.776 95.315 364.776V364.78ZM322.045 363.26C322.805 365.026 325.078 365.026 325.837 363.26C325.837 360.48 322.047 360.48 322.047 363.26H322.045ZM76.735 362.5V363.258C76.965 363.279 77.183 363.314 77.114 363.637H77.872C77.894 363.405 77.93 363.189 78.251 363.258V362.5C78.02 362.478 77.804 362.442 77.872 362.121H77.114C77.093 362.361 77.058 362.571 76.735 362.501V362.5ZM263.275 374.26C264.881 367.732 255.759 363.842 252.659 368.953C247.649 377.213 261.389 381.943 263.279 374.263L263.275 374.26ZM138.915 372.36C138.915 379.028 149.149 378.549 148.772 371.98C148.624 369.371 146.684 367.159 143.085 367.809C140.435 368.289 138.915 369.81 138.915 372.36ZM271.995 371.6C270.817 381.357 286.872 375.859 279.958 368.947C279.181 368.17 277.37 367.471 275.029 368.187C271.969 369.127 272.109 370.747 271.999 371.597L271.995 371.6ZM128.295 371.98C128.107 369.682 126.193 368.777 124.126 369.327C115.836 371.527 129.026 380.857 128.296 371.977L128.295 371.98ZM292.465 372.74C292.678 374.852 295.395 376.23 297.774 374.635C301.074 368.915 291.954 367.665 292.464 372.735L292.465 372.74ZM104.795 373.88C105.801 373.876 106.96 374.024 107.448 373.501V371.227C105.568 369.647 103.218 371.997 104.798 373.877L104.795 373.88ZM312.945 372.74C317.125 376.69 315.235 367.25 312.945 372.74ZM185.925 381.84C185.925 389.376 196.909 388.509 196.542 381.461C196.378 378.324 194.395 375.981 190.097 376.911C187.157 377.551 185.917 378.951 185.917 381.841L185.925 381.84ZM206.405 386.01C214.687 393.274 220.386 373.919 208.681 376.911C204.541 377.971 203.181 383.191 206.401 386.011L206.405 386.01ZM223.845 381.84C223.845 389.008 234.818 388.541 234.461 381.461C234.318 378.635 232.285 376.291 228.395 376.911C225.445 377.381 223.845 378.921 223.845 381.841V381.84ZM167.735 381.08C166.555 390.836 182.61 385.339 175.696 378.425C174.919 377.649 173.109 376.951 170.767 377.667C167.707 378.617 167.837 380.227 167.737 381.087L167.735 381.08ZM248.485 386.39C253.79 386.079 254.028 375.878 246.967 377.67C241.387 379.09 243.607 386.68 248.487 386.39H248.485ZM149.535 381.84C149.535 386.68 157.57 386.988 157.117 381.461C156.894 378.738 154.854 377.9 152.567 378.427C149.867 379.047 149.537 380.637 149.537 381.837L149.535 381.84ZM270.475 380.32C270.097 379.256 268.302 377.662 265.546 378.804C257.526 384.104 273.466 388.734 270.476 380.324L270.475 380.32ZM132.095 381.46C131.123 388.77 142.379 378.723 133.233 379.942C132.193 380.642 132.223 380.472 132.093 381.462L132.095 381.46ZM288.295 381.84C288.295 379.776 286.846 379.278 285.261 379.944C280.501 381.944 288.291 387.064 288.291 381.844L288.295 381.84ZM116.545 381.08C116.315 380.861 114.746 380.191 114.649 381.08C112.709 382.93 117.559 384.13 116.549 381.08H116.545ZM303.845 382.22C304.271 382.3 304.437 382.642 304.605 382.978C305.64 383.255 305.368 382.225 306.122 382.22C306.182 380.36 303.772 380.36 303.842 382.22H303.845ZM204.125 390.94C203.954 388.876 202.794 387.13 199.575 388.286C191.755 391.086 204.845 399.626 204.125 390.936V390.94ZM223.085 390.94C222.914 388.876 221.754 387.13 218.535 388.286C210.715 391.086 223.805 399.626 223.085 390.936V390.94ZM178.725 392.46C180.268 397.435 188.425 392.104 183.274 388.29C179.524 387.53 178.024 390.19 178.724 392.46H178.725ZM235.595 392.46C237.566 398.784 245.268 389.757 239.764 388.29C239.22 388.144 238.439 388.271 237.491 388.669C235.891 389.329 234.731 389.679 235.591 392.459L235.595 392.46ZM160.525 390.94C159.554 398.251 170.808 388.204 161.663 389.423C160.623 390.123 160.653 389.953 160.523 390.943L160.525 390.94ZM259.865 391.32C259.865 389.257 258.416 388.758 256.833 389.424C252.073 391.424 259.863 396.544 259.863 391.324L259.865 391.32ZM142.325 392.08C142.751 392.16 142.916 392.501 143.084 392.838C144.63 392.994 145.476 392.45 145.358 390.943C144.958 389.103 141.618 389.593 142.328 392.083L142.325 392.08ZM275.025 391.7C279.205 395.64 277.325 386.21 275.025 391.7ZM125.645 392.08V390.563H124.129C123.839 391.863 124.349 392.373 125.649 392.083L125.645 392.08ZM294.745 390.94V391.698C294.976 391.719 295.194 391.755 295.124 392.077H295.883C295.904 391.846 295.94 391.628 296.262 391.698V390.94C296.032 390.919 295.813 390.883 295.883 390.56H295.124C295.104 390.79 295.064 391.01 294.744 390.94H294.745ZM208.295 401.18C209.055 402.947 211.329 402.947 212.087 401.18C212.097 398.39 208.297 398.39 208.297 401.18H208.295ZM190.105 402.31C191.111 402.306 192.269 402.454 192.758 401.931V399.657C190.878 398.077 188.528 400.427 190.108 402.307L190.105 402.31ZM228.015 402.31C229.021 402.306 230.18 402.454 230.668 401.931V399.657C228.788 398.077 226.438 400.427 228.018 402.307L228.015 402.31ZM173.415 400.04C173.186 399.821 171.616 399.151 171.52 400.04C169.57 401.89 174.42 403.09 173.41 400.04H173.415ZM249.245 400.04C249.016 399.821 247.446 399.151 247.349 400.04C245.409 401.89 250.259 403.09 249.249 400.04H249.245ZM154.085 401.56V400.044H152.567C152.277 401.344 152.777 401.854 154.087 401.564L154.085 401.56ZM267.825 401.56V400.044H266.307C266.017 401.344 266.527 401.854 267.827 401.564L267.825 401.56ZM199.955 409.9V410.658C200.186 410.68 200.404 410.715 200.335 411.037H201.093C201.114 410.806 201.15 410.59 201.472 410.658V409.9C201.241 409.879 201.023 409.843 201.093 409.521H200.335C200.315 409.751 200.285 409.971 199.955 409.901V409.9ZM218.915 409.9V410.658C219.145 410.68 219.363 410.715 219.294 411.037H220.052C220.074 410.806 220.109 410.59 220.431 410.658V409.9C220.2 409.879 219.984 409.843 220.052 409.521H219.294C219.274 409.751 219.234 409.971 218.914 409.901L218.915 409.9ZM223.085 38.71C222.652 40.673 223.69 43.141 223.465 43.638C221.735 41.732 217.105 42.931 215.882 43.259C220.488 31.442 199.836 32.468 204.128 43.259C202.019 42.144 199.142 42.528 196.925 43.259C201.243 31.073 180.008 32.801 185.929 44.017C180.031 40.7 173.845 45.099 174.176 51.601C172.59 50.746 171.124 51.669 169.246 51.601C171.57 39.828 152.382 42.481 156.355 52.739C154.147 50.82 149.964 53.048 148.772 53.118C153.699 45.13 140.002 40.685 138.156 48.188C136.954 53.076 142.043 57.873 147.257 55.013C146.047 56.457 145.93 58.995 145.361 61.079C144.036 60.056 141.566 61.69 140.812 61.079C142.73 48.315 122.279 53.122 129.058 63.354C122.962 59.491 116.283 65.3 118.062 71.695C111.664 70.121 107.305 73.812 108.205 80.794C105.923 79.379 102.162 81.492 101.38 81.554C106.313 71.262 88.825 69.706 90.764 80.036C91.185 82.272 95.966 86.004 99.865 83.448C98.592 84.829 98.126 87.016 98.348 89.894C95.501 89.575 93.724 90.325 91.903 91.031C97.045 80.465 78.674 79.281 81.287 89.894C82.011 92.838 87.037 94.717 90.007 93.305C88.948 94.776 88.705 97.058 88.869 99.75C86.447 98.577 83.827 100.189 82.045 100.889C85.447 97.09 80.858 92.148 79.013 91.789C71.689 90.367 68.498 102.318 76.738 103.163C78.842 103.379 79.428 102.623 80.908 102.405C79.379 103.742 79.435 107.526 79.392 109.229C72.442 108.392 69.116 113.044 70.672 119.466C63.345 116.716 58.582 125.244 62.709 130.46C54.977 124.045 47.617 138.06 55.884 141.455C57.118 142.029 59.91 141.63 60.435 141.835C59.576 142.998 60.615 146.06 59.676 147.143C52.97 146.468 50.219 151.463 51.713 157.76C40.738 153.515 39.176 172.841 50.955 170.271C50.342 171.679 50.641 174 50.576 175.959C39.677 173.463 39.481 191.244 50.197 190.366C49.957 191.642 50.685 193.888 49.818 194.537C47.259 194.128 46.188 195.205 44.509 195.675C47.351 191.12 44.013 186.196 39.581 186.196C29.825 186.196 33.733 202.442 42.992 197.571C40.981 199.231 42.172 204.776 42.613 205.913C30.217 200.383 31.946 223.225 43.371 216.149C41.142 218.148 41.626 223.501 43.371 225.628C38.956 221.962 33.515 226.152 33.515 230.179C33.515 237.578 45.578 238.634 45.646 230.179C45.66 228.704 44.454 227.29 44.509 226.387C45.86 227.564 47.812 228.14 50.575 227.903C49.496 228.962 50.825 232.279 50.196 232.833C39.028 231.419 40.445 248.727 50.954 246.861C49.745 248.611 51.505 251.572 50.954 252.548C38.69 249.561 42.052 270.385 52.85 263.923C48.909 269.088 53.932 277.113 60.812 274.918C59.536 277.006 60.964 279.941 60.812 281.363C59.815 280.97 58.485 280.91 57.02 280.984C45.088 285.536 60.088 300.583 64.604 288.567C64.79 286.864 64.411 285.725 64.223 284.396C65.434 285.208 67.433 285.232 69.532 285.154C68.285 286.483 70.136 289.45 69.532 290.083C56.328 288.567 62.242 308.253 71.807 302.216C68.037 308.116 74.344 315.327 80.906 312.073C77.705 318.69 83.861 323.799 90.006 322.31C87.169 328.666 94.176 333.498 99.485 331.789C97.276 338.622 103.565 343.212 109.721 340.509C103.826 351.759 124.311 353.985 122.235 342.405C123.131 343.151 125.626 342.3 126.405 343.163C126.219 344.866 126.596 346.005 126.784 347.334C121.8 346.169 118.264 349.771 118.443 353.78C118.823 362.338 133.243 360.981 131.334 351.505C132.646 352.088 134.79 351.841 136.642 351.885C135.031 358.249 141.732 362.105 146.878 360.605C143.498 372.283 162.557 371.757 160.149 361.363C161.634 362.015 164.193 361.444 165.077 361.742C164.073 363.65 165.525 365.992 166.216 367.43C156.724 361.67 152.877 378.878 163.182 378.425C167.346 378.242 170.111 372.533 168.112 368.947C169.718 370.646 173.32 370.726 175.694 369.705C171.773 381.69 191.496 380.933 188.207 370.084C189.59 371.511 193.416 370.365 194.272 370.464C191.427 381.921 210.097 380.936 207.543 370.464C209.085 371.136 211.624 370.843 213.231 370.464C210.364 381.581 229.325 381.365 226.122 370.084C227.956 371.168 230.624 370.805 232.567 370.084C229.235 382.472 249.33 379.834 244.7 369.326C250.865 372.023 256.008 367.62 255.695 361.363C257.172 362.464 259.89 360.862 260.625 361.363C258.41 373.043 277.727 370.922 273.137 359.846C279.475 362.502 284.376 357.885 284.131 351.505C285.982 352.724 288.949 350.783 289.819 351.126C289.426 352.123 289.365 353.452 289.44 354.917C293.827 366.974 309.173 351.812 297.022 347.334C295.321 347.147 294.181 347.526 292.852 347.713C293.616 346.329 294.133 344.697 293.99 342.405C295.213 343.649 297.954 341.744 298.54 342.405C298.511 345.669 298.807 347.083 300.057 348.471C308.576 357.94 318.771 335.724 303.089 337.475C303.858 336.475 303.49 334.337 304.228 333.306C305.693 333.38 307.022 333.319 308.019 332.926C305.564 345.772 327.246 341.012 319.772 330.272C325.986 335.291 333.35 326.905 330.009 321.173C336.971 325.806 342.97 315.426 338.73 310.936C348.72 318.896 354.772 297.299 341.003 299.561C341.845 298.508 341.62 295.665 341.763 295.012C344.007 295.361 344.905 294.364 346.691 294.254C345.99 295.067 346.436 297.029 346.312 298.424C347.687 303.81 357.128 304.123 358.445 298.424C359.264 294.877 357.335 291.975 354.275 290.462C352.867 290.213 350.373 290.826 350.104 290.462C351.065 289.04 350.654 285.908 350.862 284.774C357.819 285.576 360.737 280.614 359.203 274.159C370.537 278.759 371.257 258.93 360.342 261.268C360.914 260.034 360.515 257.242 360.721 256.717C363.399 256.994 364.793 255.988 366.409 255.201C363.351 260.226 367.961 264.844 371.716 264.679C378.97 264.36 379.261 252.674 371.337 252.546C370.077 252.526 369.337 253.463 367.926 253.305C369.634 251.836 369.824 247.972 368.684 245.722C380.102 249.686 380.654 230.82 369.442 232.831C370.363 231.535 369.325 228.253 369.821 227.522C381.129 229.232 380.153 212.056 369.821 213.495C370.392 211.773 370.068 210.385 369.821 208.565C380.914 210.634 380.693 192.486 369.442 194.917C370.497 193.675 369.254 189.94 369.821 189.229C380.598 191.78 380.181 173.107 369.063 176.338C370.089 174.485 368.947 170.366 369.063 169.513C381.765 173.333 378.013 151.596 367.167 158.897C370.957 153.842 367.379 145.748 359.583 147.523C360.729 145.858 359.349 141.798 359.583 141.077C360.582 141.471 361.911 141.531 363.375 141.456C375.492 136.467 359.941 122.084 355.793 133.874C355.606 135.577 355.984 136.715 356.172 138.045C355.013 137.308 353.246 137.179 351.242 137.287C351.469 135.289 350.961 134.029 350.863 132.357C363.557 134.109 358.993 114.777 348.968 119.845C352.03 113.409 346.21 108.234 340.246 109.608C342.015 103.189 337.187 98.362 330.768 100.13C332.681 93.628 327.79 88.736 321.289 90.651C323.468 83.733 317.597 79.755 311.811 80.793C313.578 74.289 307.616 69.613 301.574 72.073C306.697 61.252 286.862 58.263 288.682 70.556C287.869 69.854 285.905 70.3 284.511 70.177C285.009 68.273 283.671 66.237 284.132 65.627C294.392 67.951 294.611 53.115 286.028 53.115C282.057 53.115 278.696 56.755 279.962 61.835C278.919 60.697 275.101 61.286 274.274 61.077C275.557 53.752 268.71 51.287 263.658 52.736C267.995 41.737 248.49 40.153 251.146 51.977C249.458 51.232 247.827 51.212 245.838 51.598C246.834 44.345 239.262 40.838 234.085 44.395C239.835 36.119 225.475 30.462 223.075 38.672L223.085 38.71ZM232.565 45.534C232.936 46.676 230.802 48.563 231.427 51.222C229.662 51.043 228.899 50.708 227.258 51.222C227.588 48.742 226.557 47.624 226.119 45.913C227.499 47.085 231.629 47.016 232.569 45.534H232.565ZM187.825 46.292C188.564 46.081 192.204 47.349 193.891 46.292C193.782 48.078 192.785 48.977 193.133 51.222C192.21 50.489 189.961 50.857 188.962 51.222C189.062 49.1 188.892 47.246 187.822 46.292H187.825ZM207.545 46.292C209.086 47.431 211.568 47.001 213.233 46.292C212.606 47.56 211.892 48.742 212.095 50.843H208.303C208.633 48.735 207.573 48.031 207.543 46.292H207.545ZM160.145 56.149C161.534 56.827 163.04 57.034 164.694 56.528C164.284 57.635 163.845 58.714 163.936 60.32H160.903C161.173 58.407 160.383 57.552 160.143 56.149H160.145ZM259.865 56.149C261.301 56.207 259.074 58.452 259.865 60.32H256.454C256.342 59.043 256.263 57.73 255.695 56.907C256.225 55.797 259.335 57.262 259.865 56.149ZM180.245 57.288H182.898C182.908 58.181 182.245 58.403 182.519 59.562H180.623C180.903 58.402 179.973 58.446 180.253 57.288H180.245ZM237.495 57.288H240.148C240.336 58.992 239.756 59.93 237.874 59.562C237.884 58.669 237.225 58.446 237.495 57.288ZM199.575 58.046C199.512 57.223 200.92 57.874 201.471 57.667V59.563H199.954C199.924 58.962 200.145 58.116 199.575 58.046ZM218.915 57.667H220.81C220.861 58.98 220.484 59.868 218.915 59.563C218.925 58.931 218.925 58.298 218.925 57.667H218.915ZM130.575 65.25C131.415 65.055 133.743 66.62 136.262 66.008C135.84 67.102 135.579 68.359 135.504 69.8C133.889 69.575 132.996 70.071 131.712 70.179C131.812 68.051 131.752 66.094 130.572 65.25H130.575ZM266.305 66.766H268.96C268.522 67.214 268.53 68.106 268.58 69.04H266.305V66.766ZM151.805 67.144H154.08V69.04H152.184C152.344 68.128 151.495 68.218 151.805 67.144ZM298.155 75.106C298.952 76.053 297.274 77.749 297.776 79.657C297.145 79.022 295.549 79.355 294.363 79.277C294.133 78.371 294.84 76.527 293.984 76.245C294.864 75.355 297.604 76.32 298.154 75.106H298.155ZM122.235 75.485C122.952 76.159 124.739 75.762 126.025 75.866C126.009 77.113 125.385 77.753 125.646 79.277H122.614C122.684 77.813 122.625 76.484 122.235 75.485ZM276.545 77.003H277.683V78.52C276.413 78.901 276.443 77.993 276.543 77.003H276.545ZM307.635 85.344C307.001 85.973 307.334 87.571 307.256 88.757H304.224C303.997 87.972 304.693 86.266 303.843 86.103C304.773 85.515 306.313 85.538 307.633 85.344H307.635ZM113.135 86.102C113.417 85.247 115.261 85.954 116.169 85.722V88.377C115.502 88.594 113.94 87.918 113.894 88.756C112.814 88.704 114.234 86.153 113.144 86.102H113.135ZM316.735 94.823C317.206 94.956 316.423 97.008 316.735 98.235C315.642 98.19 314.252 98.441 313.701 97.855V95.202C314.601 94.972 316.451 95.679 316.731 94.823H316.735ZM104.035 95.581H106.688C106.251 96.028 106.259 96.922 106.309 97.855H104.035V95.581ZM326.215 104.296C326.974 104.715 325.754 106.332 326.215 107.709H323.562C322.976 107.158 323.228 105.768 323.183 104.676C324.083 104.446 325.933 105.156 326.213 104.296H326.215ZM94.175 105.436C94.338 104.588 96.043 105.283 96.828 105.057V107.332C96.277 107.539 94.87 106.889 94.932 107.711C93.859 107.771 95.248 105.371 94.175 105.431V105.436ZM336.445 113.776C336.052 114.773 335.992 116.102 336.066 117.567C334.818 117.551 334.179 116.926 332.653 117.188V114.155C334.273 114.385 335.163 113.885 336.443 113.775L336.445 113.776ZM84.695 114.156C85.604 114.385 86.425 114.701 87.729 114.535C87.207 115.024 87.354 116.181 87.35 117.189H84.695V114.159V114.156ZM345.925 122.496C347.312 122.704 345.169 125.378 345.925 127.426C344.409 127.551 343.821 126.75 342.134 127.047C342.358 125.433 341.862 124.539 341.755 123.255C343.415 123.275 345.185 123.396 345.925 122.496ZM74.465 123.256C75.462 123.649 76.791 123.709 78.256 123.635V126.668C76.79 126.465 76.406 127.345 74.845 127.048C74.919 125.588 74.858 124.258 74.465 123.258V123.256ZM63.47 131.596C64.361 131.476 66.499 133.36 69.158 132.733C68.977 134.554 68.918 135.911 68.779 136.903C67.076 136.717 65.938 137.096 64.609 137.284C65.491 135.504 64.855 132.344 63.47 131.594V131.596ZM342.9 143.736H344.796V145.252H342.9V143.732V143.736ZM354.65 152.076C355.51 152.478 354.795 154.459 355.029 155.487C353.6 155.779 353.217 155.025 351.996 155.108V152.455C352.786 152.225 354.486 152.925 354.646 152.075L354.65 152.076ZM65.75 152.836H68.024V155.11H65.75V152.84V152.836ZM366.03 159.656C366.211 160.684 364.342 164.246 365.651 166.481C364.492 165.743 362.725 165.616 360.721 165.722C361.328 163.984 360.748 163.147 360.721 161.172C363.141 161.322 365.211 161.122 366.031 159.662L366.03 159.656ZM55.13 161.176C56.459 161.364 57.598 161.741 59.301 161.555V164.968C58.449 165.632 56.449 165.149 55.509 165.726C55.516 164.076 55.635 162.316 55.13 161.176ZM354.28 172.166V174.062H352.384C352.074 172.492 352.964 172.112 354.284 172.162L354.28 172.166ZM68.02 172.546V173.683C67.348 173.597 66.122 174.066 66.504 172.925C66.841 172.635 67.36 172.515 68.02 172.545V172.546ZM364.13 180.506C365.852 181.024 363.809 183.267 364.888 184.678C363.95 184.1 361.949 184.584 361.097 183.919V180.887C362.007 180.657 363.847 181.367 364.127 180.507L364.13 180.506ZM55.89 181.646C56.172 180.791 58.018 181.498 58.924 181.267V183.92H56.27C56.051 183.26 56.729 181.7 55.89 181.65V181.646ZM352.38 191.506C353.372 191.4 354.011 191.645 353.898 192.643C352.908 192.743 351.998 192.763 352.378 191.503L352.38 191.506ZM364.13 199.846C364.991 200.248 364.275 202.229 364.509 203.258C363.103 203.527 362.882 202.61 361.476 202.878V200.225C362.266 199.995 363.966 200.695 364.126 199.845L364.13 199.846ZM56.27 200.606H58.545C58.91 202.49 57.973 203.068 56.27 202.88V200.61V200.606ZM44.895 207.806C46.168 208.681 47.8 209.198 50.204 208.943C49.879 210.841 49.879 211.595 50.204 213.494C47.837 213.401 45.769 213.608 44.895 215.01C45.104 213.88 46.369 209.84 44.895 207.8V207.806ZM364.515 219.186V222.598C363.608 222.369 362.786 222.053 361.482 222.219V219.565C362.892 219.825 363.112 218.915 364.512 219.185L364.515 219.186ZM56.275 219.556C57.433 219.283 57.657 219.944 58.55 219.936V221.832C57.999 222.039 56.59 221.389 56.654 222.211C55.806 222.051 56.5 220.341 56.275 219.551V219.556ZM352.385 229.796C352.986 229.827 353.832 229.614 353.903 230.177C354.313 231.507 351.573 231.197 352.383 229.797L352.385 229.796ZM364.895 237.756C364.889 239.405 364.77 241.167 365.274 242.305C363.872 242.066 363.018 241.277 361.104 241.547V238.135C362.714 238.365 363.614 237.865 364.894 237.755L364.895 237.756ZM55.895 238.136C56.804 238.365 57.625 238.681 58.929 238.516V241.169C57.499 240.878 57.117 241.632 55.895 241.548V238.138V238.136ZM352.385 248.376H354.281V250.652C353.841 250.333 353.263 250.151 352.385 250.272V248.372V248.376ZM66.505 248.756C67.104 248.787 67.95 248.573 68.021 249.135C68.435 250.465 65.696 250.156 66.505 248.756ZM55.13 256.336C56.532 256.576 57.388 257.365 59.301 257.095C59.227 258.559 59.287 259.888 59.68 260.885C57.568 260.922 55.573 261.076 54.751 262.403C54.282 261.123 56.389 258.583 55.13 256.333V256.336ZM355.41 266.576C354.669 267.506 355.03 269.763 355.789 270.368C355.044 271.211 353.274 269.871 351.618 270.368V266.955C353.308 267.255 353.898 266.445 355.408 266.575L355.41 266.576ZM65.75 266.956C66.641 267.077 67.173 267.556 68.404 267.337V269.99C67.618 270.216 65.914 269.521 65.75 270.369C64.759 269.719 66.285 268.409 65.75 266.959V266.956ZM342.52 276.816H345.174V279.469C344.283 279.348 343.75 278.87 342.52 279.09V276.82V276.816ZM75.98 277.196H77.497C77.946 278.91 76.612 278.84 75.601 279.092C75.48 278.202 75.662 277.632 75.98 277.192V277.196ZM333.42 286.666H334.938V288.562C334.599 288.267 334.081 288.154 333.42 288.183V286.663V286.666ZM74.47 294.636C75.651 295.098 76.873 295.519 78.642 295.394C77.646 296.5 78.978 297.579 78.642 299.185C76.162 298.853 75.044 299.886 73.333 300.322C74.49 299.192 74.587 297.022 74.47 294.632V294.636ZM332.28 309.036C331.668 308.52 332.672 306.416 332.28 304.865C333.849 304.918 335.21 304.76 336.072 304.106C336.741 306.09 336.326 309.161 337.968 310.172C337.208 310.412 334.248 307.592 332.278 309.032L332.28 309.036ZM84.32 304.866C85.882 304.568 86.267 305.448 87.733 305.245C87.471 306.77 88.096 307.409 88.112 308.657C86.561 308.749 84.457 308.288 83.941 309.416C83.178 308.506 84.914 306.866 84.32 304.866ZM322.81 318.136C322.544 316.48 323.455 316.001 323.189 314.345C324.654 314.42 325.983 314.359 326.98 313.966C326.035 315.486 327.035 317.815 327.738 318.894C326.908 319.324 324.918 317.684 322.808 318.134L322.81 318.136ZM93.8 314.346C95.047 314.362 95.687 314.987 97.213 314.726C97.438 315.511 96.744 317.215 97.592 317.379C96.494 318.051 94.688 318.015 93.421 318.516C93.874 317.456 93.838 315.906 93.8 314.346ZM103.657 323.826C104.208 324.412 105.596 324.16 106.689 324.205C106.427 325.73 107.052 326.369 107.068 327.618C105.365 327.431 104.227 327.809 102.897 327.997C103.107 326.557 103.817 325.627 103.657 323.827V323.826ZM312.947 327.996C313.339 326.999 313.401 325.669 313.326 324.204C314.982 324.47 315.462 323.559 317.118 323.825C317.154 325.937 317.307 327.932 318.635 328.754C317.605 329.144 314.925 326.734 312.945 327.994L312.947 327.996ZM112.757 333.306C114.041 333.411 114.934 333.909 116.549 333.685C116.324 335.298 116.82 336.193 116.928 337.475C115.481 336.823 113.327 337.29 112.378 338.235C111.698 337.275 113.348 335.425 112.758 333.305L112.757 333.306ZM133.227 334.446H134.366V335.963C133.106 336.333 133.126 335.433 133.226 334.443L133.227 334.446ZM285.647 334.446H287.163C287.132 334.984 287.101 335.52 287.543 335.583C287.605 336.406 286.198 335.755 285.647 335.963V334.443V334.446ZM275.787 343.546H278.061C277.758 344.86 278.626 345.003 278.44 346.199H275.408C275.938 345.709 275.788 344.549 275.788 343.549L275.787 343.546ZM142.327 343.926H144.601V345.821C144.05 346.029 142.641 345.378 142.706 346.201C141.866 346.151 142.546 344.591 142.326 343.931L142.327 343.926ZM268.967 352.266C269.855 353.146 268.89 355.879 270.104 356.437C269.456 356.937 266.913 356.106 265.175 356.437C265.585 355.33 266.025 354.251 265.933 352.645C266.833 352.405 268.683 353.115 268.963 352.265L268.967 352.266ZM151.427 352.646H154.46C154.163 354.333 154.965 354.92 154.839 356.438C153.668 355.456 152.144 356.549 150.668 356.438C151.078 355.328 151.518 354.248 151.428 352.648L151.427 352.646ZM171.147 353.396H173.043V355.292H170.768C171.088 354.852 171.268 354.272 171.148 353.392L171.147 353.396ZM190.487 353.396H191.624V354.913C190.354 355.293 190.374 354.393 190.484 353.393L190.487 353.396ZM228.777 353.396H229.915V354.913C228.645 355.293 228.665 354.393 228.775 353.393L228.777 353.396ZM247.357 353.396H249.253C248.978 354.556 249.906 354.512 249.632 355.67H247.357C247.347 354.92 247.347 354.16 247.347 353.4L247.357 353.396ZM179.867 362.116H183.278C183.007 364.028 183.797 364.883 184.036 366.285C182.948 365.567 180.257 365.867 179.108 366.285C179.318 364.855 180.028 363.925 179.868 362.115L179.867 362.116ZM236.357 366.286C236.564 364.851 237.273 363.919 237.115 362.117H240.906C240.893 363.771 240.765 365.541 241.664 366.286C241.014 366.616 237.894 365.206 236.354 366.286H236.357ZM199.207 362.496H202.239C201.979 364.02 202.602 364.66 202.618 365.907C201.331 365.254 199.84 365.644 198.449 365.907C198.849 364.927 199.369 364.057 199.209 362.497L199.207 362.496ZM218.157 362.496H221.189C221.222 363.727 221.386 364.828 221.949 365.528C220.847 366.373 219.274 365.055 217.778 365.907C217.798 364.667 218.418 364.027 218.158 362.497L218.157 362.496Z" fill="#C8B800"/>
<path d="M423.197 421.663C422.806 422.053 422.173 422.053 421.783 421.663L415.419 415.299C415.028 414.909 415.028 414.276 415.419 413.885C415.809 413.495 416.442 413.494 416.833 413.885L422.49 419.541L428.147 413.884C428.537 413.494 429.17 413.494 429.561 413.884C429.951 414.275 429.951 414.908 429.561 415.298L423.197 421.663ZM423.49 0.985287V420.956L421.49 420.956V0.985416L423.49 0.985287Z" fill="black"/>
<path d="M421.292 0.314949C421.682 -0.0802056 422.315 -0.0877128 422.706 0.298181L429.069 6.58669C429.46 6.97258 429.46 7.60575 429.069 8.0009C428.679 8.39605 428.046 8.40356 427.655 8.01767L421.999 2.42789L416.342 8.15181C415.952 8.54697 415.319 8.55447 414.928 8.16858C414.538 7.78269 414.538 7.14952 414.928 6.75437L421.292 0.314949ZM420.999 420.999L420.999 1.02553L422.999 1.00182L422.999 420.975L420.999 420.999Z" fill="black"/>
<path d="M440.673 174.182H442.67L447.366 185.652H447.528L452.224 174.182H454.222V188H452.656V177.501H452.521L448.203 188H446.692L442.374 177.501H442.239V188H440.673V174.182ZM457.361 188V177.636H458.953V188H457.361ZM458.17 175.909C457.86 175.909 457.592 175.803 457.367 175.592C457.147 175.381 457.037 175.126 457.037 174.83C457.037 174.533 457.147 174.279 457.367 174.067C457.592 173.856 457.86 173.75 458.17 173.75C458.481 173.75 458.746 173.856 458.967 174.067C459.191 174.279 459.304 174.533 459.304 174.83C459.304 175.126 459.191 175.381 458.967 175.592C458.746 175.803 458.481 175.909 458.17 175.909ZM466.08 188.216C465.108 188.216 464.271 187.987 463.57 187.528C462.868 187.069 462.328 186.437 461.95 185.632C461.573 184.827 461.384 183.907 461.384 182.872C461.384 181.82 461.577 180.891 461.964 180.086C462.355 179.276 462.9 178.644 463.597 178.19C464.298 177.731 465.117 177.501 466.053 177.501C466.781 177.501 467.438 177.636 468.023 177.906C468.608 178.176 469.087 178.554 469.46 179.04C469.833 179.526 470.065 180.092 470.155 180.74H468.563C468.441 180.268 468.171 179.849 467.753 179.485C467.339 179.116 466.781 178.932 466.08 178.932C465.459 178.932 464.915 179.094 464.447 179.418C463.984 179.737 463.622 180.189 463.361 180.774C463.104 181.354 462.976 182.036 462.976 182.818C462.976 183.619 463.102 184.316 463.354 184.91C463.61 185.504 463.97 185.965 464.433 186.293C464.901 186.621 465.45 186.786 466.08 186.786C466.494 186.786 466.869 186.714 467.206 186.57C467.544 186.426 467.829 186.219 468.063 185.949C468.297 185.679 468.464 185.355 468.563 184.977H470.155C470.065 185.589 469.842 186.14 469.487 186.63C469.136 187.116 468.671 187.503 468.09 187.791C467.515 188.074 466.844 188.216 466.08 188.216ZM472.483 188V177.636H474.021V179.202H474.129C474.318 178.689 474.66 178.273 475.155 177.953C475.649 177.634 476.207 177.474 476.828 177.474C476.945 177.474 477.091 177.477 477.267 177.481C477.442 177.486 477.575 177.492 477.665 177.501V179.121C477.611 179.107 477.487 179.087 477.294 179.06C477.105 179.029 476.904 179.013 476.693 179.013C476.189 179.013 475.739 179.118 475.344 179.33C474.952 179.537 474.642 179.825 474.412 180.194C474.188 180.558 474.075 180.974 474.075 181.442V188H472.483ZM483.447 188.216C482.511 188.216 481.69 187.993 480.984 187.548C480.282 187.103 479.734 186.48 479.338 185.679C478.947 184.878 478.751 183.943 478.751 182.872C478.751 181.793 478.947 180.85 479.338 180.045C479.734 179.24 480.282 178.615 480.984 178.169C481.69 177.724 482.511 177.501 483.447 177.501C484.383 177.501 485.201 177.724 485.903 178.169C486.609 178.615 487.158 179.24 487.549 180.045C487.945 180.85 488.143 181.793 488.143 182.872C488.143 183.943 487.945 184.878 487.549 185.679C487.158 186.48 486.609 187.103 485.903 187.548C485.201 187.993 484.383 188.216 483.447 188.216ZM483.447 186.786C484.158 186.786 484.742 186.603 485.201 186.239C485.66 185.875 486 185.396 486.22 184.802C486.44 184.208 486.551 183.565 486.551 182.872C486.551 182.179 486.44 181.534 486.22 180.936C486 180.337 485.66 179.854 485.201 179.485C484.742 179.116 484.158 178.932 483.447 178.932C482.736 178.932 482.151 179.116 481.693 179.485C481.234 179.854 480.894 180.337 480.674 180.936C480.453 181.534 480.343 182.179 480.343 182.872C480.343 183.565 480.453 184.208 480.674 184.802C480.894 185.396 481.234 185.875 481.693 186.239C482.151 186.603 482.736 186.786 483.447 186.786ZM499.831 188.216C498.967 188.216 498.205 187.998 497.543 187.561C496.882 187.121 496.365 186.5 495.992 185.699C495.618 184.894 495.432 183.943 495.432 182.845C495.432 181.757 495.618 180.812 495.992 180.011C496.365 179.211 496.884 178.592 497.55 178.156C498.216 177.72 498.985 177.501 499.858 177.501C500.532 177.501 501.065 177.614 501.457 177.839C501.853 178.059 502.154 178.311 502.361 178.594C502.572 178.873 502.736 179.103 502.853 179.283H502.988V174.182H504.581V188H503.042V186.408H502.853C502.736 186.597 502.57 186.835 502.354 187.123C502.138 187.406 501.83 187.66 501.43 187.885C501.029 188.106 500.496 188.216 499.831 188.216ZM500.047 186.786C500.685 186.786 501.225 186.619 501.666 186.286C502.107 185.949 502.442 185.483 502.671 184.89C502.901 184.291 503.015 183.601 503.015 182.818C503.015 182.045 502.903 181.368 502.678 180.787C502.453 180.203 502.12 179.748 501.679 179.424C501.239 179.096 500.694 178.932 500.047 178.932C499.372 178.932 498.81 179.105 498.36 179.451C497.915 179.793 497.579 180.259 497.354 180.848C497.134 181.433 497.024 182.089 497.024 182.818C497.024 183.556 497.136 184.226 497.361 184.829C497.591 185.427 497.928 185.904 498.373 186.259C498.823 186.61 499.381 186.786 500.047 186.786ZM514.249 183.763V177.636H515.842V188H514.249V186.246H514.141C513.899 186.772 513.521 187.22 513.008 187.588C512.495 187.953 511.847 188.135 511.065 188.135C510.417 188.135 509.841 187.993 509.337 187.71C508.834 187.422 508.438 186.99 508.15 186.414C507.862 185.834 507.718 185.103 507.718 184.222V177.636H509.31V184.114C509.31 184.869 509.522 185.472 509.945 185.922C510.372 186.372 510.916 186.597 511.578 186.597C511.973 186.597 512.376 186.495 512.785 186.293C513.199 186.091 513.545 185.78 513.824 185.362C514.108 184.944 514.249 184.411 514.249 183.763ZM526.099 179.957L524.669 180.362C524.579 180.124 524.446 179.892 524.271 179.667C524.1 179.438 523.866 179.249 523.569 179.1C523.272 178.952 522.892 178.878 522.429 178.878C521.794 178.878 521.266 179.024 520.843 179.316C520.425 179.604 520.216 179.971 520.216 180.416C520.216 180.812 520.359 181.125 520.647 181.354C520.935 181.583 521.385 181.775 521.997 181.928L523.535 182.305C524.462 182.53 525.152 182.874 525.607 183.338C526.061 183.797 526.288 184.388 526.288 185.112C526.288 185.706 526.117 186.237 525.775 186.705C525.438 187.172 524.966 187.541 524.358 187.811C523.751 188.081 523.045 188.216 522.24 188.216C521.183 188.216 520.308 187.987 519.615 187.528C518.922 187.069 518.484 186.399 518.299 185.517L519.811 185.139C519.955 185.697 520.227 186.115 520.627 186.394C521.032 186.673 521.56 186.812 522.213 186.812C522.955 186.812 523.544 186.655 523.98 186.34C524.421 186.021 524.642 185.638 524.642 185.193C524.642 184.833 524.516 184.532 524.264 184.289C524.012 184.042 523.625 183.857 523.103 183.736L521.376 183.331C520.427 183.106 519.73 182.757 519.284 182.285C518.844 181.808 518.623 181.212 518.623 180.497C518.623 179.912 518.787 179.395 519.116 178.945C519.449 178.496 519.901 178.142 520.472 177.886C521.048 177.63 521.7 177.501 522.429 177.501C523.454 177.501 524.259 177.726 524.844 178.176C525.433 178.626 525.852 179.22 526.099 179.957ZM533.192 177.636V178.986H527.821V177.636H533.192ZM529.387 175.153H530.979V185.031C530.979 185.481 531.044 185.818 531.175 186.043C531.31 186.264 531.48 186.412 531.687 186.489C531.899 186.561 532.121 186.597 532.355 186.597C532.531 186.597 532.675 186.588 532.787 186.57C532.9 186.547 532.99 186.529 533.057 186.516L533.381 187.946C533.273 187.987 533.122 188.027 532.929 188.067C532.735 188.112 532.49 188.135 532.193 188.135C531.744 188.135 531.303 188.038 530.871 187.845C530.444 187.651 530.088 187.357 529.805 186.961C529.526 186.565 529.387 186.066 529.387 185.463V175.153ZM445.288 197.182V211H443.615V198.936H443.534L440.161 201.176V199.476L443.615 197.182H445.288ZM453.77 211.189C452.753 211.189 451.887 210.912 451.172 210.359C450.457 209.801 449.91 208.994 449.532 207.937C449.154 206.875 448.966 205.593 448.966 204.091C448.966 202.598 449.154 201.322 449.532 200.265C449.915 199.204 450.463 198.394 451.179 197.836C451.898 197.274 452.762 196.993 453.77 196.993C454.777 196.993 455.638 197.274 456.354 197.836C457.073 198.394 457.622 199.204 458 200.265C458.382 201.322 458.574 202.598 458.574 204.091C458.574 205.593 458.385 206.875 458.007 207.937C457.629 208.994 457.082 209.801 456.367 210.359C455.652 210.912 454.786 211.189 453.77 211.189ZM453.77 209.705C454.777 209.705 455.56 209.219 456.118 208.247C456.675 207.276 456.954 205.89 456.954 204.091C456.954 202.894 456.826 201.876 456.57 201.034C456.318 200.193 455.953 199.552 455.477 199.112C455.004 198.671 454.435 198.45 453.77 198.45C452.771 198.45 451.991 198.943 451.428 199.928C450.866 200.908 450.585 202.296 450.585 204.091C450.585 205.287 450.711 206.304 450.963 207.141C451.215 207.977 451.577 208.614 452.049 209.05C452.526 209.486 453.099 209.705 453.77 209.705ZM461.164 214.886V200.636H462.757V206.763C462.757 207.325 462.874 207.82 463.108 208.247C463.346 208.67 463.679 209.001 464.106 209.239C464.538 209.477 465.042 209.597 465.618 209.597C466.193 209.597 466.695 209.477 467.122 209.239C467.554 208.996 467.887 208.663 468.121 208.24C468.359 207.813 468.478 207.321 468.478 206.763V200.636H470.071V211H468.478V209.462H468.397C468.118 210.006 467.729 210.422 467.23 210.71C466.731 210.993 466.193 211.135 465.618 211.135C465.042 211.135 464.504 210.993 464.005 210.71C463.51 210.422 463.121 210.006 462.838 209.462H462.757V214.886H461.164ZM472.984 211V200.636H474.522V202.256H474.657C474.873 201.702 475.222 201.273 475.703 200.967C476.184 200.657 476.762 200.501 477.437 200.501C478.121 200.501 478.69 200.657 479.144 200.967C479.603 201.273 479.96 201.702 480.217 202.256H480.325C480.59 201.72 480.988 201.295 481.519 200.98C482.05 200.661 482.686 200.501 483.428 200.501C484.355 200.501 485.113 200.792 485.702 201.372C486.291 201.948 486.586 202.845 486.586 204.064V211H484.994V204.064C484.994 203.299 484.785 202.753 484.366 202.424C483.948 202.096 483.455 201.932 482.889 201.932C482.16 201.932 481.595 202.152 481.195 202.593C480.795 203.029 480.595 203.583 480.595 204.253V211H478.975V203.902C478.975 203.313 478.784 202.838 478.402 202.478C478.019 202.114 477.527 201.932 476.924 201.932C476.51 201.932 476.123 202.042 475.764 202.262C475.408 202.483 475.12 202.789 474.9 203.18C474.684 203.567 474.576 204.014 474.576 204.523V211H472.984Z" fill="black"/>
</svg>
