<svg width="340" height="814" viewBox="0 0 340 814" fill="none" xmlns="http://www.w3.org/2000/svg">
<path d="M168.678 0.192871C206.021 0.192871 236.424 30.596 236.424 67.939C236.424 105.282 206.021 135.685 168.678 135.685C131.335 135.685 100.932 105.282 100.932 67.939C100.932 30.596 131.335 0.192871 168.678 0.192871ZM253.939 153.2H84.7391C37.8125 153.2 0.139038 190.873 0.139038 237.8V444.673C0.139038 460.866 13.0273 474.416 29.8812 474.416C46.7351 474.416 59.6234 461.527 59.6234 444.673V254.654C59.6234 250.027 63.5891 246.062 68.2156 246.062C72.8422 246.062 76.8077 250.027 76.8077 254.654V767.541C76.8077 792.987 95.6445 813.807 119.108 813.807C142.571 813.807 161.408 792.987 161.408 767.541V475.077C161.408 470.45 165.373 466.484 170 466.484C174.627 466.484 178.592 470.45 178.592 475.077V767.541C178.592 792.987 197.429 813.807 220.892 813.807C244.355 813.807 263.192 792.987 263.192 767.541V254.654C263.192 250.027 267.158 246.062 271.784 246.062C276.411 246.062 280.376 250.027 280.376 254.654V445.004C280.376 461.197 293.265 474.746 310.119 474.746C326.973 474.746 339.861 461.858 339.861 445.004V237.8C338.539 190.873 299.874 153.2 253.939 153.2Z" fill="black"/>
</svg>
