<svg width="66" height="106" viewBox="0 0 66 106" fill="none" xmlns="http://www.w3.org/2000/svg">
<path d="M35.365 0.779472C36.8667 25.6709 30.6793 38.2003 27.3979 41.3535M27.3979 41.3535C16.9464 48.6407 20.6197 59.764 23.7628 64.4148M27.3979 41.3535C15.4764 52.8094 10.2842 42.9512 3.74086 54.8358M23.7628 64.4148C26.6636 77.8731 21.2214 88.7227 13.6213 91.7996M23.7628 64.4148C49.8873 65.7213 49.0769 79.8412 45.4062 86.7379M13.6213 91.7996C7.27148 95.7001 7.07537 101.399 8.72676 105.016M13.6213 91.7996C5.55826 90.5449 6.8016 96.9689 1.31774 99.1462M45.4062 86.7379C54.4834 96.4719 60.523 84.04 64.2957 90.0061M45.4062 86.7379C48.8925 93.8002 44.762 97.2001 48.6554 99.9327C53.2549 99.143 56.6069 103.338 59.6753 102.483" stroke="white" stroke-width="3"/>
</svg>
