<svg width="113" height="51" viewBox="0 0 113 51" fill="none" xmlns="http://www.w3.org/2000/svg">
<path d="M89 1.96216L69 11.9622L89 21.9622L109 11.9622L89 1.96216Z" fill="#F9F9F9"/>
<path d="M89 21.9619V46.9619L109 36.9619V11.9619L89 21.9619Z" fill="#ECECEC"/>
<path d="M89 21.9619V46.9619L69 36.9619V11.9619L89 21.9619Z" fill="#CCCCCC"/>
<path d="M89 1.97495L69 11.9749V36.9749L89 46.9749L109 36.9749V11.9749L89 1.97495Z" stroke="#4D4D4D"/>
<path d="M51.2931 49.6994C51.6835 50.0999 52.3165 50.1162 52.7069 49.7357L59.0687 43.5349C59.4591 43.1544 59.4591 42.5212 59.0687 42.1207C58.6783 41.7201 58.0454 41.7039 57.655 42.0844L52 47.5962L46.345 41.7943C45.9546 41.3938 45.3217 41.3775 44.9313 41.758C44.5409 42.1385 44.5409 42.7717 44.9313 43.1723L51.2931 49.6994ZM51.0003 0.974359L51.0003 48.9848L52.9997 49.0361L52.9997 1.02564L51.0003 0.974359Z" fill="black"/>
<path d="M52.7071 0.331322C52.3166 -0.0592018 51.6834 -0.0592018 51.2929 0.331322L44.9289 6.69528C44.5384 7.08581 44.5384 7.71897 44.9289 8.1095C45.3195 8.50002 45.9526 8.50002 46.3431 8.1095L52 2.45264L57.6569 8.1095C58.0474 8.50002 58.6805 8.50002 59.0711 8.1095C59.4616 7.71897 59.4616 7.08581 59.0711 6.69528L52.7071 0.331322ZM53 48.972L53 1.03843H51L51 48.972H53Z" fill="black"/>
<path d="M1.41477 13H0.306818L3.51136 4.27273H4.60227L7.80682 13H6.69886L4.09091 5.65341H4.02273L1.41477 13ZM1.82386 9.59091H6.28977V10.5284H1.82386V9.59091ZM18.5071 7C18.4134 6.71307 18.2898 6.45597 18.1364 6.22869C17.9858 5.99858 17.8054 5.80256 17.5952 5.64062C17.3878 5.47869 17.152 5.35511 16.8878 5.26989C16.6236 5.18466 16.3338 5.14205 16.0185 5.14205C15.5014 5.14205 15.0313 5.27557 14.608 5.54261C14.1847 5.80966 13.848 6.20312 13.598 6.72301C13.348 7.2429 13.223 7.88068 13.223 8.63636C13.223 9.39205 13.3494 10.0298 13.6023 10.5497C13.8551 11.0696 14.1974 11.4631 14.6293 11.7301C15.0611 11.9972 15.5469 12.1307 16.0866 12.1307C16.5866 12.1307 17.027 12.0241 17.4077 11.8111C17.7912 11.5952 18.0895 11.2912 18.3026 10.8991C18.5185 10.5043 18.6264 10.0398 18.6264 9.50568L18.9503 9.57386H16.3253V8.63636H19.6491V9.57386C19.6491 10.2926 19.4957 10.9176 19.1889 11.4489C18.8849 11.9801 18.4645 12.392 17.9276 12.6847C17.3935 12.9744 16.7798 13.1193 16.0866 13.1193C15.3139 13.1193 14.6349 12.9375 14.0497 12.5739C13.4673 12.2102 13.0128 11.6932 12.6861 11.0227C12.3622 10.3523 12.2003 9.55682 12.2003 8.63636C12.2003 7.94602 12.2926 7.32528 12.4773 6.77415C12.6648 6.22017 12.929 5.74858 13.2699 5.35938C13.6108 4.97017 14.0142 4.67188 14.4801 4.46449C14.946 4.2571 15.4588 4.15341 16.0185 4.15341C16.4787 4.15341 16.9077 4.22301 17.3054 4.36222C17.706 4.49858 18.0625 4.69318 18.375 4.94602C18.6903 5.19602 18.9531 5.49574 19.1634 5.84517C19.3736 6.19176 19.5185 6.5767 19.598 7H18.5071ZM21.3228 13V6.45455H22.2944V7.44318H22.3626C22.4819 7.11932 22.6978 6.85653 23.0103 6.65483C23.3228 6.45312 23.6751 6.35227 24.0671 6.35227C24.141 6.35227 24.2333 6.35369 24.3441 6.35653C24.4549 6.35937 24.5387 6.36364 24.5955 6.36932V7.39205C24.5614 7.38352 24.4833 7.37074 24.3612 7.35369C24.2418 7.33381 24.1154 7.32386 23.9819 7.32386C23.6637 7.32386 23.3796 7.39062 23.1296 7.52415C22.8825 7.65483 22.6864 7.83665 22.5415 8.0696C22.3995 8.29972 22.3285 8.5625 22.3285 8.85795V13H21.3228ZM27.7138 13.1534C27.299 13.1534 26.9226 13.0753 26.5845 12.919C26.2464 12.7599 25.978 12.5312 25.7791 12.233C25.5803 11.9318 25.4808 11.5682 25.4808 11.142C25.4808 10.767 25.5547 10.4631 25.7024 10.2301C25.8501 9.99432 26.0476 9.80966 26.2947 9.67614C26.5419 9.54261 26.8146 9.44318 27.1129 9.37784C27.4141 9.30966 27.7166 9.25568 28.0206 9.21591C28.4183 9.16477 28.7408 9.12642 28.9879 9.10085C29.2379 9.07244 29.4197 9.02557 29.5334 8.96023C29.6499 8.89489 29.7081 8.78125 29.7081 8.61932V8.58523C29.7081 8.16477 29.593 7.83807 29.3629 7.60511C29.1357 7.37216 28.7905 7.25568 28.3274 7.25568C27.8473 7.25568 27.4709 7.3608 27.1982 7.57102C26.9254 7.78125 26.7337 8.00568 26.6229 8.24432L25.6683 7.90341C25.8388 7.50568 26.0661 7.19602 26.3501 6.97443C26.6371 6.75 26.9496 6.59375 27.2876 6.50568C27.6286 6.41477 27.9638 6.36932 28.2933 6.36932C28.5036 6.36932 28.745 6.39489 29.0178 6.44602C29.2933 6.49432 29.5589 6.59517 29.8146 6.74858C30.0732 6.90199 30.2876 7.13352 30.4581 7.44318C30.6286 7.75284 30.7138 8.16761 30.7138 8.6875V13H29.7081V12.1136H29.657C29.5888 12.2557 29.4751 12.4077 29.3161 12.5696C29.157 12.7315 28.9453 12.8693 28.6811 12.983C28.4169 13.0966 28.0945 13.1534 27.7138 13.1534ZM27.8672 12.25C28.2649 12.25 28.6001 12.1719 28.8729 12.0156C29.1484 11.8594 29.3558 11.6577 29.495 11.4105C29.6371 11.1634 29.7081 10.9034 29.7081 10.6307V9.71023C29.6655 9.76136 29.5717 9.80824 29.4268 9.85085C29.2848 9.89062 29.12 9.92614 28.9325 9.95739C28.7479 9.9858 28.5675 10.0114 28.3913 10.0341C28.218 10.054 28.0774 10.071 27.9695 10.0852C27.7081 10.1193 27.4638 10.1747 27.2365 10.2514C27.0121 10.3253 26.8303 10.4375 26.6911 10.5881C26.5547 10.7358 26.4865 10.9375 26.4865 11.1932C26.4865 11.5426 26.6158 11.8068 26.8743 11.9858C27.1357 12.1619 27.4666 12.25 27.8672 12.25ZM32.5494 13V6.45455H33.555V13H32.5494ZM33.0607 5.36364C32.8647 5.36364 32.6957 5.29688 32.5536 5.16335C32.4144 5.02983 32.3448 4.86932 32.3448 4.68182C32.3448 4.49432 32.4144 4.33381 32.5536 4.20028C32.6957 4.06676 32.8647 4 33.0607 4C33.2567 4 33.4244 4.06676 33.5636 4.20028C33.7056 4.33381 33.7766 4.49432 33.7766 4.68182C33.7766 4.86932 33.7056 5.02983 33.5636 5.16335C33.4244 5.29688 33.2567 5.36364 33.0607 5.36364ZM36.4027 9.0625V13H35.397V6.45455H36.3686V7.47727H36.4538C36.6072 7.14489 36.8402 6.87784 37.1527 6.67614C37.4652 6.47159 37.8686 6.36932 38.3629 6.36932C38.8061 6.36932 39.1939 6.46023 39.5263 6.64205C39.8587 6.82102 40.1172 7.09375 40.3018 7.46023C40.4865 7.82386 40.5788 8.28409 40.5788 8.84091V13H39.5732V8.90909C39.5732 8.39489 39.4396 7.99432 39.1726 7.70739C38.9055 7.41761 38.5391 7.27273 38.0732 7.27273C37.7521 7.27273 37.4652 7.34233 37.2124 7.48153C36.9624 7.62074 36.7649 7.82386 36.62 8.09091C36.4751 8.35795 36.4027 8.68182 36.4027 9.0625ZM3.57955 28.1364C2.98864 28.1364 2.47017 27.9957 2.02415 27.7145C1.58097 27.4332 1.23438 27.0398 0.984375 26.5341C0.737216 26.0284 0.613636 25.4375 0.613636 24.7614C0.613636 24.0795 0.737216 23.4844 0.984375 22.9759C1.23438 22.4673 1.58097 22.0724 2.02415 21.7912C2.47017 21.5099 2.98864 21.3693 3.57955 21.3693C4.17045 21.3693 4.6875 21.5099 5.13068 21.7912C5.5767 22.0724 5.9233 22.4673 6.17045 22.9759C6.42045 23.4844 6.54545 24.0795 6.54545 24.7614C6.54545 25.4375 6.42045 26.0284 6.17045 26.5341C5.9233 27.0398 5.5767 27.4332 5.13068 27.7145C4.6875 27.9957 4.17045 28.1364 3.57955 28.1364ZM3.57955 27.233C4.02841 27.233 4.39773 27.1179 4.6875 26.8878C4.97727 26.6577 5.19176 26.3551 5.33097 25.9801C5.47017 25.6051 5.53977 25.1989 5.53977 24.7614C5.53977 24.3239 5.47017 23.9162 5.33097 23.5384C5.19176 23.1605 4.97727 22.8551 4.6875 22.6222C4.39773 22.3892 4.02841 22.2727 3.57955 22.2727C3.13068 22.2727 2.76136 22.3892 2.47159 22.6222C2.18182 22.8551 1.96733 23.1605 1.82812 23.5384C1.68892 23.9162 1.61932 24.3239 1.61932 24.7614C1.61932 25.1989 1.68892 25.6051 1.82812 25.9801C1.96733 26.3551 2.18182 26.6577 2.47159 26.8878C2.76136 27.1179 3.13068 27.233 3.57955 27.233ZM10.9954 21.4545V22.3068H7.46697V21.4545H10.9954ZM8.52379 28V20.5511C8.52379 20.1761 8.61186 19.8636 8.788 19.6136C8.96413 19.3636 9.19283 19.1761 9.47408 19.0511C9.75533 18.9261 10.0522 18.8636 10.3647 18.8636C10.6119 18.8636 10.8136 18.8835 10.9698 18.9233C11.1261 18.9631 11.2425 19 11.3192 19.0341L11.0295 19.9034C10.9783 19.8864 10.9073 19.8651 10.8164 19.8395C10.7283 19.8139 10.6119 19.8011 10.467 19.8011C10.1346 19.8011 9.89453 19.8849 9.7468 20.0526C9.60192 20.2202 9.52947 20.4659 9.52947 20.7898V28H8.52379ZM20.6889 21.4545C20.6378 21.0227 20.4304 20.6875 20.0668 20.4489C19.7031 20.2102 19.2571 20.0909 18.7287 20.0909C18.3423 20.0909 18.0043 20.1534 17.7145 20.2784C17.4276 20.4034 17.2031 20.5753 17.0412 20.794C16.8821 21.0128 16.8026 21.2614 16.8026 21.5398C16.8026 21.7727 16.858 21.973 16.9688 22.1406C17.0824 22.3054 17.2273 22.4432 17.4034 22.554C17.5795 22.6619 17.7642 22.7514 17.9574 22.8224C18.1506 22.8906 18.3281 22.946 18.4901 22.9886L19.3764 23.2273C19.6037 23.2869 19.8565 23.3693 20.1349 23.4744C20.4162 23.5795 20.6847 23.723 20.9403 23.9048C21.1989 24.0838 21.4119 24.3139 21.5795 24.5952C21.7472 24.8764 21.831 25.2216 21.831 25.6307C21.831 26.1023 21.7074 26.5284 21.4602 26.9091C21.2159 27.2898 20.858 27.5923 20.3864 27.8168C19.9176 28.0412 19.348 28.1534 18.6776 28.1534C18.0526 28.1534 17.5114 28.0526 17.054 27.8509C16.5994 27.6491 16.2415 27.3679 15.9801 27.0071C15.7216 26.6463 15.5753 26.2273 15.5412 25.75H16.6321C16.6605 26.0795 16.7713 26.3523 16.9645 26.5682C17.1605 26.7812 17.4077 26.9403 17.706 27.0455C18.0071 27.1477 18.331 27.1989 18.6776 27.1989C19.081 27.1989 19.4432 27.1335 19.7642 27.0028C20.0852 26.8693 20.3395 26.6847 20.527 26.4489C20.7145 26.2102 20.8082 25.9318 20.8082 25.6136C20.8082 25.3239 20.7273 25.0881 20.5653 24.9062C20.4034 24.7244 20.1903 24.5767 19.9261 24.4631C19.6619 24.3494 19.3764 24.25 19.0696 24.1648L17.9957 23.858C17.3139 23.6619 16.7741 23.3821 16.3764 23.0185C15.9787 22.6548 15.7798 22.179 15.7798 21.5909C15.7798 21.1023 15.9119 20.6761 16.1761 20.3125C16.4432 19.946 16.8011 19.6619 17.25 19.4602C17.7017 19.2557 18.206 19.1534 18.7628 19.1534C19.3253 19.1534 19.8253 19.2543 20.2628 19.456C20.7003 19.6548 21.0469 19.9276 21.3026 20.2741C21.5611 20.6207 21.6974 21.0142 21.7116 21.4545H20.6889ZM25.3583 28.1534C24.9435 28.1534 24.5671 28.0753 24.229 27.919C23.891 27.7599 23.6225 27.5312 23.4237 27.233C23.2248 26.9318 23.1254 26.5682 23.1254 26.142C23.1254 25.767 23.1992 25.4631 23.3469 25.2301C23.4947 24.9943 23.6921 24.8097 23.9393 24.6761C24.1864 24.5426 24.4592 24.4432 24.7575 24.3778C25.0586 24.3097 25.3612 24.2557 25.6651 24.2159C26.0629 24.1648 26.3853 24.1264 26.6325 24.1009C26.8825 24.0724 27.0643 24.0256 27.1779 23.9602C27.2944 23.8949 27.3526 23.7812 27.3526 23.6193V23.5852C27.3526 23.1648 27.2376 22.8381 27.0075 22.6051C26.7802 22.3722 26.435 22.2557 25.9719 22.2557C25.4918 22.2557 25.1154 22.3608 24.8427 22.571C24.57 22.7812 24.3782 23.0057 24.2674 23.2443L23.3129 22.9034C23.4833 22.5057 23.7106 22.196 23.9947 21.9744C24.2816 21.75 24.5941 21.5937 24.9322 21.5057C25.2731 21.4148 25.6083 21.3693 25.9379 21.3693C26.1481 21.3693 26.3896 21.3949 26.6623 21.446C26.9379 21.4943 27.2035 21.5952 27.4592 21.7486C27.7177 21.902 27.9322 22.1335 28.1026 22.4432C28.2731 22.7528 28.3583 23.1676 28.3583 23.6875V28H27.3526V27.1136H27.3015C27.2333 27.2557 27.1197 27.4077 26.9606 27.5696C26.8015 27.7315 26.5898 27.8693 26.3256 27.983C26.0614 28.0966 25.739 28.1534 25.3583 28.1534ZM25.5117 27.25C25.9094 27.25 26.2447 27.1719 26.5174 27.0156C26.793 26.8594 27.0004 26.6577 27.1396 26.4105C27.2816 26.1634 27.3526 25.9034 27.3526 25.6307V24.7102C27.31 24.7614 27.2163 24.8082 27.0714 24.8509C26.9293 24.8906 26.7646 24.9261 26.5771 24.9574C26.3924 24.9858 26.212 25.0114 26.0359 25.0341C25.8626 25.054 25.7219 25.071 25.614 25.0852C25.3526 25.1193 25.1083 25.1747 24.881 25.2514C24.6566 25.3253 24.4748 25.4375 24.3356 25.5881C24.1992 25.7358 24.131 25.9375 24.131 26.1932C24.131 26.5426 24.2603 26.8068 24.5188 26.9858C24.7802 27.1619 25.1112 27.25 25.5117 27.25ZM31.1996 19.2727V28H30.1939V19.2727H31.1996ZM35.8881 21.4545V22.3068H32.4961V21.4545H35.8881ZM33.4847 19.8864H34.4904V26.125C34.4904 26.4091 34.5316 26.6222 34.614 26.7642C34.6992 26.9034 34.8072 26.9972 34.9379 27.0455C35.0714 27.0909 35.212 27.1136 35.3597 27.1136C35.4705 27.1136 35.5614 27.108 35.6325 27.0966C35.7035 27.0824 35.7603 27.071 35.8029 27.0625L36.0075 27.9659C35.9393 27.9915 35.8441 28.017 35.7219 28.0426C35.5998 28.071 35.445 28.0852 35.2575 28.0852C34.9734 28.0852 34.695 28.0241 34.4222 27.902C34.1523 27.7798 33.9279 27.5938 33.7489 27.3438C33.5728 27.0938 33.4847 26.7784 33.4847 26.3977V19.8864ZM0.903409 43V42.233L3.78409 39.0795C4.12216 38.7102 4.40057 38.3892 4.61932 38.1165C4.83807 37.8409 5 37.5824 5.10511 37.3409C5.21307 37.0966 5.26705 36.8409 5.26705 36.5739C5.26705 36.267 5.19318 36.0014 5.04545 35.777C4.90057 35.5526 4.7017 35.3793 4.44886 35.2571C4.19602 35.1349 3.91193 35.0739 3.59659 35.0739C3.26136 35.0739 2.96875 35.1435 2.71875 35.2827C2.47159 35.419 2.27983 35.6108 2.14347 35.858C2.00994 36.1051 1.94318 36.3949 1.94318 36.7273H0.9375C0.9375 36.2159 1.0554 35.767 1.29119 35.3807C1.52699 34.9943 1.84801 34.6932 2.25426 34.4773C2.66335 34.2614 3.12216 34.1534 3.63068 34.1534C4.14205 34.1534 4.59517 34.2614 4.99006 34.4773C5.38494 34.6932 5.6946 34.9844 5.91903 35.3509C6.14347 35.7173 6.25568 36.125 6.25568 36.5739C6.25568 36.8949 6.19744 37.2088 6.08097 37.5156C5.96733 37.8196 5.76847 38.1591 5.48438 38.5341C5.20312 38.9062 4.8125 39.3608 4.3125 39.8977L2.35227 41.9943V42.0625H6.40909V43H0.903409ZM11.0156 43.1193C10.3736 43.1193 9.8267 42.9446 9.375 42.5952C8.9233 42.2429 8.57813 41.733 8.33949 41.0653C8.10085 40.3949 7.98153 39.5852 7.98153 38.6364C7.98153 37.6932 8.10085 36.8878 8.33949 36.2202C8.58097 35.5497 8.92756 35.0384 9.37926 34.6861C9.83381 34.331 10.3793 34.1534 11.0156 34.1534C11.652 34.1534 12.196 34.331 12.6477 34.6861C13.1023 35.0384 13.4489 35.5497 13.6875 36.2202C13.929 36.8878 14.0497 37.6932 14.0497 38.6364C14.0497 39.5852 13.9304 40.3949 13.6918 41.0653C13.4531 41.733 13.108 42.2429 12.6562 42.5952C12.2045 42.9446 11.6577 43.1193 11.0156 43.1193ZM11.0156 42.1818C11.652 42.1818 12.1463 41.875 12.4986 41.2614C12.8509 40.6477 13.027 39.7727 13.027 38.6364C13.027 37.8807 12.946 37.2372 12.7841 36.706C12.625 36.1747 12.3949 35.7699 12.0938 35.4915C11.7955 35.2131 11.4361 35.0739 11.0156 35.0739C10.3849 35.0739 9.89205 35.3849 9.53693 36.0071C9.18182 36.6264 9.00426 37.5028 9.00426 38.6364C9.00426 39.392 9.08381 40.0341 9.2429 40.5625C9.40199 41.0909 9.63068 41.4929 9.92898 41.7685C10.2301 42.044 10.5923 42.1818 11.0156 42.1818ZM18.5156 43.1193C17.8736 43.1193 17.3267 42.9446 16.875 42.5952C16.4233 42.2429 16.0781 41.733 15.8395 41.0653C15.6009 40.3949 15.4815 39.5852 15.4815 38.6364C15.4815 37.6932 15.6009 36.8878 15.8395 36.2202C16.081 35.5497 16.4276 35.0384 16.8793 34.6861C17.3338 34.331 17.8793 34.1534 18.5156 34.1534C19.152 34.1534 19.696 34.331 20.1477 34.6861C20.6023 35.0384 20.9489 35.5497 21.1875 36.2202C21.429 36.8878 21.5497 37.6932 21.5497 38.6364C21.5497 39.5852 21.4304 40.3949 21.1918 41.0653C20.9531 41.733 20.608 42.2429 20.1562 42.5952C19.7045 42.9446 19.1577 43.1193 18.5156 43.1193ZM18.5156 42.1818C19.152 42.1818 19.6463 41.875 19.9986 41.2614C20.3509 40.6477 20.527 39.7727 20.527 38.6364C20.527 37.8807 20.446 37.2372 20.2841 36.706C20.125 36.1747 19.8949 35.7699 19.5938 35.4915C19.2955 35.2131 18.9361 35.0739 18.5156 35.0739C17.8849 35.0739 17.392 35.3849 17.0369 36.0071C16.6818 36.6264 16.5043 37.5028 16.5043 38.6364C16.5043 39.392 16.5838 40.0341 16.7429 40.5625C16.902 41.0909 17.1307 41.4929 17.429 41.7685C17.7301 42.044 18.0923 42.1818 18.5156 42.1818ZM23.1861 45.4545V36.4545H24.1918V40.3239C24.1918 40.679 24.2656 40.9915 24.4134 41.2614C24.5639 41.5284 24.7741 41.7372 25.044 41.8878C25.3168 42.0384 25.6349 42.1136 25.9986 42.1136C26.3622 42.1136 26.679 42.0384 26.9489 41.8878C27.2216 41.7344 27.4318 41.5241 27.5795 41.2571C27.7301 40.9872 27.8054 40.6761 27.8054 40.3239V36.4545H28.8111V43H27.8054V42.0284H27.7543C27.5781 42.3722 27.3324 42.6349 27.017 42.8168C26.7017 42.9957 26.3622 43.0852 25.9986 43.0852C25.6349 43.0852 25.2955 42.9957 24.9801 42.8168C24.6676 42.6349 24.4219 42.3722 24.2429 42.0284H24.1918V45.4545H23.1861ZM30.6509 43V36.4545H31.6225V37.4773H31.7077C31.8441 37.1278 32.0643 36.8565 32.3683 36.6634C32.6722 36.4673 33.0373 36.3693 33.4634 36.3693C33.8952 36.3693 34.2546 36.4673 34.5415 36.6634C34.8313 36.8565 35.0572 37.1278 35.2191 37.4773H35.2873C35.4549 37.1392 35.7063 36.8707 36.0415 36.6719C36.3768 36.4702 36.7788 36.3693 37.2475 36.3693C37.8327 36.3693 38.3114 36.5526 38.6836 36.919C39.0558 37.2827 39.2418 37.8494 39.2418 38.6193V43H38.2362V38.6193C38.2362 38.1364 38.104 37.7912 37.8398 37.5838C37.5756 37.3764 37.2646 37.2727 36.9066 37.2727C36.4464 37.2727 36.0898 37.4119 35.837 37.6903C35.5842 37.9659 35.4577 38.3153 35.4577 38.7386V43H34.435V38.517C34.435 38.1449 34.3143 37.8452 34.0728 37.6179C33.8313 37.3878 33.5202 37.2727 33.1396 37.2727C32.8782 37.2727 32.6339 37.3423 32.4066 37.4815C32.1822 37.6207 32.0004 37.8139 31.8612 38.0611C31.7248 38.3054 31.6566 38.5881 31.6566 38.9091V43H30.6509Z" fill="black"/>
</svg>
