<svg width="25" height="31" viewBox="0 0 25 31" fill="none" xmlns="http://www.w3.org/2000/svg">
<path d="M20.3845 24.359C19.7509 21.3368 17.1471 19.8563 15.1106 19.5063C14.5825 19.4145 14.228 19.9437 14.2001 20.449C14.1754 20.8932 14.4015 21.2334 14.7629 21.2955C15.7434 21.4638 18.1066 22.1225 18.8872 24.6011C19.3438 26.0515 18.954 26.7179 18.0508 27.3951C17.4919 27.0122 16.9331 26.8187 16.3887 26.8187C14.8406 26.8187 13.8063 28.3563 13.3893 29.1172C12.1778 29.2342 10.959 29.1379 9.85692 28.8392C8.82375 28.5584 7.41803 27.8915 6.58593 26.3058C5.88768 24.976 5.76759 23.2669 6.22996 21.2262C6.96395 17.9835 8.55631 15.0228 10.0962 12.1595C10.6807 11.0726 11.2853 9.94864 11.8228 8.84215C12.9383 6.54429 14.1482 3.84682 14.379 0.915779C14.404 0.59542 14.3079 0.389105 14.2222 0.272549C14.0959 0.0997316 13.9021 0 13.6909 0C13.329 0 12.9397 0.299042 12.8943 0.870558C12.7312 2.94003 11.9274 4.8739 11.1176 6.67745C10.4061 8.26211 9.59851 9.81678 8.81774 11.3207C8.53795 11.8595 8.25781 12.3986 7.98165 12.9395L7.78064 13.3326C6.12638 16.5651 4.06765 20.5881 4.53254 24.6857C4.9878 28.6983 7.73508 30.9999 12.0701 30.9999C14.4331 30.9999 16.9792 30.2534 18.7142 29.0514C20.2956 27.9553 20.8265 26.464 20.3845 24.359Z" fill="white"/>
</svg>
