<svg width="398" height="522" viewBox="0 0 398 522" fill="none" xmlns="http://www.w3.org/2000/svg">
<path d="M268.038 521.501V428.001L339.5 310.001L298 194.954M298 194.954L373 102.167C415.4 2.56703 353 46.6667 314 60.5001L246 136M298 194.954L268.038 277.5M80.2552 125L32.5237 72.2029C17.5237 31.8696 -6.21313 -10.9996 93.5 23L246 136M80.2552 125C20.4788 145.124 42.862 168.529 59.233 194.954M80.2552 125L169 194.954M113.581 243.5C102.434 236.148 68.2732 209.546 59.233 194.954M58.4353 360.499C-17.1647 387.699 81.5562 483.546 81.5562 464.5L80.2552 521.501M58.4353 360.499C60.9386 390.453 71.2834 392.105 81.5562 411.001M58.4353 360.499C28.8089 344.317 -17.8503 301.763 32.5237 261M58.4353 360.499C53.6263 302.956 92.1649 256.101 169 194.954M59.233 194.954C21.9151 212.217 21.5061 238.431 32.5237 261M59.233 294.999C49.8898 286.804 39.144 274.56 32.5237 261M169 194.954C193.628 175.355 180.258 196.15 218 179.5L246 136" stroke="black" stroke-opacity="0.2" stroke-width="20"/>
</svg>
