<svg width="193" height="131" viewBox="0 0 193 131" fill="none" xmlns="http://www.w3.org/2000/svg">
<g clip-path="url(#clip0_1_342)">
<path opacity="0.324" d="M102.001 122.215C102.001 123.184 96.7562 124.113 87.4201 124.798C78.0841 125.484 65.4217 125.869 52.2185 125.869C39.0153 125.869 26.3529 125.484 17.0168 124.798C7.68077 124.113 2.43582 123.184 2.43582 122.215C2.43582 121.246 7.68077 120.316 17.0168 119.631C26.3529 118.946 39.0153 118.561 52.2185 118.561C65.4217 118.561 78.0841 118.946 87.4201 119.631C96.7562 120.316 102.001 121.246 102.001 122.215Z" fill="url(#paint0_radial_1_342)"/>
<path d="M103.599 87.1838C78.9754 119.237 48.9223 130.572 28.2841 116.323C6.1372 101.032 -0.747213 62.203 26.9828 35.5779C51.7221 11.8243 80.5313 -0.50563 102.298 6.43879C126.136 14.0441 125.682 52.8901 103.599 87.1838Z" fill="#382509"/>
<path d="M108.061 13.1165C106.166 11.5355 103.933 10.2888 101.313 9.45296C81.3719 3.09087 53.4368 14.6078 29.1936 37.8851C2.77522 63.2508 9.8207 99.6596 30.1417 113.69C39.5384 120.178 50.8466 120.899 63.2742 116.133C75.644 111.389 88.9195 101.023 100.915 85.4725C100.964 85.3965 101.015 85.3279 101.063 85.252C110.377 70.7132 115.668 55.3522 116.77 42.302C117.879 29.1835 114.74 18.6891 108.061 13.1165Z" fill="#57401E"/>
<path fill-rule="evenodd" clip-rule="evenodd" d="M107.844 12.9688C95.6567 31.5735 77.0887 46.5367 58.5625 60.4375C42.8514 72.226 27.0814 83.0849 15.8438 95.5312C17.3773 99.1762 19.3022 102.562 21.625 105.562C31.6832 93.6335 47.793 81.8875 64.9688 69C82.5702 55.7931 101.158 41.1414 114.438 22.3438C112.937 18.5475 110.809 15.4165 108.062 13.125C107.995 13.0683 107.913 13.0245 107.844 12.9688Z" fill="#1C1203"/>
<path fill-rule="evenodd" clip-rule="evenodd" d="M107.844 12.9688C95.6567 31.5735 77.0887 46.5367 58.5625 60.4375C42.8514 72.226 27.0814 83.0849 15.8438 95.5312C17.3773 99.1762 19.3022 102.562 21.625 105.562C31.6832 93.6335 47.793 81.8875 64.9688 69C82.5702 55.7931 101.158 41.1414 114.438 22.3438C112.937 18.5475 110.809 15.4165 108.062 13.125C107.995 13.0683 107.913 13.0245 107.844 12.9688Z" fill="#1C1203"/>
<g opacity="0.324" filter="url(#filter0_f_1_342)">
<path fill-rule="evenodd" clip-rule="evenodd" d="M108.187 18.0938C95.6716 35.7131 78.0149 49.9439 60.5312 63.0625C45.4248 74.3973 30.5831 84.8075 19.8125 96.2188C20.5029 97.6628 21.2697 99.0542 22.0937 100.375C32.5534 89.071 47.2808 78.1696 63 66.375C80.0494 53.5823 97.7581 39.538 110.594 22C109.891 20.5368 109.095 19.2299 108.187 18.0938Z" fill="url(#paint1_linear_1_342)"/>
</g>
<path d="M89.3437 7.71876C71.0396 7.82231 48.8851 18.9623 29.1875 37.875C10.8303 55.5008 8.65913 78.4547 15.8437 95.5313C27.0814 83.0849 42.8514 72.226 58.5625 60.4375C77.0887 46.5367 95.6566 31.5735 107.844 12.9688C105.993 11.4675 103.838 10.2434 101.312 9.43751C97.5735 8.24462 93.5678 7.69486 89.3437 7.71876Z" fill="url(#paint2_radial_1_342)"/>
<path d="M114.437 22.3438C101.158 41.1414 82.5702 55.7931 64.9687 69C47.793 81.8875 31.6832 93.6335 21.625 105.562C24.0809 108.734 26.9695 111.487 30.1562 113.688C39.5529 120.175 50.8536 120.891 63.2812 116.125C75.651 111.381 88.911 101.02 100.906 85.4688C100.955 85.3928 101.014 85.326 101.062 85.25C110.377 70.7112 115.679 55.3627 116.781 42.3125C117.434 34.5884 116.585 27.7794 114.437 22.3438Z" fill="url(#paint3_radial_1_342)"/>
<path opacity="0.727" d="M85.2067 8.99944C68.2236 10.5201 48.0134 21.3498 29.9568 38.6869C3.98396 63.6249 11.0112 99.1824 30.7068 112.781C39.7867 119.05 50.7046 119.77 62.8943 115.093C75.0744 110.42 88.2365 100.124 100.175 84.5932C100.183 84.5809 100.199 84.5742 100.207 84.562C110.721 68.1154 115.994 50.6028 115.894 36.8433C115.844 29.9195 114.431 23.9955 111.925 19.562C109.42 15.1285 105.936 12.1095 100.988 10.5308C96.1563 8.98928 90.8681 8.49253 85.2067 8.99944Z" stroke="url(#paint4_radial_1_342)" stroke-width="2.67" stroke-linecap="round" stroke-linejoin="round"/>
</g>
<path d="M127.293 130.709C127.683 131.103 128.317 131.108 128.707 130.721L135.071 124.409C135.461 124.022 135.461 123.388 135.071 122.995C134.68 122.601 134.047 122.596 133.657 122.983L128 128.594L122.343 122.891C121.953 122.497 121.32 122.492 120.929 122.879C120.539 123.267 120.539 123.9 120.929 124.294L127.293 130.709ZM127 1.99185L127 130L129 130.016L129 2.00815L127 1.99185Z" fill="black"/>
<path d="M128.707 1.29698C128.317 0.906458 127.683 0.906458 127.293 1.29698L120.929 7.66094C120.538 8.05147 120.538 8.68463 120.929 9.07516C121.319 9.46568 121.953 9.46568 122.343 9.07516L128 3.4183L133.657 9.07516C134.047 9.46568 134.681 9.46568 135.071 9.07516C135.462 8.68463 135.462 8.05147 135.071 7.66094L128.707 1.29698ZM129 130.004V2.00409H127L127 130.004H129Z" fill="black"/>
<path d="M143.793 51.5H142.119C142.02 51.0187 141.847 50.5959 141.6 50.2315C141.357 49.8672 141.06 49.5613 140.709 49.3139C140.363 49.062 139.978 48.8731 139.555 48.7472C139.133 48.6212 138.692 48.5582 138.233 48.5582C137.396 48.5582 136.638 48.7696 135.959 49.1925C135.284 49.6153 134.747 50.2383 134.347 51.0614C133.951 51.8846 133.753 52.8944 133.753 54.0909C133.753 55.2874 133.951 56.2972 134.347 57.1204C134.747 57.9435 135.284 58.5665 135.959 58.9893C136.638 59.4122 137.396 59.6236 138.233 59.6236C138.692 59.6236 139.133 59.5606 139.555 59.4347C139.978 59.3087 140.363 59.122 140.709 58.8746C141.06 58.6228 141.357 58.3146 141.6 57.9503C141.847 57.5814 142.02 57.1586 142.119 56.6818H143.793C143.667 57.388 143.437 58.02 143.104 58.5778C142.772 59.1355 142.358 59.6101 141.863 60.0014C141.368 60.3883 140.813 60.6829 140.196 60.8853C139.585 61.0877 138.93 61.1889 138.233 61.1889C137.054 61.1889 136.006 60.901 135.089 60.3253C134.171 59.7495 133.449 58.9309 132.923 57.8693C132.397 56.8078 132.134 55.5483 132.134 54.0909C132.134 52.6335 132.397 51.3741 132.923 50.3125C133.449 49.2509 134.171 48.4323 135.089 47.8565C136.006 47.2808 137.054 46.9929 138.233 46.9929C138.93 46.9929 139.585 47.0941 140.196 47.2965C140.813 47.4989 141.368 47.7958 141.863 48.1871C142.358 48.574 142.772 49.0463 143.104 49.604C143.437 50.1573 143.667 50.7893 143.793 51.5ZM150.491 61.2159C149.555 61.2159 148.734 60.9933 148.028 60.5479C147.326 60.1026 146.778 59.4796 146.382 58.679C145.991 57.8783 145.795 56.9427 145.795 55.8722C145.795 54.7926 145.991 53.8503 146.382 53.0451C146.778 52.2399 147.326 51.6147 148.028 51.1694C148.734 50.7241 149.555 50.5014 150.491 50.5014C151.426 50.5014 152.245 50.7241 152.947 51.1694C153.653 51.6147 154.202 52.2399 154.593 53.0451C154.989 53.8503 155.187 54.7926 155.187 55.8722C155.187 56.9427 154.989 57.8783 154.593 58.679C154.202 59.4796 153.653 60.1026 152.947 60.5479C152.245 60.9933 151.426 61.2159 150.491 61.2159ZM150.491 59.7855C151.202 59.7855 151.786 59.6033 152.245 59.239C152.704 58.8746 153.044 58.3956 153.264 57.8018C153.484 57.2081 153.595 56.5649 153.595 55.8722C153.595 55.1795 153.484 54.534 153.264 53.9357C153.044 53.3375 152.704 52.8539 152.245 52.4851C151.786 52.1162 151.202 51.9318 150.491 51.9318C149.78 51.9318 149.195 52.1162 148.737 52.4851C148.278 52.8539 147.938 53.3375 147.718 53.9357C147.497 54.534 147.387 55.1795 147.387 55.8722C147.387 56.5649 147.497 57.2081 147.718 57.8018C147.938 58.3956 148.278 58.8746 148.737 59.239C149.195 59.6033 149.78 59.7855 150.491 59.7855ZM162.233 50.6364V51.9858H156.646V50.6364H162.233ZM158.319 61V49.206C158.319 48.6122 158.459 48.1174 158.738 47.7216C159.016 47.3258 159.379 47.0289 159.824 46.831C160.269 46.633 160.739 46.5341 161.234 46.5341C161.625 46.5341 161.945 46.5656 162.192 46.6286C162.44 46.6915 162.624 46.75 162.745 46.804L162.287 48.1804C162.206 48.1534 162.093 48.1197 161.949 48.0792C161.81 48.0387 161.625 48.0185 161.396 48.0185C160.87 48.0185 160.49 48.1512 160.256 48.4165C160.026 48.6819 159.912 49.071 159.912 49.5838V61H158.319ZM169.079 50.6364V51.9858H163.493V50.6364H169.079ZM165.166 61V49.206C165.166 48.6122 165.305 48.1174 165.584 47.7216C165.863 47.3258 166.225 47.0289 166.671 46.831C167.116 46.633 167.586 46.5341 168.081 46.5341C168.472 46.5341 168.791 46.5656 169.039 46.6286C169.286 46.6915 169.471 46.75 169.592 46.804L169.133 48.1804C169.052 48.1534 168.94 48.1197 168.796 48.0792C168.656 48.0387 168.472 48.0185 168.243 48.0185C167.716 48.0185 167.336 48.1512 167.102 48.4165C166.873 48.6819 166.758 49.071 166.758 49.5838V61H165.166ZM175.229 61.2159C174.231 61.2159 173.369 60.9955 172.645 60.5547C171.925 60.1094 171.37 59.4886 170.979 58.6925C170.592 57.8918 170.398 56.9607 170.398 55.8991C170.398 54.8376 170.592 53.902 170.979 53.0923C171.37 52.2782 171.914 51.6439 172.611 51.1896C173.313 50.7308 174.132 50.5014 175.067 50.5014C175.607 50.5014 176.14 50.5914 176.666 50.7713C177.193 50.9512 177.672 51.2436 178.104 51.6484C178.535 52.0488 178.88 52.5795 179.136 53.2408C179.392 53.902 179.521 54.7161 179.521 55.6832V56.358H171.532V54.9815H177.901C177.901 54.3968 177.784 53.875 177.55 53.4162C177.321 52.9574 176.993 52.5953 176.565 52.3299C176.142 52.0645 175.643 51.9318 175.067 51.9318C174.433 51.9318 173.884 52.0893 173.421 52.4041C172.962 52.7145 172.609 53.1193 172.362 53.6186C172.114 54.1179 171.991 54.6532 171.991 55.2244V56.142C171.991 56.9247 172.126 57.5882 172.396 58.1325C172.67 58.6722 173.05 59.0838 173.536 59.3672C174.022 59.6461 174.586 59.7855 175.229 59.7855C175.648 59.7855 176.025 59.727 176.363 59.6101C176.705 59.4886 176.999 59.3087 177.247 59.0703C177.494 58.8274 177.685 58.526 177.82 58.1662L179.359 58.598C179.197 59.1198 178.925 59.5786 178.542 59.9744C178.16 60.3658 177.688 60.6716 177.125 60.892C176.563 61.108 175.931 61.2159 175.229 61.2159ZM186.288 61.2159C185.289 61.2159 184.428 60.9955 183.704 60.5547C182.984 60.1094 182.429 59.4886 182.037 58.6925C181.65 57.8918 181.457 56.9607 181.457 55.8991C181.457 54.8376 181.65 53.902 182.037 53.0923C182.429 52.2782 182.973 51.6439 183.67 51.1896C184.372 50.7308 185.19 50.5014 186.126 50.5014C186.666 50.5014 187.199 50.5914 187.725 50.7713C188.251 50.9512 188.73 51.2436 189.162 51.6484C189.594 52.0488 189.938 52.5795 190.195 53.2408C190.451 53.902 190.579 54.7161 190.579 55.6832V56.358H182.59V54.9815H188.96C188.96 54.3968 188.843 53.875 188.609 53.4162C188.38 52.9574 188.051 52.5953 187.624 52.3299C187.201 52.0645 186.702 51.9318 186.126 51.9318C185.492 51.9318 184.943 52.0893 184.48 52.4041C184.021 52.7145 183.668 53.1193 183.42 53.6186C183.173 54.1179 183.049 54.6532 183.049 55.2244V56.142C183.049 56.9247 183.184 57.5882 183.454 58.1325C183.728 58.6722 184.109 59.0838 184.594 59.3672C185.08 59.6461 185.645 59.7855 186.288 59.7855C186.706 59.7855 187.084 59.727 187.421 59.6101C187.763 59.4886 188.058 59.3087 188.305 59.0703C188.553 58.8274 188.744 58.526 188.879 58.1662L190.417 58.598C190.255 59.1198 189.983 59.5786 189.601 59.9744C189.218 60.3658 188.746 60.6716 188.184 60.892C187.622 61.108 186.99 61.2159 186.288 61.2159ZM132.673 84V70.1818H137.504C138.467 70.1818 139.261 70.3482 139.886 70.6811C140.511 71.0095 140.977 71.4525 141.283 72.0103C141.589 72.5636 141.741 73.1776 141.741 73.8523C141.741 74.446 141.636 74.9363 141.424 75.3232C141.217 75.71 140.943 76.0159 140.601 76.2408C140.264 76.4657 139.897 76.6321 139.501 76.7401V76.875C139.924 76.902 140.349 77.0504 140.777 77.3203C141.204 77.5902 141.562 77.977 141.849 78.4808C142.137 78.9846 142.281 79.6009 142.281 80.3295C142.281 81.0223 142.124 81.6452 141.809 82.1985C141.494 82.7518 140.997 83.1903 140.318 83.5142C139.639 83.8381 138.755 84 137.666 84H132.673ZM134.347 82.5156H137.666C138.759 82.5156 139.535 82.3042 139.994 81.8814C140.457 81.4541 140.689 80.9368 140.689 80.3295C140.689 79.8617 140.57 79.4299 140.331 79.0341C140.093 78.6338 139.753 78.3144 139.312 78.076C138.872 77.8331 138.35 77.7116 137.747 77.7116H134.347V82.5156ZM134.347 76.2543H137.45C137.954 76.2543 138.408 76.1553 138.813 75.9574C139.223 75.7595 139.546 75.4806 139.785 75.1207C140.028 74.7609 140.149 74.3381 140.149 73.8523C140.149 73.245 139.938 72.73 139.515 72.3072C139.092 71.8799 138.422 71.6662 137.504 71.6662H134.347V76.2543ZM149.16 84.2159C148.161 84.2159 147.3 83.9955 146.576 83.5547C145.856 83.1094 145.301 82.4886 144.909 81.6925C144.522 80.8918 144.329 79.9607 144.329 78.8991C144.329 77.8376 144.522 76.902 144.909 76.0923C145.301 75.2782 145.845 74.6439 146.542 74.1896C147.244 73.7308 148.062 73.5014 148.998 73.5014C149.538 73.5014 150.071 73.5914 150.597 73.7713C151.123 73.9512 151.602 74.2436 152.034 74.6484C152.466 75.0488 152.81 75.5795 153.067 76.2408C153.323 76.902 153.451 77.7161 153.451 78.6832V79.358H145.463V77.9815H151.832C151.832 77.3968 151.715 76.875 151.481 76.4162C151.252 75.9574 150.923 75.5953 150.496 75.3299C150.073 75.0645 149.574 74.9318 148.998 74.9318C148.364 74.9318 147.815 75.0893 147.352 75.4041C146.893 75.7145 146.54 76.1193 146.292 76.6186C146.045 77.1179 145.921 77.6532 145.921 78.2244V79.142C145.921 79.9247 146.056 80.5882 146.326 81.1325C146.601 81.6722 146.981 82.0838 147.466 82.3672C147.952 82.6461 148.517 82.7855 149.16 82.7855C149.578 82.7855 149.956 82.727 150.294 82.6101C150.635 82.4886 150.93 82.3087 151.177 82.0703C151.425 81.8274 151.616 81.526 151.751 81.1662L153.289 81.598C153.127 82.1198 152.855 82.5786 152.473 82.9744C152.09 83.3658 151.618 83.6716 151.056 83.892C150.494 84.108 149.862 84.2159 149.16 84.2159ZM158.923 84.2429C158.266 84.2429 157.67 84.1192 157.135 83.8718C156.6 83.6199 156.175 83.2578 155.86 82.7855C155.545 82.3087 155.388 81.733 155.388 81.0582C155.388 80.4645 155.505 79.9832 155.738 79.6143C155.972 79.241 156.285 78.9486 156.676 78.7372C157.068 78.5258 157.499 78.3684 157.972 78.2649C158.449 78.157 158.928 78.0715 159.409 78.0085C160.039 77.9276 160.549 77.8668 160.941 77.8263C161.336 77.7814 161.624 77.7071 161.804 77.6037C161.989 77.5002 162.081 77.3203 162.081 77.0639V77.0099C162.081 76.3442 161.899 75.8269 161.534 75.4581C161.174 75.0893 160.628 74.9048 159.895 74.9048C159.135 74.9048 158.539 75.0713 158.107 75.4041C157.675 75.737 157.371 76.0923 157.196 76.4702L155.684 75.9304C155.954 75.3007 156.314 74.8104 156.764 74.4595C157.218 74.1042 157.713 73.8568 158.248 73.7173C158.788 73.5734 159.319 73.5014 159.841 73.5014C160.174 73.5014 160.556 73.5419 160.988 73.6229C161.424 73.6993 161.845 73.859 162.249 74.1019C162.659 74.3448 162.998 74.7114 163.268 75.2017C163.538 75.692 163.673 76.3487 163.673 77.1719V84H162.081V82.5966H162C161.892 82.8215 161.712 83.0621 161.46 83.3185C161.208 83.5749 160.873 83.7931 160.455 83.973C160.036 84.1529 159.526 84.2429 158.923 84.2429ZM159.166 82.8125C159.796 82.8125 160.327 82.6888 160.758 82.4414C161.195 82.194 161.523 81.8746 161.743 81.4833C161.968 81.092 162.081 80.6804 162.081 80.2486V78.7912C162.013 78.8722 161.865 78.9464 161.635 79.0138C161.411 79.0768 161.15 79.133 160.853 79.1825C160.56 79.2275 160.275 79.268 159.996 79.304C159.722 79.3355 159.499 79.3625 159.328 79.3849C158.914 79.4389 158.527 79.5266 158.167 79.6481C157.812 79.765 157.524 79.9427 157.304 80.1811C157.088 80.415 156.98 80.7344 156.98 81.1392C156.98 81.6925 157.185 82.1108 157.594 82.3942C158.008 82.6731 158.532 82.8125 159.166 82.8125ZM168.172 77.7656V84H166.579V73.6364H168.118V75.2557H168.253C168.496 74.7294 168.864 74.3066 169.359 73.9872C169.854 73.6634 170.493 73.5014 171.275 73.5014C171.977 73.5014 172.591 73.6454 173.117 73.9332C173.644 74.2166 174.053 74.6484 174.345 75.2287C174.638 75.8045 174.784 76.5331 174.784 77.4148V84H173.192V77.5227C173.192 76.7086 172.98 76.0743 172.557 75.62C172.135 75.1612 171.554 74.9318 170.817 74.9318C170.308 74.9318 169.854 75.042 169.454 75.2624C169.058 75.4828 168.745 75.8045 168.516 76.2273C168.286 76.6501 168.172 77.1629 168.172 77.7656ZM138.943 95.5455V113H136.83V97.7614H136.727L132.466 100.591V98.4432L136.83 95.5455H138.943ZM149.315 113.273C148.088 113.273 147.031 112.983 146.145 112.403C145.259 111.824 144.577 111.026 144.099 110.009C143.622 108.991 143.384 107.83 143.384 106.523C143.384 105.193 143.628 104.02 144.116 103.003C144.611 101.98 145.298 101.182 146.179 100.608C147.065 100.028 148.099 99.7386 149.281 99.7386C150.202 99.7386 151.031 99.9091 151.77 100.25C152.509 100.591 153.114 101.068 153.585 101.682C154.057 102.295 154.349 103.011 154.463 103.83H152.452C152.298 103.233 151.957 102.705 151.429 102.244C150.906 101.778 150.202 101.545 149.315 101.545C148.531 101.545 147.844 101.75 147.253 102.159C146.668 102.562 146.21 103.134 145.881 103.872C145.557 104.605 145.395 105.466 145.395 106.455C145.395 107.466 145.554 108.347 145.872 109.097C146.196 109.847 146.651 110.429 147.236 110.844C147.827 111.259 148.52 111.466 149.315 111.466C149.838 111.466 150.312 111.375 150.739 111.193C151.165 111.011 151.526 110.75 151.821 110.409C152.116 110.068 152.327 109.659 152.452 109.182H154.463C154.349 109.955 154.068 110.651 153.619 111.27C153.176 111.884 152.588 112.372 151.855 112.736C151.128 113.094 150.281 113.273 149.315 113.273ZM157.403 113V99.9091H159.347V101.955H159.517C159.79 101.256 160.23 100.713 160.838 100.327C161.446 99.9347 162.176 99.7386 163.028 99.7386C163.892 99.7386 164.611 99.9347 165.185 100.327C165.764 100.713 166.216 101.256 166.54 101.955H166.676C167.011 101.278 167.514 100.741 168.185 100.344C168.855 99.9403 169.659 99.7386 170.597 99.7386C171.767 99.7386 172.724 100.105 173.469 100.838C174.213 101.565 174.585 102.699 174.585 104.239V113H172.574V104.239C172.574 103.273 172.31 102.582 171.781 102.168C171.253 101.753 170.631 101.545 169.915 101.545C168.994 101.545 168.281 101.824 167.776 102.381C167.27 102.932 167.017 103.631 167.017 104.477V113H164.972V104.034C164.972 103.29 164.73 102.69 164.247 102.236C163.764 101.776 163.142 101.545 162.381 101.545C161.858 101.545 161.369 101.685 160.915 101.963C160.466 102.241 160.102 102.628 159.824 103.122C159.551 103.611 159.415 104.176 159.415 104.818V113H157.403Z" fill="black"/>
<defs>
<filter id="filter0_f_1_342" x="15.1906" y="13.4719" width="100.025" height="91.5249" filterUnits="userSpaceOnUse" color-interpolation-filters="sRGB">
<feFlood flood-opacity="0" result="BackgroundImageFix"/>
<feBlend mode="normal" in="SourceGraphic" in2="BackgroundImageFix" result="shape"/>
<feGaussianBlur stdDeviation="2.31092" result="effect1_foregroundBlur_1_342"/>
</filter>
<radialGradient id="paint0_radial_1_342" cx="0" cy="0" r="1" gradientUnits="userSpaceOnUse" gradientTransform="translate(52.2144 122.215) scale(49.7799 3.65357)">
<stop/>
<stop offset="1" stop-opacity="0"/>
</radialGradient>
<linearGradient id="paint1_linear_1_342" x1="57.988" y1="52.727" x2="74.59" y2="73.55" gradientUnits="userSpaceOnUse">
<stop stop-color="#B3925D" stop-opacity="0"/>
<stop offset="0.5" stop-color="#8F6B32"/>
<stop offset="1" stop-color="#B3925D" stop-opacity="0"/>
</linearGradient>
<radialGradient id="paint2_radial_1_342" cx="0" cy="0" r="1" gradientUnits="userSpaceOnUse" gradientTransform="translate(59.9452 70.7081) rotate(-33.1215) scale(131.791 43.9069)">
<stop stop-color="#382509"/>
<stop offset="1" stop-color="#6C5125"/>
</radialGradient>
<radialGradient id="paint3_radial_1_342" cx="0" cy="0" r="1" gradientUnits="userSpaceOnUse" gradientTransform="translate(65.419 122.831) rotate(-29.8401) scale(139.495 48.4333)">
<stop stop-color="#382509"/>
<stop offset="1" stop-color="#5E4114"/>
</radialGradient>
<radialGradient id="paint4_radial_1_342" cx="0" cy="0" r="1" gradientUnits="userSpaceOnUse" gradientTransform="translate(66.7078 -1.06429) rotate(-0.700104) scale(117.182 55.991)">
<stop stop-color="#EEEEEE" stop-opacity="0.453"/>
<stop offset="1" stop-color="#EEEEEE" stop-opacity="0"/>
</radialGradient>
<clipPath id="clip0_1_342">
<rect width="128" height="128" fill="white"/>
</clipPath>
</defs>
</svg>
