<svg width="277" height="188" viewBox="0 0 277 188" fill="none" xmlns="http://www.w3.org/2000/svg">
<path d="M71.625 44.89C51.625 49.89 26.625 39.89 21.625 79.89C16.625 119.89 51.625 194.89 81.625 184.89C96.625 179.89 91.625 179.89 111.62 184.89C151.62 194.89 191.62 95.89 171.62 64.89C151.62 34.89 111.62 34.89 71.625 44.89Z" fill="url(#paint0_radial_1_511)" stroke="black" stroke-width="1.33333"/>
<path d="M96.625 49.89C86.625 19.89 61.625 4.89 36.625 4.89C26.625 4.89 16.625 4.89 1.625 9.89C16.625 19.89 26.625 34.89 46.625 34.89C61.625 34.89 86.625 46.89 96.625 49.89Z" fill="url(#paint1_linear_1_511)" stroke="black" stroke-width="1.33333"/>
<path d="M1.625 9.89C36.625 14.89 71.625 19.89 96.625 49.89" stroke="black" stroke-width="1.33333"/>
<path d="M21.625 5.04001C25.625 6.04001 28.625 10.89 31.625 14.89C26.625 20.89 22.125 19.89 14.925 20.04" stroke="black" stroke-width="0.625"/>
<path d="M38.625 4.89C46.625 8.89 48.625 12.89 51.625 19.89C48.625 23.89 41.875 30.015 30.875 31.015" stroke="black" stroke-width="0.625"/>
<path d="M58.625 8.89C63.625 12.89 68.125 22.39 69.125 27.39C64.125 30.39 56.625 34.89 46.625 34.89" stroke="black" stroke-width="0.625"/>
<path d="M76.625 19.89C82.125 26.89 79.625 28.89 81.625 34.89C75.625 35.89 73.625 38.89 66.625 38.89" stroke="black" stroke-width="0.625"/>
<path fill-rule="evenodd" clip-rule="evenodd" d="M61.625 59.89C66.625 44.89 121.62 39.89 126.62 59.89C111.62 64.89 106.62 69.89 91.625 69.89C76.625 69.89 71.625 64.89 61.625 59.89Z" fill="url(#paint2_radial_1_511)"/>
<path d="M96.625 69.59L91.625 69.89C91.625 44.89 96.625 24.89 101.62 14.89C106.62 4.89031 108.62 -3.10999 116.62 4.89031C121.62 9.89031 109.78 8.57031 106.62 14.89C101.62 24.89 96.625 39.89 96.625 69.59Z" fill="#AF6700" stroke="black" stroke-width="1.33333" stroke-linejoin="bevel"/>
<path d="M126.62 59.89C116.62 64.89 106.62 69.89 91.625 69.89C76.625 69.89 71.625 64.89 61.625 59.89" stroke="black" stroke-width="1.33333" stroke-linecap="round" stroke-linejoin="round"/>
<path d="M186.293 186.718C186.683 187.108 187.317 187.108 187.707 186.718L194.071 180.354C194.462 179.963 194.462 179.33 194.071 178.94C193.681 178.549 193.047 178.549 192.657 178.94L187 184.597L181.343 178.94C180.953 178.549 180.319 178.549 179.929 178.94C179.538 179.33 179.538 179.963 179.929 180.354L186.293 186.718ZM186 1V186.011H188V1H186Z" fill="black"/>
<path d="M187.707 0.292893C187.317 -0.0976311 186.683 -0.0976311 186.293 0.292893L179.929 6.65685C179.538 7.04738 179.538 7.68054 179.929 8.07107C180.319 8.46159 180.953 8.46159 181.343 8.07107L187 2.41421L192.657 8.07107C193.047 8.46159 193.681 8.46159 194.071 8.07107C194.462 7.68054 194.462 7.04738 194.071 6.65685L187.707 0.292893ZM188 186.011V1H186V186.011H188Z" fill="black"/>
<path d="M200.403 78L196.426 63.4545H198.216L201.256 75.3011H201.398L204.494 63.4545H206.483L209.58 75.3011H209.722L212.761 63.4545H214.551L210.574 78H208.756L205.545 66.4091H205.432L202.222 78H200.403ZM219.935 78.2273C218.95 78.2273 218.086 77.9929 217.342 77.5241C216.604 77.0554 216.026 76.3996 215.609 75.5568C215.197 74.714 214.991 73.7292 214.991 72.6023C214.991 71.4659 215.197 70.474 215.609 69.6264C216.026 68.7789 216.604 68.1207 217.342 67.652C218.086 67.1832 218.95 66.9489 219.935 66.9489C220.92 66.9489 221.781 67.1832 222.52 67.652C223.263 68.1207 223.841 68.7789 224.253 69.6264C224.67 70.474 224.878 71.4659 224.878 72.6023C224.878 73.7292 224.67 74.714 224.253 75.5568C223.841 76.3996 223.263 77.0554 222.52 77.5241C221.781 77.9929 220.92 78.2273 219.935 78.2273ZM219.935 76.7216C220.683 76.7216 221.298 76.5298 221.781 76.1463C222.264 75.7628 222.622 75.2585 222.854 74.6335C223.086 74.0085 223.202 73.3314 223.202 72.6023C223.202 71.8731 223.086 71.1937 222.854 70.5639C222.622 69.9342 222.264 69.4252 221.781 69.0369C221.298 68.6487 220.683 68.4545 219.935 68.4545C219.187 68.4545 218.571 68.6487 218.088 69.0369C217.605 69.4252 217.248 69.9342 217.016 70.5639C216.784 71.1937 216.668 71.8731 216.668 72.6023C216.668 73.3314 216.784 74.0085 217.016 74.6335C217.248 75.2585 217.605 75.7628 218.088 76.1463C218.571 76.5298 219.187 76.7216 219.935 76.7216ZM227.436 78V67.0909H229.056V68.7386H229.169C229.368 68.1989 229.728 67.7609 230.249 67.4247C230.77 67.0885 231.357 66.9205 232.01 66.9205C232.133 66.9205 232.287 66.9228 232.472 66.9276C232.657 66.9323 232.796 66.9394 232.891 66.9489V68.6534C232.834 68.6392 232.704 68.6179 232.5 68.5895C232.301 68.5563 232.091 68.5398 231.868 68.5398C231.338 68.5398 230.864 68.651 230.448 68.8736C230.036 69.0914 229.709 69.3944 229.468 69.7827C229.231 70.1662 229.113 70.6042 229.113 71.0966V78H227.436ZM236.554 63.4545V78H234.878V63.4545H236.554ZM243.743 78.2273C242.834 78.2273 242.032 77.9976 241.336 77.5384C240.64 77.0743 240.095 76.4209 239.702 75.5781C239.309 74.7306 239.113 73.7292 239.113 72.5739C239.113 71.428 239.309 70.4337 239.702 69.5909C240.095 68.7481 240.642 68.0971 241.343 67.6378C242.043 67.1785 242.853 66.9489 243.772 66.9489C244.482 66.9489 245.043 67.0672 245.455 67.304C245.872 67.536 246.189 67.8011 246.407 68.0994C246.629 68.393 246.802 68.6345 246.925 68.8239H247.067V63.4545H248.743V78H247.124V76.3239H246.925C246.802 76.5227 246.627 76.7737 246.4 77.0767C246.172 77.375 245.848 77.6425 245.426 77.8793C245.005 78.1113 244.444 78.2273 243.743 78.2273ZM243.971 76.7216C244.643 76.7216 245.211 76.5464 245.675 76.196C246.139 75.8409 246.492 75.3509 246.733 74.7259C246.975 74.0961 247.096 73.3693 247.096 72.5455C247.096 71.7311 246.977 71.0185 246.74 70.4077C246.504 69.7921 246.153 69.3139 245.689 68.973C245.225 68.6274 244.652 68.4545 243.971 68.4545C243.26 68.4545 242.668 68.6368 242.195 69.0014C241.726 69.3613 241.373 69.8513 241.137 70.4716C240.905 71.0871 240.789 71.7784 240.789 72.5455C240.789 73.322 240.907 74.0275 241.144 74.6619C241.385 75.2917 241.74 75.7936 242.209 76.1676C242.683 76.5369 243.27 76.7216 243.971 76.7216ZM253.523 63.4545V64.733C253.523 65.1212 253.452 65.5355 253.31 65.9759C253.173 66.4115 252.969 66.8352 252.699 67.2472C252.434 67.6544 252.112 68.0095 251.733 68.3125L250.824 67.5739C251.123 67.1477 251.381 66.705 251.598 66.2457C251.821 65.7817 251.932 65.2869 251.932 64.7614V63.4545H253.523ZM261.922 69.5341L260.416 69.9602C260.321 69.7093 260.181 69.4654 259.997 69.2287C259.817 68.9872 259.571 68.7884 259.258 68.6321C258.946 68.4759 258.546 68.3977 258.058 68.3977C257.39 68.3977 256.834 68.5516 256.389 68.8594C255.949 69.1624 255.728 69.5483 255.728 70.017C255.728 70.4337 255.88 70.7628 256.183 71.0043C256.486 71.2457 256.959 71.447 257.603 71.608L259.223 72.0057C260.198 72.2424 260.925 72.6046 261.403 73.0923C261.881 73.5753 262.12 74.1979 262.12 74.9602C262.12 75.5852 261.94 76.1439 261.581 76.6364C261.225 77.1288 260.728 77.517 260.089 77.8011C259.45 78.0852 258.707 78.2273 257.859 78.2273C256.746 78.2273 255.825 77.9858 255.096 77.5028C254.367 77.0199 253.905 76.3144 253.711 75.3864L255.302 74.9886C255.454 75.5758 255.74 76.0161 256.162 76.3097C256.588 76.6032 257.144 76.75 257.831 76.75C258.612 76.75 259.232 76.5843 259.691 76.2528C260.155 75.9167 260.387 75.5142 260.387 75.0455C260.387 74.6667 260.255 74.3494 259.99 74.0938C259.725 73.8333 259.317 73.6392 258.768 73.5114L256.95 73.0852C255.951 72.8485 255.217 72.4815 254.748 71.9844C254.284 71.4825 254.052 70.8551 254.052 70.1023C254.052 69.4867 254.225 68.9422 254.571 68.4688C254.921 67.9953 255.397 67.6236 255.998 67.3537C256.604 67.0838 257.291 66.9489 258.058 66.9489C259.137 66.9489 259.985 67.1856 260.6 67.6591C261.221 68.1326 261.661 68.7576 261.922 69.5341ZM205.261 93.5341L203.756 93.9602C203.661 93.7093 203.521 93.4654 203.337 93.2287C203.157 92.9872 202.911 92.7884 202.598 92.6321C202.286 92.4759 201.885 92.3977 201.398 92.3977C200.73 92.3977 200.174 92.5516 199.729 92.8594C199.288 93.1624 199.068 93.5483 199.068 94.017C199.068 94.4337 199.22 94.7628 199.523 95.0043C199.826 95.2457 200.299 95.447 200.943 95.608L202.562 96.0057C203.538 96.2424 204.265 96.6046 204.743 97.0923C205.221 97.5753 205.46 98.1979 205.46 98.9602C205.46 99.5852 205.28 100.144 204.92 100.636C204.565 101.129 204.068 101.517 203.429 101.801C202.79 102.085 202.046 102.227 201.199 102.227C200.086 102.227 199.165 101.986 198.436 101.503C197.707 101.02 197.245 100.314 197.051 99.3864L198.642 98.9886C198.794 99.5758 199.08 100.016 199.501 100.31C199.928 100.603 200.484 100.75 201.17 100.75C201.952 100.75 202.572 100.584 203.031 100.253C203.495 99.9167 203.727 99.5142 203.727 99.0455C203.727 98.6667 203.595 98.3494 203.33 98.0938C203.064 97.8333 202.657 97.6392 202.108 97.5114L200.29 97.0852C199.291 96.8485 198.557 96.4815 198.088 95.9844C197.624 95.4825 197.392 94.8551 197.392 94.1023C197.392 93.4867 197.565 92.9422 197.911 92.4688C198.261 91.9953 198.737 91.6236 199.338 91.3537C199.944 91.0838 200.631 90.9489 201.398 90.9489C202.477 90.9489 203.325 91.1856 203.94 91.6591C204.561 92.1326 205.001 92.7576 205.261 93.5341ZM207.983 102V91.0909H209.603V92.7955H209.745C209.972 92.2131 210.339 91.7609 210.846 91.4389C211.352 91.1122 211.961 90.9489 212.671 90.9489C213.391 90.9489 213.989 91.1122 214.468 91.4389C214.951 91.7609 215.327 92.2131 215.597 92.7955H215.711C215.99 92.232 216.409 91.7846 216.968 91.4531C217.526 91.117 218.196 90.9489 218.978 90.9489C219.953 90.9489 220.751 91.2543 221.371 91.8651C221.991 92.4711 222.301 93.4157 222.301 94.6989V102H220.625V94.6989C220.625 93.8939 220.405 93.3187 219.965 92.973C219.525 92.6274 219.006 92.4545 218.409 92.4545C217.642 92.4545 217.048 92.6866 216.627 93.1506C216.205 93.6098 215.995 94.1922 215.995 94.8977V102H214.29V94.5284C214.29 93.9081 214.089 93.4086 213.686 93.0298C213.284 92.6463 212.766 92.4545 212.131 92.4545C211.695 92.4545 211.288 92.5705 210.909 92.8026C210.535 93.0346 210.232 93.3565 210 93.7685C209.773 94.1757 209.659 94.6468 209.659 95.1818V102H207.983ZM228.576 102.256C227.885 102.256 227.258 102.125 226.694 101.865C226.131 101.6 225.683 101.219 225.352 100.722C225.02 100.22 224.855 99.6136 224.855 98.9034C224.855 98.2784 224.978 97.7718 225.224 97.3835C225.47 96.9905 225.799 96.6828 226.211 96.4602C226.623 96.2377 227.078 96.072 227.575 95.9631C228.077 95.8494 228.581 95.7595 229.088 95.6932C229.751 95.608 230.288 95.544 230.7 95.5014C231.117 95.4541 231.42 95.3759 231.609 95.267C231.803 95.1581 231.9 94.9687 231.9 94.6989V94.642C231.9 93.9413 231.708 93.3968 231.325 93.0085C230.946 92.6203 230.371 92.4261 229.599 92.4261C228.799 92.4261 228.172 92.6013 227.717 92.9517C227.262 93.3021 226.943 93.6761 226.758 94.0739L225.167 93.5057C225.451 92.8428 225.83 92.3267 226.304 91.9574C226.782 91.5833 227.303 91.3229 227.866 91.1761C228.434 91.0246 228.993 90.9489 229.542 90.9489C229.893 90.9489 230.295 90.9915 230.75 91.0767C231.209 91.1572 231.652 91.3253 232.078 91.581C232.509 91.8366 232.866 92.2225 233.15 92.7386C233.434 93.2547 233.576 93.946 233.576 94.8125V102H231.9V100.523H231.815C231.701 100.759 231.512 101.013 231.247 101.283C230.982 101.553 230.629 101.782 230.189 101.972C229.748 102.161 229.211 102.256 228.576 102.256ZM228.832 100.75C229.495 100.75 230.054 100.62 230.508 100.359C230.967 100.099 231.313 99.7628 231.545 99.3509C231.782 98.9389 231.9 98.5057 231.9 98.0511V96.517C231.829 96.6023 231.673 96.6804 231.431 96.7514C231.195 96.8177 230.92 96.8769 230.608 96.929C230.3 96.9763 229.999 97.0189 229.706 97.0568C229.417 97.09 229.182 97.1184 229.002 97.142C228.567 97.1989 228.16 97.2912 227.781 97.419C227.407 97.5421 227.104 97.7292 226.872 97.9801C226.645 98.2263 226.531 98.5625 226.531 98.9886C226.531 99.571 226.746 100.011 227.177 100.31C227.613 100.603 228.164 100.75 228.832 100.75ZM238.312 87.4545V102H236.636V87.4545H238.312ZM243.058 87.4545V102H241.382V87.4545H243.058ZM250.702 102.227C249.651 102.227 248.744 101.995 247.982 101.531C247.224 101.062 246.639 100.409 246.227 99.571C245.82 98.7282 245.616 97.7481 245.616 96.6307C245.616 95.5133 245.82 94.5284 246.227 93.6761C246.639 92.8191 247.212 92.1515 247.946 91.6733C248.685 91.1903 249.546 90.9489 250.531 90.9489C251.099 90.9489 251.661 91.0436 252.214 91.233C252.768 91.4223 253.273 91.7301 253.727 92.1562C254.182 92.5777 254.544 93.1364 254.814 93.8324C255.084 94.5284 255.219 95.3854 255.219 96.4034V97.1136H246.81V95.6648H253.514C253.514 95.0492 253.391 94.5 253.145 94.017C252.903 93.5341 252.558 93.1529 252.108 92.8736C251.663 92.5942 251.137 92.4545 250.531 92.4545C249.864 92.4545 249.286 92.6203 248.798 92.9517C248.315 93.2784 247.944 93.7045 247.683 94.2301C247.423 94.7557 247.293 95.3191 247.293 95.9205V96.8864C247.293 97.7102 247.435 98.4086 247.719 98.9815C248.008 99.5497 248.408 99.983 248.919 100.281C249.43 100.575 250.025 100.722 250.702 100.722C251.142 100.722 251.54 100.66 251.895 100.537C252.255 100.409 252.565 100.22 252.825 99.9688C253.086 99.7131 253.287 99.3958 253.429 99.017L255.048 99.4716C254.878 100.021 254.591 100.504 254.189 100.92C253.786 101.332 253.289 101.654 252.697 101.886C252.106 102.114 251.44 102.227 250.702 102.227ZM265.496 93.5341L263.99 93.9602C263.895 93.7093 263.756 93.4654 263.571 93.2287C263.391 92.9872 263.145 92.7884 262.832 92.6321C262.52 92.4759 262.12 92.3977 261.632 92.3977C260.964 92.3977 260.408 92.5516 259.963 92.8594C259.523 93.1624 259.303 93.5483 259.303 94.017C259.303 94.4337 259.454 94.7628 259.757 95.0043C260.06 95.2457 260.534 95.447 261.178 95.608L262.797 96.0057C263.772 96.2424 264.499 96.6046 264.977 97.0923C265.455 97.5753 265.695 98.1979 265.695 98.9602C265.695 99.5852 265.515 100.144 265.155 100.636C264.8 101.129 264.303 101.517 263.663 101.801C263.024 102.085 262.281 102.227 261.433 102.227C260.321 102.227 259.4 101.986 258.67 101.503C257.941 101.02 257.48 100.314 257.286 99.3864L258.876 98.9886C259.028 99.5758 259.314 100.016 259.736 100.31C260.162 100.603 260.718 100.75 261.405 100.75C262.186 100.75 262.806 100.584 263.266 100.253C263.73 99.9167 263.962 99.5142 263.962 99.0455C263.962 98.6667 263.829 98.3494 263.564 98.0938C263.299 97.8333 262.892 97.6392 262.342 97.5114L260.524 97.0852C259.525 96.8485 258.791 96.4815 258.322 95.9844C257.858 95.4825 257.626 94.8551 257.626 94.1023C257.626 93.4867 257.799 92.9422 258.145 92.4688C258.495 91.9953 258.971 91.6236 259.572 91.3537C260.179 91.0838 260.865 90.9489 261.632 90.9489C262.712 90.9489 263.559 91.1856 264.175 91.6591C264.795 92.1326 265.235 92.7576 265.496 93.5341ZM272.962 91.0909V92.5114H267.309V91.0909H272.962ZM268.956 88.4773H270.632V98.875C270.632 99.3485 270.701 99.7036 270.838 99.9403C270.98 100.172 271.16 100.329 271.378 100.409C271.601 100.485 271.835 100.523 272.081 100.523C272.266 100.523 272.417 100.513 272.536 100.494C272.654 100.471 272.749 100.452 272.82 100.438L273.161 101.943C273.047 101.986 272.889 102.028 272.685 102.071C272.481 102.118 272.223 102.142 271.911 102.142C271.437 102.142 270.973 102.04 270.519 101.837C270.069 101.633 269.695 101.323 269.397 100.906C269.103 100.49 268.956 99.964 268.956 99.3295V88.4773ZM198.358 126H196.511L201.852 111.455H203.67L209.011 126H207.165L202.818 113.756H202.705L198.358 126ZM199.04 120.318H206.483V121.881H199.04V120.318ZM211.05 130.091V115.091H212.669V116.824H212.868C212.991 116.634 213.161 116.393 213.379 116.099C213.602 115.801 213.919 115.536 214.331 115.304C214.748 115.067 215.311 114.949 216.021 114.949C216.94 114.949 217.75 115.179 218.45 115.638C219.151 116.097 219.698 116.748 220.091 117.591C220.484 118.434 220.68 119.428 220.68 120.574C220.68 121.729 220.484 122.731 220.091 123.578C219.698 124.421 219.153 125.074 218.457 125.538C217.761 125.998 216.959 126.227 216.05 126.227C215.349 126.227 214.788 126.111 214.366 125.879C213.945 125.643 213.621 125.375 213.393 125.077C213.166 124.774 212.991 124.523 212.868 124.324H212.726V130.091H211.05ZM212.697 120.545C212.697 121.369 212.818 122.096 213.06 122.726C213.301 123.351 213.654 123.841 214.118 124.196C214.582 124.546 215.15 124.722 215.822 124.722C216.523 124.722 217.108 124.537 217.577 124.168C218.05 123.794 218.405 123.292 218.642 122.662C218.884 122.027 219.004 121.322 219.004 120.545C219.004 119.778 218.886 119.087 218.649 118.472C218.417 117.851 218.064 117.361 217.591 117.001C217.122 116.637 216.533 116.455 215.822 116.455C215.141 116.455 214.568 116.627 214.104 116.973C213.64 117.314 213.289 117.792 213.053 118.408C212.816 119.018 212.697 119.731 212.697 120.545ZM223.237 130.091V115.091H224.857V116.824H225.055C225.179 116.634 225.349 116.393 225.567 116.099C225.789 115.801 226.107 115.536 226.518 115.304C226.935 115.067 227.499 114.949 228.209 114.949C229.127 114.949 229.937 115.179 230.638 115.638C231.339 116.097 231.885 116.748 232.278 117.591C232.671 118.434 232.868 119.428 232.868 120.574C232.868 121.729 232.671 122.731 232.278 123.578C231.885 124.421 231.341 125.074 230.645 125.538C229.949 125.998 229.146 126.227 228.237 126.227C227.536 126.227 226.975 126.111 226.554 125.879C226.133 125.643 225.808 125.375 225.581 125.077C225.354 124.774 225.179 124.523 225.055 124.324H224.913V130.091H223.237ZM224.885 120.545C224.885 121.369 225.006 122.096 225.247 122.726C225.489 123.351 225.841 123.841 226.305 124.196C226.769 124.546 227.338 124.722 228.01 124.722C228.711 124.722 229.295 124.537 229.764 124.168C230.238 123.794 230.593 123.292 230.83 122.662C231.071 122.027 231.192 121.322 231.192 120.545C231.192 119.778 231.073 119.087 230.837 118.472C230.605 117.851 230.252 117.361 229.778 117.001C229.31 116.637 228.72 116.455 228.01 116.455C227.328 116.455 226.755 116.627 226.291 116.973C225.827 117.314 225.477 117.792 225.24 118.408C225.003 119.018 224.885 119.731 224.885 120.545ZM237.101 111.455V126H235.425V111.455H237.101ZM244.745 126.227C243.694 126.227 242.787 125.995 242.025 125.531C241.267 125.062 240.682 124.409 240.27 123.571C239.863 122.728 239.659 121.748 239.659 120.631C239.659 119.513 239.863 118.528 240.27 117.676C240.682 116.819 241.255 116.152 241.989 115.673C242.728 115.19 243.589 114.949 244.574 114.949C245.142 114.949 245.703 115.044 246.257 115.233C246.811 115.422 247.316 115.73 247.77 116.156C248.225 116.578 248.587 117.136 248.857 117.832C249.127 118.528 249.262 119.385 249.262 120.403V121.114H240.853V119.665H247.557C247.557 119.049 247.434 118.5 247.188 118.017C246.946 117.534 246.601 117.153 246.151 116.874C245.706 116.594 245.18 116.455 244.574 116.455C243.907 116.455 243.329 116.62 242.841 116.952C242.358 117.278 241.987 117.705 241.726 118.23C241.466 118.756 241.336 119.319 241.336 119.92V120.886C241.336 121.71 241.478 122.409 241.762 122.982C242.051 123.55 242.451 123.983 242.962 124.281C243.473 124.575 244.068 124.722 244.745 124.722C245.185 124.722 245.583 124.66 245.938 124.537C246.298 124.409 246.608 124.22 246.868 123.969C247.129 123.713 247.33 123.396 247.472 123.017L249.091 123.472C248.921 124.021 248.634 124.504 248.232 124.92C247.829 125.332 247.332 125.654 246.74 125.886C246.149 126.114 245.483 126.227 244.745 126.227ZM197.398 151.42V149.682L205.068 137.545H206.33V140.239H205.477L199.682 149.409V149.545H210.011V151.42H197.398ZM205.614 155V150.892V150.082V137.545H207.625V155H205.614ZM218.558 155.273C217.33 155.273 216.273 154.983 215.387 154.403C214.501 153.824 213.819 153.026 213.342 152.009C212.864 150.991 212.626 149.83 212.626 148.523C212.626 147.193 212.87 146.02 213.359 145.003C213.853 143.98 214.54 143.182 215.421 142.608C216.308 142.028 217.342 141.739 218.523 141.739C219.444 141.739 220.273 141.909 221.012 142.25C221.751 142.591 222.356 143.068 222.827 143.682C223.299 144.295 223.592 145.011 223.705 145.83H221.694C221.54 145.233 221.2 144.705 220.671 144.244C220.148 143.778 219.444 143.545 218.558 143.545C217.773 143.545 217.086 143.75 216.495 144.159C215.91 144.562 215.452 145.134 215.123 145.872C214.799 146.605 214.637 147.466 214.637 148.455C214.637 149.466 214.796 150.347 215.114 151.097C215.438 151.847 215.893 152.429 216.478 152.844C217.069 153.259 217.762 153.466 218.558 153.466C219.08 153.466 219.555 153.375 219.981 153.193C220.407 153.011 220.768 152.75 221.063 152.409C221.359 152.068 221.569 151.659 221.694 151.182H223.705C223.592 151.955 223.31 152.651 222.862 153.27C222.418 153.884 221.83 154.372 221.097 154.736C220.37 155.094 219.523 155.273 218.558 155.273ZM226.646 155V141.909H228.589V143.955H228.759C229.032 143.256 229.472 142.713 230.08 142.327C230.688 141.935 231.418 141.739 232.271 141.739C233.134 141.739 233.853 141.935 234.427 142.327C235.006 142.713 235.458 143.256 235.782 143.955H235.918C236.254 143.278 236.756 142.741 237.427 142.344C238.097 141.94 238.901 141.739 239.839 141.739C241.009 141.739 241.967 142.105 242.711 142.838C243.455 143.565 243.827 144.699 243.827 146.239V155H241.816V146.239C241.816 145.273 241.552 144.582 241.023 144.168C240.495 143.753 239.873 143.545 239.157 143.545C238.237 143.545 237.523 143.824 237.018 144.381C236.512 144.932 236.259 145.631 236.259 146.477V155H234.214V146.034C234.214 145.29 233.972 144.69 233.489 144.236C233.006 143.776 232.384 143.545 231.623 143.545C231.1 143.545 230.612 143.685 230.157 143.963C229.708 144.241 229.344 144.628 229.066 145.122C228.793 145.611 228.657 146.176 228.657 146.818V155H226.646Z" fill="black"/>
<defs>
<radialGradient id="paint0_radial_1_511" cx="0" cy="0" r="1" gradientUnits="userSpaceOnUse" gradientTransform="translate(55.9805 82.3027) scale(93.9191 88.5937)">
<stop stop-color="#FF0000"/>
<stop offset="1" stop-color="#8C3300"/>
</radialGradient>
<linearGradient id="paint1_linear_1_511" x1="66.5929" y1="27.5698" x2="40.2913" y2="-19.7918" gradientUnits="userSpaceOnUse">
<stop stop-color="#00FF00"/>
<stop offset="1" stop-color="#009000"/>
</linearGradient>
<radialGradient id="paint2_radial_1_511" cx="0" cy="0" r="1" gradientUnits="userSpaceOnUse" gradientTransform="translate(100.668 65.9872) scale(28.7661 10.2637)">
<stop stop-color="#C8B800"/>
<stop offset="0.7" stop-color="#FF0000" stop-opacity="0.59259"/>
<stop offset="1" stop-color="#FF0000" stop-opacity="0"/>
</radialGradient>
</defs>
</svg>
