<svg width="81" height="31" viewBox="0 0 81 31" fill="none" xmlns="http://www.w3.org/2000/svg">
<path d="M3.4738 8.66015C3.26304 8.16838 2.69353 7.94057 2.20177 8.15133C1.71001 8.36209 1.4822 8.9316 1.69296 9.42337L3.4738 8.66015ZM29.3072 9.42337C29.5179 8.9316 29.2901 8.36209 28.7983 8.15133C28.3065 7.94057 27.737 8.16838 27.5262 8.66015L29.3072 9.42337ZM15.5 17.1147C11.3359 17.1147 8.34593 15.041 6.36099 12.9034C5.3688 11.8349 4.64133 10.7633 4.16256 9.95902C3.92373 9.55778 3.7483 9.22559 3.63402 8.99703C3.57692 8.88283 3.5352 8.79472 3.50856 8.73706C3.49526 8.70825 3.48573 8.68706 3.47994 8.67406C3.47705 8.66756 3.47482 8.66248 3.4738 8.66015C3.47378 8.66009 3.47384 8.66025 3.4738 8.66015C3.47393 8.66044 3.4738 8.66015 2.58338 9.04176C1.69296 9.42337 1.69276 9.42293 1.69296 9.42337C1.69304 9.42356 1.6936 9.42486 1.69377 9.42525C1.69409 9.42601 1.69449 9.42693 1.69495 9.42796C1.69584 9.43006 1.69699 9.43269 1.69837 9.43587C1.70115 9.44221 1.70489 9.45072 1.70961 9.46133C1.71904 9.48254 1.73237 9.51212 1.74965 9.54952C1.78419 9.62432 1.83455 9.73047 1.90107 9.8635C2.03402 10.1294 2.23197 10.5036 2.49769 10.95C3.02804 11.841 3.83442 13.0299 4.94119 14.2217C7.15416 16.605 10.6226 19.0522 15.5 19.0522V17.1147ZM19.7787 16.3149C18.5253 16.8083 17.1039 17.1147 15.5 17.1147V19.0522C17.3577 19.0522 19.0193 18.6959 20.4883 18.1178L19.7787 16.3149ZM28.4167 9.04176C27.5262 8.66015 27.5261 8.66033 27.5262 8.66015C27.5264 8.65994 27.5269 8.65876 27.5269 8.65891C27.5268 8.65916 27.5264 8.66009 27.5256 8.6617C27.5242 8.66489 27.5216 8.67072 27.5178 8.67911C27.5104 8.69589 27.4982 8.72283 27.4813 8.7592C27.4473 8.83195 27.3945 8.94223 27.3222 9.08395C27.1775 9.3676 26.9558 9.77582 26.6541 10.2601C26.049 11.2313 25.1311 12.493 23.8787 13.6685L25.2047 15.0812C26.6114 13.7609 27.631 12.356 28.2985 11.2847C28.6332 10.7476 28.8817 10.2905 29.0482 9.9642C29.1314 9.80093 29.1943 9.67006 29.2373 9.57789C29.2588 9.5318 29.2753 9.49536 29.2869 9.46935C29.2927 9.45634 29.2974 9.44594 29.3007 9.43825C29.3024 9.4344 29.3037 9.43123 29.3049 9.42874C29.3054 9.4275 29.3058 9.42643 29.3062 9.42554C29.3064 9.42508 29.3071 9.42373 29.3072 9.42337C29.3072 9.42346 29.3073 9.42318 29.3072 9.42337C29.3073 9.42315 29.3072 9.42337 28.4167 9.04176ZM23.8787 13.6685C22.7692 14.7098 21.408 15.6736 19.7787 16.3149L20.4883 18.1178C22.3917 17.3686 23.9561 16.2531 25.2047 15.0812L23.8787 13.6685Z" fill="white"/>
<path opacity="0.5" d="M16.4688 18.0834C16.4688 17.5483 16.035 17.1146 15.5 17.1146C14.965 17.1146 14.5313 17.5483 14.5313 18.0834H16.4688ZM20.9454 16.6878C20.6537 16.2394 20.0536 16.1124 19.6051 16.4042C19.1567 16.696 19.0296 17.2961 19.3216 17.7446L20.9454 16.6878ZM11.6786 17.7446C11.9704 17.2961 11.8434 16.696 11.3949 16.4042C10.9465 16.1124 10.3464 16.2394 10.0546 16.6878L11.6786 17.7446ZM8.22971 19.4924C7.93791 19.9409 8.06491 20.541 8.51336 20.8328C8.96181 21.1246 9.5619 20.9976 9.8537 20.5491L8.22971 19.4924ZM25.2267 13.6898C24.8483 13.3114 24.2351 13.3114 23.8567 13.6898C23.4784 14.0681 23.4784 14.6814 23.8567 15.0597L25.2267 13.6898ZM25.7942 16.9972C26.1726 17.3755 26.7858 17.3755 27.1642 16.9972C27.5425 16.6189 27.5425 16.0056 27.1642 15.6273L25.7942 16.9972ZM14.5313 21.3125C14.5313 21.8475 14.965 22.2813 15.5 22.2813C16.035 22.2813 16.4688 21.8475 16.4688 21.3125H14.5313ZM21.1464 20.5491C21.4382 20.9976 22.0383 21.1246 22.4867 20.8328C22.9351 20.541 23.0621 19.9409 22.7703 19.4924L21.1464 20.5491ZM7.14338 15.0597C7.5217 14.6814 7.5217 14.0681 7.14338 13.6898C6.76506 13.3114 6.15168 13.3114 5.77336 13.6898L7.14338 15.0597ZM3.83586 15.6273C3.45754 16.0056 3.45754 16.6189 3.83586 16.9972C4.21418 17.3755 4.82756 17.3755 5.20588 16.9972L3.83586 15.6273ZM10.0546 16.6878L8.22971 19.4924L9.8537 20.5491L11.6786 17.7446L10.0546 16.6878ZM23.8567 15.0597L25.7942 16.9972L27.1642 15.6273L25.2267 13.6898L23.8567 15.0597ZM14.5313 18.0834V21.3125H16.4688V18.0834H14.5313ZM19.3216 17.7446L21.1464 20.5491L22.7703 19.4924L20.9454 16.6878L19.3216 17.7446ZM5.77336 13.6898L3.83586 15.6273L5.20588 16.9972L7.14338 15.0597L5.77336 13.6898Z" fill="white"/>
<path d="M53.4738 8.66015C53.263 8.16838 52.6935 7.94057 52.2018 8.15133C51.71 8.36209 51.4822 8.9316 51.693 9.42337L53.4738 8.66015ZM79.3072 9.42337C79.5179 8.9316 79.2901 8.36209 78.7983 8.15133C78.3065 7.94057 77.737 8.16838 77.5262 8.66015L79.3072 9.42337ZM65.5 17.1147C61.3359 17.1147 58.3459 15.041 56.361 12.9034C55.3688 11.8349 54.6413 10.7633 54.1626 9.95902C53.9237 9.55778 53.7483 9.22559 53.634 8.99703C53.5769 8.88283 53.5352 8.79472 53.5086 8.73706C53.4953 8.70825 53.4857 8.68706 53.4799 8.67406C53.477 8.66756 53.4748 8.66248 53.4738 8.66015C53.4738 8.66009 53.4738 8.66025 53.4738 8.66015C53.4739 8.66044 53.4738 8.66015 52.5834 9.04176C51.693 9.42337 51.6928 9.42293 51.693 9.42337C51.693 9.42356 51.6936 9.42486 51.6938 9.42525C51.6941 9.42601 51.6945 9.42693 51.6949 9.42796C51.6958 9.43006 51.697 9.43269 51.6984 9.43587C51.7011 9.44221 51.7049 9.45072 51.7096 9.46133C51.719 9.48254 51.7324 9.51212 51.7496 9.54952C51.7842 9.62432 51.8346 9.73047 51.9011 9.8635C52.034 10.1294 52.232 10.5036 52.4977 10.95C53.028 11.841 53.8344 13.0299 54.9412 14.2217C57.1542 16.605 60.6226 19.0522 65.5 19.0522V17.1147ZM69.7787 16.3149C68.5253 16.8083 67.1039 17.1147 65.5 17.1147V19.0522C67.3577 19.0522 69.0193 18.6959 70.4883 18.1178L69.7787 16.3149ZM78.4167 9.04176C77.5262 8.66015 77.5261 8.66033 77.5262 8.66015C77.5264 8.65994 77.5269 8.65876 77.5269 8.65891C77.5268 8.65916 77.5264 8.66009 77.5256 8.6617C77.5242 8.66489 77.5216 8.67072 77.5178 8.67911C77.5104 8.69589 77.4982 8.72283 77.4813 8.7592C77.4473 8.83195 77.3945 8.94223 77.3222 9.08395C77.1775 9.3676 76.9558 9.77582 76.6541 10.2601C76.049 11.2313 75.1311 12.493 73.8787 13.6685L75.2047 15.0812C76.6114 13.7609 77.631 12.356 78.2985 11.2847C78.6332 10.7476 78.8817 10.2905 79.0482 9.9642C79.1314 9.80093 79.1943 9.67006 79.2373 9.57789C79.2588 9.5318 79.2753 9.49536 79.2869 9.46935C79.2927 9.45634 79.2974 9.44594 79.3007 9.43825C79.3024 9.4344 79.3037 9.43123 79.3049 9.42874C79.3054 9.4275 79.3058 9.42643 79.3062 9.42554C79.3064 9.42508 79.3071 9.42373 79.3072 9.42337C79.3072 9.42346 79.3073 9.42318 79.3072 9.42337C79.3073 9.42315 79.3072 9.42337 78.4167 9.04176ZM73.8787 13.6685C72.7692 14.7098 71.408 15.6736 69.7787 16.3149L70.4883 18.1178C72.3917 17.3686 73.9561 16.2531 75.2047 15.0812L73.8787 13.6685Z" fill="white"/>
<path opacity="0.5" d="M66.4688 18.0834C66.4688 17.5483 66.035 17.1146 65.5 17.1146C64.965 17.1146 64.5313 17.5483 64.5313 18.0834H66.4688ZM70.9454 16.6878C70.6537 16.2394 70.0536 16.1124 69.6051 16.4042C69.1567 16.696 69.0296 17.2961 69.3216 17.7446L70.9454 16.6878ZM61.6786 17.7446C61.9704 17.2961 61.8434 16.696 61.3949 16.4042C60.9465 16.1124 60.3464 16.2394 60.0546 16.6878L61.6786 17.7446ZM58.2297 19.4924C57.9379 19.9409 58.0649 20.541 58.5134 20.8328C58.9618 21.1246 59.5619 20.9976 59.8537 20.5491L58.2297 19.4924ZM75.2267 13.6898C74.8483 13.3114 74.2351 13.3114 73.8567 13.6898C73.4784 14.0681 73.4784 14.6814 73.8567 15.0597L75.2267 13.6898ZM75.7942 16.9972C76.1726 17.3755 76.7858 17.3755 77.1642 16.9972C77.5425 16.6189 77.5425 16.0056 77.1642 15.6273L75.7942 16.9972ZM64.5313 21.3125C64.5313 21.8475 64.965 22.2813 65.5 22.2813C66.035 22.2813 66.4688 21.8475 66.4688 21.3125H64.5313ZM71.1464 20.5491C71.4382 20.9976 72.0383 21.1246 72.4867 20.8328C72.9351 20.541 73.0621 19.9409 72.7703 19.4924L71.1464 20.5491ZM57.1434 15.0597C57.5217 14.6814 57.5217 14.0681 57.1434 13.6898C56.7651 13.3114 56.1517 13.3114 55.7734 13.6898L57.1434 15.0597ZM53.8359 15.6273C53.4575 16.0056 53.4575 16.6189 53.8359 16.9972C54.2142 17.3755 54.8276 17.3755 55.2059 16.9972L53.8359 15.6273ZM60.0546 16.6878L58.2297 19.4924L59.8537 20.5491L61.6786 17.7446L60.0546 16.6878ZM73.8567 15.0597L75.7942 16.9972L77.1642 15.6273L75.2267 13.6898L73.8567 15.0597ZM64.5313 18.0834V21.3125H66.4688V18.0834H64.5313ZM69.3216 17.7446L71.1464 20.5491L72.7703 19.4924L70.9454 16.6878L69.3216 17.7446ZM55.7734 13.6898L53.8359 15.6273L55.2059 16.9972L57.1434 15.0597L55.7734 13.6898Z" fill="white"/>
</svg>
