<svg width="274" height="312" viewBox="0 0 274 312" fill="none" xmlns="http://www.w3.org/2000/svg">
<path d="M183.711 311V255.907L231.863 186.377L203.9 118.587M203.9 118.587L254.436 63.9139C283.006 5.22613 240.96 31.2112 214.681 39.3623L168.862 83.8495M203.9 118.587L183.711 167.226M57.1803 77.3681L25.0181 46.258C14.9109 22.4922 -1.08336 -2.76778 66.1049 17.2659L168.862 83.8495M57.1803 77.3681C16.9021 89.2259 31.9842 103.017 43.0152 118.587M57.1803 77.3681L116.978 118.587M42.4777 216.132C-8.24331 232.091 57.4862 288.15 58.0533 277.554M42.4777 216.132C44.1645 233.782 51.135 234.755 58.057 245.89M42.4777 216.132C22.515 206.597 -8.92465 181.523 25.0181 157.504M42.4777 216.132C39.2373 182.226 65.2053 154.617 116.978 118.587M58.0533 277.554C58.0557 277.509 58.057 277.462 58.057 277.413L58.0533 277.554ZM58.0533 277.554L57.1803 311M43.0152 118.587C49.1066 127.185 72.1248 142.86 79.6358 147.192M43.0152 118.587C17.8699 128.759 17.5943 144.206 25.0181 157.504M25.0181 157.504C29.4789 165.494 36.7197 172.709 43.0152 177.537M116.978 118.587C133.573 107.039 124.564 119.292 149.995 109.481L168.862 83.8495" stroke="black" stroke-opacity="0.2" stroke-width="20"/>
</svg>
