<svg width="104" height="104" viewBox="0 0 104 104" fill="none" xmlns="http://www.w3.org/2000/svg">
<g clip-path="url(#clip0_23_111)">
<path d="M88.3525 59.0826C92.7279 55.8791 95.5749 50.7059 95.5749 44.8797C95.5749 35.1789 87.6832 27.2868 77.9824 27.2868H64.4577C66.8262 24.2899 68.2406 20.507 68.2406 16.3996V10.472C68.2406 4.69797 63.5431 0 57.7686 0C51.9941 0 47.2966 4.69797 47.2966 10.472V13.0472H25.9151C16.2148 13.0472 8.32263 20.9389 8.32263 30.6392C8.32263 36.8628 11.5713 42.3423 16.4624 45.4699C12.4951 48.6985 9.95626 53.618 9.95626 59.1193C9.95626 68.8201 17.8484 76.7118 27.5492 76.7118H44.1704C41.8019 79.7087 40.3865 83.4926 40.3865 87.6008V93.528C40.3865 99.302 45.084 104 50.8585 104C56.633 104 61.3305 99.302 61.3305 93.528V90.9528H78.0857C87.786 90.9528 95.6782 83.0611 95.6782 73.3608C95.6773 67.489 92.7861 62.28 88.3525 59.0826ZM78.0852 83.9715H57.9785C55.9772 83.9715 54.3487 85.5995 54.3487 87.6008V93.528C54.3487 95.453 52.783 97.0187 50.858 97.0187C48.9335 97.0187 47.3674 95.453 47.3674 93.528V87.6008C47.3674 81.7505 52.1277 76.9901 57.9785 76.9901H78.0852C80.0866 76.9901 81.7151 75.3621 81.7151 73.3608C81.7151 71.359 80.0866 69.7305 78.0852 69.7305H27.5488C21.6975 69.7305 16.9371 64.9706 16.9371 59.1193C16.9371 53.269 21.6975 48.5091 27.5488 48.5091H77.9819C79.9832 48.5091 81.6117 46.8811 81.6117 44.8797C81.6117 42.878 79.9832 41.2494 77.9819 41.2494H25.9151C20.0643 41.2494 15.304 36.4891 15.304 30.6387C15.304 24.7884 20.0643 20.0281 25.9151 20.0281H50.6491C52.6504 20.0281 54.2784 18.4 54.2784 16.3992V10.472C54.2784 8.54701 55.8446 6.98133 57.7691 6.98133C59.6941 6.98133 61.2598 8.54701 61.2598 10.472V16.3996C61.2598 22.25 56.4999 27.0098 50.6491 27.0098H25.9151C23.9138 27.0098 22.2853 28.6379 22.2853 30.6392C22.2853 32.6405 23.9138 34.2686 25.9151 34.2686H77.9824C83.8332 34.2686 88.5935 39.0289 88.5935 44.8802C88.5935 50.7306 83.8332 55.4909 77.9824 55.4909H27.5488C25.547 55.4909 23.9185 57.1189 23.9185 59.1198C23.9185 61.1211 25.547 62.7496 27.5488 62.7496H78.0848C83.9356 62.7496 88.6959 67.51 88.6959 73.3613C88.6959 79.2111 83.9361 83.9715 78.0852 83.9715Z" fill="white"/>
</g>
<defs>
<clipPath id="clip0_23_111">
<rect width="104" height="104" fill="white"/>
</clipPath>
</defs>
</svg>
