<svg width="130" height="130" viewBox="0 0 130 130" fill="none" xmlns="http://www.w3.org/2000/svg">
<path d="M50.1865 73.5527C51.6881 76.1527 53.8475 78.3121 56.4475 79.8139C59.0475 81.3151 61.9978 82.1054 65.0001 82.1054C68.0024 82.1054 70.9527 81.3151 73.5527 79.8139C76.1527 78.3121 78.3121 76.1527 79.8139 73.5527" stroke="white" stroke-width="10" stroke-linecap="round"/>
<path d="M44.4736 37.6318H37.6315C33.8527 37.6318 30.7894 40.6952 30.7894 44.4739C30.7894 48.2527 33.8527 51.316 37.6315 51.316H44.4736C48.2524 51.316 51.3157 48.2527 51.3157 44.4739C51.3157 40.6952 48.2524 37.6318 44.4736 37.6318Z" fill="white"/>
<path d="M92.3683 37.6318H85.5262C81.7474 37.6318 78.6841 40.6952 78.6841 44.4739C78.6841 48.2527 81.7474 51.316 85.5262 51.316H92.3683C96.1471 51.316 99.2104 48.2527 99.2104 44.4739C99.2104 40.6952 96.1471 37.6318 92.3683 37.6318Z" fill="white"/>
</svg>
