<svg width="256" height="279" viewBox="0 0 256 279" fill="none" xmlns="http://www.w3.org/2000/svg">
<path d="M179.16 11.645C179.16 11.645 147.664 49.673 110.85 96.941C63.655 157.54 40.719 243.461 142.693 262.751C255.963 284.18 275.193 144.581 207.967 105.741C158.744 77.317 179.157 11.644 179.157 11.646L179.16 11.645Z" fill="#29ABE2"/>
<path d="M113.844 134.31C113.844 134.31 57.557 204.91 139.641 242.43C139.641 242.44 95.337 210.84 113.844 134.31Z" fill="white"/>
<path d="M61.2894 264.704C61.6846 265.096 62.3177 265.099 62.7036 264.71L68.9921 258.374C69.378 257.985 69.3705 257.352 68.9753 256.96C68.5802 256.568 67.947 256.565 67.5611 256.954L61.9714 262.586L56.2475 256.906C55.8523 256.514 55.2192 256.511 54.8333 256.9C54.4474 257.289 54.4549 257.922 54.8501 258.314L61.2894 264.704ZM58 11.9959L60.9882 263.996L62.9881 264.005L60 12.0044L58 11.9959Z" fill="black"/>
<path d="M59.6987 11.2927C59.3036 10.9068 58.6705 10.9144 58.2846 11.3095L51.9969 17.7488C51.611 18.1439 51.6186 18.777 52.0137 19.1629C52.4089 19.5487 53.042 19.5412 53.4278 19.1461L59.0169 13.4223L64.7407 19.0114C65.1359 19.3972 65.769 19.3897 66.1548 18.9945C66.5407 18.5994 66.5332 17.9663 66.138 17.5804L59.6987 11.2927ZM62.9998 263.98L60 11.9963L58.0002 12.0201L61 264.004L62.9998 263.98Z" fill="black"/>
<path d="M2.24006 111H0.485795L5.55966 97.1818H7.28693L12.3608 111H10.6065L6.47727 99.3679H6.36932L2.24006 111ZM2.88778 105.602H9.95881V107.087H2.88778V105.602ZM3.8054 134L0.647727 123.636H2.32102L4.56108 131.571H4.66903L6.8821 123.636H8.58239L10.7685 131.544H10.8764L13.1165 123.636H14.7898L11.6321 134H10.0668L7.79972 126.038H7.63778L5.37074 134H3.8054ZM19.9446 134.243C19.2879 134.243 18.6919 134.119 18.1566 133.872C17.6213 133.62 17.1963 133.258 16.8814 132.786C16.5665 132.309 16.4091 131.733 16.4091 131.058C16.4091 130.464 16.526 129.983 16.7599 129.614C16.9938 129.241 17.3065 128.949 17.6978 128.737C18.0891 128.526 18.521 128.368 18.9933 128.265C19.4701 128.157 19.9491 128.071 20.4304 128.009C21.0601 127.928 21.5707 127.867 21.962 127.826C22.3578 127.781 22.6457 127.707 22.8256 127.604C23.0101 127.5 23.1023 127.32 23.1023 127.064V127.01C23.1023 126.344 22.9201 125.827 22.5558 125.458C22.1959 125.089 21.6494 124.905 20.9162 124.905C20.156 124.905 19.56 125.071 19.1282 125.404C18.6964 125.737 18.3928 126.092 18.2173 126.47L16.706 125.93C16.9759 125.301 17.3357 124.81 17.7855 124.46C18.2398 124.104 18.7346 123.857 19.2699 123.717C19.8097 123.573 20.3404 123.501 20.8622 123.501C21.1951 123.501 21.5774 123.542 22.0092 123.623C22.4455 123.699 22.8661 123.859 23.271 124.102C23.6803 124.345 24.0199 124.711 24.2898 125.202C24.5597 125.692 24.6946 126.349 24.6946 127.172V134H23.1023V132.597H23.0213C22.9134 132.821 22.7334 133.062 22.4815 133.319C22.2296 133.575 21.8945 133.793 21.4762 133.973C21.0579 134.153 20.5473 134.243 19.9446 134.243ZM20.1875 132.812C20.8172 132.812 21.348 132.689 21.7798 132.441C22.2161 132.194 22.5445 131.875 22.7649 131.483C22.9898 131.092 23.1023 130.68 23.1023 130.249V128.791C23.0348 128.872 22.8864 128.946 22.657 129.014C22.4321 129.077 22.1712 129.133 21.8743 129.183C21.5819 129.228 21.2963 129.268 21.0174 129.304C20.743 129.335 20.5204 129.362 20.3494 129.385C19.9356 129.439 19.5488 129.527 19.1889 129.648C18.8336 129.765 18.5457 129.943 18.3253 130.181C18.1094 130.415 18.0014 130.734 18.0014 131.139C18.0014 131.692 18.2061 132.111 18.6154 132.394C19.0292 132.673 19.5533 132.812 20.1875 132.812ZM32.108 123.636V124.986H26.7373V123.636H32.108ZM28.3026 121.153H29.895V131.031C29.895 131.481 29.9602 131.818 30.0906 132.043C30.2256 132.264 30.3965 132.412 30.6034 132.489C30.8148 132.561 31.0375 132.597 31.2714 132.597C31.4468 132.597 31.5908 132.588 31.7032 132.57C31.8157 132.547 31.9056 132.529 31.9731 132.516L32.297 133.946C32.189 133.987 32.0383 134.027 31.8449 134.067C31.6515 134.112 31.4063 134.135 31.1095 134.135C30.6597 134.135 30.2188 134.038 29.787 133.845C29.3597 133.651 29.0044 133.357 28.721 132.961C28.4421 132.565 28.3026 132.066 28.3026 131.463V121.153ZM38.7371 134.216C37.7385 134.216 36.8772 133.996 36.153 133.555C35.4333 133.109 34.8778 132.489 34.4864 131.692C34.0996 130.892 33.9062 129.961 33.9062 128.899C33.9062 127.838 34.0996 126.902 34.4864 126.092C34.8778 125.278 35.422 124.644 36.1192 124.19C36.8209 123.731 37.6396 123.501 38.5752 123.501C39.115 123.501 39.648 123.591 40.1743 123.771C40.7006 123.951 41.1796 124.244 41.6114 124.648C42.0432 125.049 42.3873 125.58 42.6437 126.241C42.9001 126.902 43.0283 127.716 43.0283 128.683V129.358H35.0397V127.982H41.409C41.409 127.397 41.2921 126.875 41.0582 126.416C40.8287 125.957 40.5004 125.595 40.0731 125.33C39.6502 125.065 39.151 124.932 38.5752 124.932C37.941 124.932 37.3922 125.089 36.9289 125.404C36.4701 125.714 36.117 126.119 35.8696 126.619C35.6222 127.118 35.4985 127.653 35.4985 128.224V129.142C35.4985 129.925 35.6334 130.588 35.9033 131.132C36.1777 131.672 36.5578 132.084 37.0436 132.367C37.5294 132.646 38.0939 132.786 38.7371 132.786C39.1555 132.786 39.5333 132.727 39.8707 132.61C40.2125 132.489 40.5071 132.309 40.7545 132.07C41.0019 131.827 41.1931 131.526 41.328 131.166L42.8664 131.598C42.7045 132.12 42.4323 132.579 42.05 132.974C41.6676 133.366 41.1953 133.672 40.6331 133.892C40.0708 134.108 39.4388 134.216 38.7371 134.216ZM45.4506 134V123.636H46.9889V125.202H47.0969C47.2858 124.689 47.6276 124.273 48.1224 123.953C48.6172 123.634 49.175 123.474 49.7957 123.474C49.9127 123.474 50.0589 123.477 50.2343 123.481C50.4097 123.486 50.5424 123.492 50.6324 123.501V125.121C50.5784 125.107 50.4547 125.087 50.2613 125.06C50.0724 125.029 49.8722 125.013 49.6608 125.013C49.157 125.013 48.7072 125.118 48.3113 125.33C47.92 125.537 47.6096 125.825 47.3802 126.194C47.1553 126.558 47.0429 126.974 47.0429 127.442V134H45.4506ZM5.37074 157.216C4.5071 157.216 3.74467 156.998 3.08345 156.561C2.42223 156.121 1.90495 155.5 1.53161 154.699C1.15826 153.894 0.971591 152.943 0.971591 151.845C0.971591 150.757 1.15826 149.812 1.53161 149.011C1.90495 148.211 2.42448 147.592 3.0902 147.156C3.75592 146.72 4.52509 146.501 5.39773 146.501C6.07244 146.501 6.60547 146.614 6.9968 146.839C7.39264 147.059 7.69401 147.311 7.90092 147.594C8.11233 147.873 8.27652 148.103 8.39347 148.283H8.52841V143.182H10.1207V157H8.58239V155.408H8.39347C8.27652 155.597 8.11009 155.835 7.89418 156.123C7.67827 156.406 7.37015 156.66 6.96982 156.885C6.56948 157.106 6.03646 157.216 5.37074 157.216ZM5.58665 155.786C6.22538 155.786 6.76515 155.619 7.20597 155.286C7.64678 154.949 7.98189 154.483 8.21129 153.89C8.4407 153.291 8.5554 152.601 8.5554 151.818C8.5554 151.045 8.44295 150.368 8.21804 149.787C7.99313 149.203 7.66027 148.748 7.21946 148.424C6.77865 148.096 6.23438 147.932 5.58665 147.932C4.91193 147.932 4.34967 148.105 3.89986 148.451C3.45455 148.793 3.11944 149.259 2.89453 149.848C2.67412 150.433 2.56392 151.089 2.56392 151.818C2.56392 152.556 2.67637 153.226 2.90128 153.829C3.13068 154.427 3.46804 154.904 3.91335 155.259C4.36316 155.61 4.92093 155.786 5.58665 155.786ZM13.2582 157V146.636H14.7965V148.202H14.9045C15.0934 147.689 15.4353 147.273 15.93 146.953C16.4248 146.634 16.9826 146.474 17.6033 146.474C17.7203 146.474 17.8665 146.477 18.0419 146.481C18.2173 146.486 18.35 146.492 18.44 146.501V148.121C18.386 148.107 18.2623 148.087 18.0689 148.06C17.88 148.029 17.6798 148.013 17.4684 148.013C16.9646 148.013 16.5148 148.118 16.119 148.33C15.7276 148.537 15.4173 148.825 15.1879 149.194C14.9629 149.558 14.8505 149.974 14.8505 150.442V157H13.2582ZM24.2223 157.216C23.2867 157.216 22.4658 156.993 21.7596 156.548C21.0579 156.103 20.5091 155.48 20.1133 154.679C19.7219 153.878 19.5263 152.943 19.5263 151.872C19.5263 150.793 19.7219 149.85 20.1133 149.045C20.5091 148.24 21.0579 147.615 21.7596 147.169C22.4658 146.724 23.2867 146.501 24.2223 146.501C25.1579 146.501 25.9766 146.724 26.6783 147.169C27.3845 147.615 27.9332 148.24 28.3246 149.045C28.7204 149.85 28.9183 150.793 28.9183 151.872C28.9183 152.943 28.7204 153.878 28.3246 154.679C27.9332 155.48 27.3845 156.103 26.6783 156.548C25.9766 156.993 25.1579 157.216 24.2223 157.216ZM24.2223 155.786C24.933 155.786 25.5178 155.603 25.9766 155.239C26.4354 154.875 26.775 154.396 26.9954 153.802C27.2158 153.208 27.326 152.565 27.326 151.872C27.326 151.179 27.2158 150.534 26.9954 149.936C26.775 149.337 26.4354 148.854 25.9766 148.485C25.5178 148.116 24.933 147.932 24.2223 147.932C23.5116 147.932 22.9268 148.116 22.468 148.485C22.0092 148.854 21.6696 149.337 21.4492 149.936C21.2288 150.534 21.1186 151.179 21.1186 151.872C21.1186 152.565 21.2288 153.208 21.4492 153.802C21.6696 154.396 22.0092 154.875 22.468 155.239C22.9268 155.603 23.5116 155.786 24.2223 155.786ZM31.349 160.886V146.636H32.8873V148.283H33.0763C33.1932 148.103 33.3551 147.873 33.5621 147.594C33.7735 147.311 34.0748 147.059 34.4662 146.839C34.862 146.614 35.3973 146.501 36.072 146.501C36.9446 146.501 37.7138 146.72 38.3795 147.156C39.0452 147.592 39.5648 148.211 39.9381 149.011C40.3115 149.812 40.4981 150.757 40.4981 151.845C40.4981 152.943 40.3115 153.894 39.9381 154.699C39.5648 155.5 39.0475 156.121 38.3863 156.561C37.7251 156.998 36.9626 157.216 36.099 157.216C35.4333 157.216 34.9002 157.106 34.4999 156.885C34.0996 156.66 33.7915 156.406 33.5756 156.123C33.3596 155.835 33.1932 155.597 33.0763 155.408H32.9413V160.886H31.349ZM32.9143 151.818C32.9143 152.601 33.029 153.291 33.2584 153.89C33.4878 154.483 33.8229 154.949 34.2638 155.286C34.7046 155.619 35.2443 155.786 35.8831 155.786C36.5488 155.786 37.1043 155.61 37.5496 155.259C37.9994 154.904 38.3368 154.427 38.5617 153.829C38.7911 153.226 38.9058 152.556 38.9058 151.818C38.9058 151.089 38.7934 150.433 38.5684 149.848C38.348 149.259 38.0129 148.793 37.5631 148.451C37.1178 148.105 36.5578 147.932 35.8831 147.932C35.2354 147.932 34.6911 148.096 34.2503 148.424C33.8095 148.748 33.4766 149.203 33.2517 149.787C33.0268 150.368 32.9143 151.045 32.9143 151.818ZM1.4304 180V178.786L5.99148 173.793C6.52675 173.208 6.96757 172.7 7.31392 172.268C7.66027 171.831 7.91667 171.422 8.0831 171.04C8.25402 170.653 8.33949 170.248 8.33949 169.825C8.33949 169.339 8.22254 168.919 7.98864 168.564C7.75923 168.208 7.44437 167.934 7.04403 167.74C6.6437 167.547 6.19389 167.45 5.6946 167.45C5.16383 167.45 4.70052 167.56 4.30469 167.781C3.91335 167.997 3.60973 168.3 3.39382 168.692C3.18241 169.083 3.0767 169.542 3.0767 170.068H1.48438C1.48438 169.259 1.67105 168.548 2.04439 167.936C2.41773 167.324 2.92602 166.848 3.56925 166.506C4.21697 166.164 4.94342 165.993 5.74858 165.993C6.55824 165.993 7.27569 166.164 7.90092 166.506C8.52616 166.848 9.01645 167.309 9.3718 167.889C9.72715 168.469 9.90483 169.115 9.90483 169.825C9.90483 170.334 9.81262 170.831 9.6282 171.316C9.44827 171.798 9.1334 172.335 8.68359 172.929C8.23828 173.518 7.61979 174.238 6.82812 175.088L3.72443 178.408V178.516H10.1477V180H1.4304ZM12.9613 180V169.636H14.4996V171.256H14.6346C14.8505 170.702 15.1991 170.273 15.6804 169.967C16.1617 169.657 16.7397 169.501 17.4144 169.501C18.0981 169.501 18.6671 169.657 19.1214 169.967C19.5803 170.273 19.9379 170.702 20.1942 171.256H20.3022C20.5676 170.72 20.9657 170.295 21.4964 169.98C22.0272 169.661 22.6637 169.501 23.4059 169.501C24.3325 169.501 25.0904 169.792 25.6797 170.372C26.2689 170.948 26.5636 171.845 26.5636 173.064V180H24.9712V173.064C24.9712 172.299 24.7621 171.753 24.3438 171.424C23.9254 171.096 23.4329 170.932 22.8661 170.932C22.1374 170.932 21.5729 171.152 21.1726 171.593C20.7723 172.029 20.5721 172.583 20.5721 173.253V180H18.9528V172.902C18.9528 172.313 18.7616 171.838 18.3793 171.478C17.9969 171.114 17.5044 170.932 16.9016 170.932C16.4878 170.932 16.101 171.042 15.7411 171.262C15.3858 171.483 15.0979 171.789 14.8775 172.18C14.6616 172.567 14.5536 173.014 14.5536 173.523V180H12.9613ZM29.475 180V169.636H31.0133V171.256H31.1483C31.3642 170.702 31.7128 170.273 32.1941 169.967C32.6754 169.657 33.2534 169.501 33.9281 169.501C34.6118 169.501 35.1808 169.657 35.6351 169.967C36.0939 170.273 36.4515 170.702 36.7079 171.256H36.8159C37.0813 170.72 37.4793 170.295 38.0101 169.98C38.5409 169.661 39.1774 169.501 39.9196 169.501C40.8462 169.501 41.6041 169.792 42.1934 170.372C42.7826 170.948 43.0772 171.845 43.0772 173.064V180H41.4849V173.064C41.4849 172.299 41.2757 171.753 40.8574 171.424C40.4391 171.096 39.9466 170.932 39.3798 170.932C38.6511 170.932 38.0866 171.152 37.6863 171.593C37.2859 172.029 37.0858 172.583 37.0858 173.253V180H35.4664V172.902C35.4664 172.313 35.2753 171.838 34.8929 171.478C34.5106 171.114 34.0181 170.932 33.4153 170.932C33.0015 170.932 32.6146 171.042 32.2548 171.262C31.8994 171.483 31.6116 171.789 31.3912 172.18C31.1752 172.567 31.0673 173.014 31.0673 173.523V180H29.475Z" fill="black"/>
</svg>
